<?xml version="1.0" encoding="utf-8"?>
<!-- Generator: Adobe Illustrator 18.1.1, SVG Export Plug-In . SVG Version: 6.00 Build 0)  -->
<svg version="1.1" id="Layer_1" xmlns="http://www.w3.org/2000/svg" xmlns:xlink="http://www.w3.org/1999/xlink" x="0px" y="0px"
	 viewBox="84 209 780 375" enable-background="new 84 209 780 375" xml:space="preserve">
<polygon fill="#333333" points="734.8,357.7 734.8,357.7 734.7,357.7 734.6,357.7 734.6,357.7 734.5,357.7 734.5,357.5 734.5,357.5 
	734.5,357.4 734.5,357.4 734.4,357.4 733.8,357.3 733.7,357.3 733.7,357.2 733.7,357.2 733.6,357.2 733.6,357.2 733.6,357.1 
	733.6,357.1 733.6,357.1 733.6,357.1 733.6,357.1 733.5,357.1 733.5,357.1 733.5,357.1 733.4,357 733.3,356.8 733.2,356.8 
	733,356.8 732.9,356.8 732.8,356.9 732.7,357 732.6,357.1 732.6,357.2 732.6,357.2 732.6,357.2 732.6,357.2 732.5,357.3 
	732.6,357.3 732.7,357.4 732.7,357.4 732.7,357.5 732.7,357.5 732.7,357.4 732.6,357.4 732.6,357.4 732.5,357.4 732.5,357.4 
	732.5,357.4 732.4,357.5 732.3,357.5 731.9,357.6 731.8,357.7 731.7,357.7 731.7,357.8 731.6,357.8 731.3,358 731.3,358.1 
	731.2,358.2 731,358.4 731,358.5 731,358.6 731,358.6 731,358.6 730.9,358.6 730.9,358.7 730.9,358.7 730.9,358.8 730.9,358.8 
	730.9,358.8 730.9,358.9 730.9,358.9 730.9,358.9 730.9,359 730.9,359 730.9,359 730.8,359.2 730.8,359.3 730.7,359.3 730.7,359.3 
	730.7,359.4 730.7,359.5 730.6,359.5 730.6,359.6 730.5,359.6 730.5,359.6 730.4,359.7 730.4,359.8 730.3,359.8 730.3,359.8 
	730.3,359.9 730.2,359.9 730.2,360 730.2,360 730.1,360.2 730.1,360.3 730.1,360.4 730.1,360.4 729.8,360.8 729.8,360.9 729.7,361 
	729.6,361.3 729.6,361.4 729.6,361.5 729.6,361.6 729.5,361.6 729.4,361.8 729.4,361.9 729.4,361.9 729.4,362.1 729.3,362.1 
	729.3,362.2 729.3,362.2 729.3,362.3 729.2,362.3 729.2,362.3 729.2,362.3 729.1,362.4 729.1,362.4 729.1,362.7 729,362.8 
	729,362.9 729,363 728.9,363.1 728.9,363.1 728.8,363.2 728.8,363.3 728.8,363.3 728.7,363.3 728.7,363.4 728.7,363.5 728.6,363.6 
	728.6,363.7 728.6,363.8 728.5,364 728.5,364.1 728.5,364.3 728.5,364.4 728.5,364.5 728.6,364.7 728.6,364.7 728.6,364.8 
	728.6,364.8 728.6,364.8 728.6,364.9 728.6,364.9 728.6,364.9 728.6,365 728.7,365.1 728.6,365.3 728.6,365.3 728.6,365.3 
	728.6,365.3 728.6,365.3 728.6,365.3 728.7,365.3 728.7,365.3 728.7,365.4 728.7,365.4 728.7,365.4 728.6,365.5 728.6,365.5 
	728.6,365.5 728.6,365.5 728.5,365.7 728.5,365.7 728.5,365.7 728.5,365.8 728.5,365.8 728.5,365.9 728.5,365.9 728.5,366 
	728.5,366 728.5,366 728.5,366 728.4,366.1 728.5,366.1 728.6,366.2 728.6,366.2 728.5,366.2 728.5,366.3 728.6,366.3 728.6,366.3 
	728.6,366.3 728.6,366.4 728.5,366.4 728.5,366.4 728.5,366.4 728.5,366.5 728.5,366.5 728.5,366.6 728.6,366.5 728.6,366.5 
	728.6,366.5 728.7,366.5 728.7,366.5 728.7,366.6 728.7,366.7 728.8,366.6 728.8,366.6 728.8,366.6 728.8,366.5 728.9,366.5 
	728.9,366.6 728.9,366.7 728.8,366.8 728.9,366.8 728.9,366.9 729,367.1 729,367.2 729.1,367.2 729.1,367.3 729.1,367.3 
	729.1,367.3 729.1,367.3 729.1,367.3 729.1,367.4 729.1,367.4 729.1,367.5 729.2,367.6 729.3,367.7 729.3,367.8 729.4,367.9 
	729.4,367.9 729.3,368 729.4,368.1 729.4,368.1 729.6,368.2 729.6,368.3 729.7,368.4 729.7,368.5 729.5,368.3 729.7,368.5 
	729.9,368.7 730,368.7 730,368.6 730,368.6 730.1,368.7 730.1,368.7 730.2,368.7 730.2,368.8 730.4,368.8 730.5,368.8 730.5,368.9 
	730.5,368.9 730.5,368.9 730.5,368.9 730.6,368.9 730.7,369 730.7,369.1 730.8,369.2 730.9,369.3 730.9,369.3 731.3,370 
	731.3,370.1 731.3,370.1 731.2,370.2 731.3,370.3 731.3,370.4 731.3,370.4 731.3,370.4 731.4,370.5 731.4,370.6 731.4,370.7 
	731.4,370.7 731.5,370.7 731.5,370.7 731.5,370.6 731.6,370.6 731.7,370.6 731.8,370.7 731.9,370.8 731.9,370.7 731.9,370.6 
	731.9,370.5 731.9,370.4 732,370.4 732,370.3 732,370.2 731.9,369.2 731.9,369 731.9,368.9 732,368.7 732,368.4 732,368.3 
	732.1,368.2 732.2,368 732.2,367.9 732.3,367.7 732.3,367.7 732.3,367.7 732.5,367.5 732.7,367.3 732.7,367.2 732.8,367.1 
	732.8,367.1 732.8,367 732.8,367 732.8,366.9 732.8,366.9 732.9,366.8 733,366.6 733,366.6 733.2,366.4 733.2,366.3 733.2,366.1 
	733.3,366 733.3,365.9 733.3,365.8 733.3,365.8 733.4,365.8 733.4,365.7 733.5,365.6 733.5,365.4 733.4,365.3 733.4,365.1 
	733.5,365 733.5,365 733.6,364.8 733.6,364.8 733.7,363.4 733.7,363.3 733.8,362.7 733.9,362.5 733.9,362.2 733.9,362.1 
	733.9,362.1 733.9,362 733.9,362 733.9,361.9 733.9,361.9 733.9,361.9 733.9,361.8 733.8,361.8 733.8,361.7 733.8,361.6 
	733.9,361.5 734,361.3 734,361.2 734,361.2 734.1,361.1 734.1,361.1 734.1,361 734.1,361 734.2,361 734.3,360.8 734.3,360.7 
	734.3,360.7 734.3,360.7 734.3,360.7 734.3,360.6 734.3,360.6 734.3,360.6 734.3,360.6 734.3,360.6 734.3,360.5 734.3,360.5 
	734.3,360.4 734.3,360.4 734.3,360.3 734.3,360.2 734.3,360.2 734.4,360.1 734.5,360 734.5,360 734.5,359.9 734.5,359.9 
	734.5,359.9 734.5,359.8 734.5,359.8 734.5,359.7 734.5,359.6 734.5,359.5 734.5,359.5 734.5,359.5 734.6,359.5 734.6,359.5 
	734.6,359.4 734.5,359.4 734.4,359.4 734.4,359.3 734.3,359.2 734.4,359.1 734.3,359.1 734.3,358.9 734.3,358.8 734.3,358.7 
	734.3,358.5 734.3,358.4 734.3,358.4 734.6,358 734.6,357.9 734.9,357.8 734.9,357.7 "/>
<g id="Layer_1_1_" display="none">
</g>
<g id="Layer_2">
</g>
<g id="Layer_4">
</g>
<g>
	<g>
		<path fill="#252525" d="M668.1,69c-1.5-0.3-1.5-1.5-2-2.9c-0.3-0.7-0.8-1.1-0.9-1.7c-0.2-1.4,1.2-4-1.2-3.8
			c-2,0.2-0.7,3.8-0.9,5.4c-0.5,3.8-3.8,5.1-5.9,6.9c0,1.1,0.9,1.2,0.9,2.3c-0.4,1.4-2.3,1.4-2.4,3.2c1.3,1,2.7-0.4,3.8-1.1
			c1.1-0.7,2.4-1.4,3.5-2.3c1.1-0.9,1.8-2.2,3-2.7c0.7-0.3,1.5-0.2,2.1-0.5c1.3-0.6,2.3-1.9,2.9-3.2C670.2,68.2,669,69,668.1,69z
			 M649.9,76.9c-1.9,1.2-3.7,2.8-5.7,4.2c-3.5,2.6-9.6,4-13.8,6.2c-1.3,0.6-3.8,1.7-5,2.6c-2.7,2,1.4,3.5,3.6,3.3
			c2-0.2,4.6-1.7,6.3-2.9c1.8-1.2,3.3-3,5.3-3.9c1.3-0.6,2.6-0.4,3.8-0.9c0.9-0.4,1.5-1.5,2.3-2c2.4-1.6,6.1-2.9,6.9-5.4
			C652.4,77.9,650.8,76.3,649.9,76.9z M624-19.2c2.7,0.2,4-1.2,4.2-3.3c-0.3-0.1-0.3-0.4-0.8-0.3c-1.4,1.1-7.2-0.2-6.9,2
			C620.6-20.2,622.8-19.3,624-19.2z M620.1-12.6c-0.5-2.5-3.6-2.3-3.5-4.5c0.1-1.1,1.6-1.2,1.5-2.3c-0.1-1.4-3.6-2.1-4.2-2.7
			c-0.7-0.7-0.7-1.6-1.2-2.3c-1.9-2.3-6.2-3.1-9.8-4.4c-1.1-0.4-2.1-1-3.2-1.4c-1.2-0.4-2.6-0.5-3.6-0.9c-1.5-0.6-2.3-1.6-3.6-1.7
			c-1.3-0.1-2.9,0.6-3.9,1.2c-1.4,0.9-2.4,3.3-3.9,3.2c-1.2-0.1-2.5-2.3-2.7-3.2c-0.1-0.7,0.2-1.5,0-2.1c-0.4-1.2-3.6-3.3-5.3-3
			c-1.8,0.3-2.6,3-1.5,4.8c0.4,0.7,1.6,1,2,1.8c0.3,0.7-0.1,1.2,0.1,1.7c1.2,2.6,6,2,9.2,3.6c0.9,0.5,1.5,1.4,2.3,1.8
			c0.7,0.4,1.6,0.5,2.3,1.1c0.6,0.6,2,2.6,1.8,3.9c-0.2,1.3-3.2,1.9-2.7,3.8c0.6,2.3,4.2-0.4,5.7-0.2c1.5,0.2,2.3,2.3,3.9,2.9
			c1.5,0.5,2.8-0.1,4.8,0.2c2.1-1.2,2.1-4,4.5-4.2c1.4-0.2,3.4,0.8,4.2,1.5c1.5,1.4,1.9,3.9,3.3,5c1.3,1,2.7,0.5,4.5,0.9
			c1.4,0.3,2.5,1.6,3.3,0.8C626-8.8,621.2-12.2,620.1-12.6z M620.8,31c-0.7-1.1-1.7-1.9-2.1-3c-0.3-0.8-0.2-1.5-0.4-2
			c-0.5-0.9-1.8-0.9-2.3-2c-0.1-0.3,0-1.1-0.2-1.5c-0.3-1-0.8-1.5-0.8-2.7c-1.5-2-3.8-1.9-5-3.8c-0.9-1.5-0.3-3.1-0.6-5.1
			c-0.2-1.1-1.1-2.2-1.2-3.5c-0.1-0.8,0.4-1.7,0.3-2.4c-0.3-2.1-2.4-1.8-3.6-2.7c0.3-3.1-0.3-6.8-2.1-8.8c-1.8,0.7-2.6,3.5-3.2,5.6
			c-0.2,0.8-0.8,1.5-0.9,2.3c-0.4,2.3-0.5,4.9-1.5,7.1c-0.9,1.9-2.4,3.8-3.9,3.8c-1.3,0-2-1.5-3-2.1c-0.3-0.2-1-0.3-1.5-0.6
			c-0.5-0.3-1.4-1.3-2.4-2c-1.5-0.9-4-1.8-3.9-3.5c0-1.4,1.3-1.6,2.6-2.1c0.4-0.7-0.1-1.1,0.1-1.8c0.3-1,1.5-1.8,1.4-2.7
			c-0.3-2.2-2.9-0.6-4.4-0.6c-2.7-0.1-5.6-2.5-7.4-2.6c-0.7,0.6,0.2,1.2,0,2.1c-0.8,1.3-2.5,0.4-4.1,0.8c-1.9,0.5-2.7,2.5-3.8,4.1
			c-0.7,1-1.6,2.8-2.4,3c-2.3,0.6-3.3-2.4-5.4-2.6c-0.6-0.1-1.8,0.3-2.4,0.6c-1.1,0.5-2.6,1.6-3.5,2.3c-1.2,1-1.4,2.5-2.4,3.5
			c-0.5,0.5-2,1.2-2.7,1.4c-0.7,0.2-1.3-0.1-2,0.2c-1.3,0.6-1.1,2-1.8,3.6c-0.6,1.4-2.7,3.7-4.2,4.5c-1.4,0.8-3,0.6-4.8,1.1
			c-1.9,0.4-3.6,1.6-5,1.8c-0.4,0.1-1.2-0.1-1.8,0c-2.3,0.4-4.2,2.5-6.5,3.6c-0.7,0.3-2.3,0.9-2.7,1.5c-0.3,0.5-0.3,1.8-0.6,2.6
			c-0.6,1.5-1.5,2.1-1.5,3.3c0,1.7,1.1,1.9,0.6,3.3c-0.3,0.9-1.5,1-1.7,2c-0.1,0.6,0.4,1.3,0.5,2.3c0.1,0.6-0.1,1.3,0,1.8
			c0.2,1.4,1,2.6,1.1,3.9c0,1-0.5,2-0.6,3c-0.1,1.3,0.6,2.5,0.6,3.5c0,1.3-1.1,3.3-1.7,4.2c-0.6,0.8-2.3,1.6-2.3,2.7
			c0,1.5,1.7,1.9,2.7,2.7c4.9,0.7,6.7-1.9,9.9-2.9c3.2-0.9,6.4,0,9.5-0.3c1.9-1.6,5.3-4,8.3-4.5c0.9-0.2,1.9,0.1,2.9,0
			c3.7-0.4,6.6-2.8,11.3-2.1c1.1,0.2,4.2,1.4,5.1,2c0.8,0.5,2.4,3.6,2.6,4.4c0.2,1-0.7,2.1,0.5,2.6c1.3,0.2,2.1-1.3,3.2-2
			c1-0.6,2.1-0.8,3-1.2c-0.4,0.5-0.6,1.2-0.6,2.1c1.1,0.7,1,2,0.8,3c0.5,1,1.6,1.3,1.7,2.4c0.1,1.2-0.9,1.7-0.8,3
			c0.3,2.4,2.7,2.3,4.8,3c1,0.3,1.4,0.8,2.1,0.8c1.8,0,2.7-1.1,3.9-0.9c1.1,0.1,2.1,1.5,3.3,1.5c1.1,0,2.6-1.7,4.8-2.6
			c1.4-0.6,2.8-0.4,4.4-0.6c2.6-0.3,3.4-3.2,5-5c1.1-1.2,2.7-2.3,4.1-3.8c1.3-1.4,2.5-2.9,3.9-4.1c0.9-0.8,2.1-1.2,3-2
			c1.6-1.3,3.1-3.4,4.2-5.3c1.3-2.3,3.1-4.1,3.8-5.9c0.6-1.5,0.3-3.5,0.6-5c0.3-1.2,1.4-2.3,1.1-3.8C622.6,33.2,621.5,32.1,620.8,31
			z M479.8-78.8c0.4,1.1,0.8,2,1.2,2.9c0.4,0.9,1.1,1.7,1.4,2.7c0.3,1,0,2.5,0.2,3.6c0.1,0.6,0.4,1.1,0.5,1.7
			c0.1,2.4-0.7,4.8-0.6,6.8c0.1,1.4,2,2,3,3c1.3,1.2,2.9,3.4,3.3,4.8c0.5,1.6,0.4,3.2,0.9,4.5c0.2,0.6,0.8,1.2,1.2,1.8
			c1.3,2.1,2.3,3.2,4.4,4.5c1.2,0.8,2.5,1.7,3.9,2c1.5-2-1-3.3-1.5-5.3c-0.4-1.7,0.2-3.5-0.5-5.1c-0.6-1.4-3.4-3.8-5-5
			c-0.8-0.6-2-0.7-2.7-1.4c-1.1-1-1.2-3-2.3-4.7c-0.6-1-1.9-1.9-2.1-2.9c-0.5-2.5,1-4.1,1.4-6.2c0.3-2.1-0.1-3.4,1.2-3.5
			c0.8,0,1.4,1.5,2.3,2c1.3,0.7,2.9,0.9,3.9,2c0.8,0.8,1.3,2.3,2.4,3.2c1.3,1.1,3.5,1.6,3.9,2.7c0.3,0.8-0.3,2.5,0.8,2.9
			c2.7-0.3,3.5-3.3,5.1-4.2c2.1-1.3,4.8-1.8,5.9-4.1c0.7-9.1-3.7-11.4-8-15.1c-1.1-1-4.4-4.4-4.4-6c0.1-2.2,4.6-6.2,6.6-6.3
			c2.3-0.2,4.2,1.7,3.9,3.6c-0.2,1.1-2.5,1.8-2.4,3.6c0.1,1.6,2,2.2,2.9,2.1c1.2-0.1,2.9-2,2.7-3.9c-0.1-1.2-1.7-2-1.7-3.2
			c0.2-2.4,3.7-2,5.7-2.7c0.8-0.3,1.5-1.2,2.4-1.5c3.4-1.1,7.2-1.8,10.1-4.1c3.2-2.5,4.3-6.2,5.3-10.9c2.1-1,1-3.4,1.4-6
			c-0.4-1.1-2-0.9-2.4-2c-0.1-0.8,0.4-1,0.3-1.8c-0.8-0.7-0.7-1.9-1.4-2.9c-0.3-0.4-1.3-0.8-2-1.5c-1.5-1.5-2.9-3.7-3.9-4.5
			c-1.2-0.9-2.9-1.2-2.9-2.6c0-2.4,4.1-3.8,4.8-5.6c-1.2-0.7-2.7-1.5-4.5-1.4c-1.1,0.1-1.8,1.3-2.9,1.2c-1.3-0.1-1.5-1.7-2.9-2.3
			c-1.6-0.6-3.5-0.3-3.3-2c0.1-0.9,1.6-1,2.4-1.7c1.2-0.9,2.6-4.1,4.7-3.9c2.7,0.3,0.1,3.5,2.3,4.8c1.5-0.3,2-1.6,3.6-2
			c2.2-0.4,4.9,0.3,5.6,2c0.5,1.2,0.1,2.5,1.4,3.2c1.9,1,3.5,0.1,4.4,1.7c0.3,0.5,0.2,1.3,0.5,1.8c0.5,0.9,1.3,1.4,1.7,2.6
			c0.4,1.5-0.2,3.1,1.5,3.6c1.8,0.6,6.1-1.5,6.2-3c0.1-1.1-1.1-3.1-2-4.2c-1.3-1.6-3.6-3.6-5-4.5c-1-0.7-2.9-0.9-3-2.4
			c-0.1-1.6,2.1-1.9,2.6-3.5c0.3-1-0.2-1.5-0.3-3c1.1-1.4,1.5-3.1,3.3-3.2c1.2-0.1,1.8,1,3,0.9c1.4-0.1,3.3-1.7,3.9-3
			c0.3-0.7,0.4-2.1,0.8-3.2c0.3-1,0.9-2,1.1-2.9c0.1-0.9-0.2-1.8-0.1-2.9c0-1.5,0.7-3.2,0.6-4.1c-0.1-1.4-1.4-3.2-2.4-4.5
			c-0.5-0.6-3.4-3.5-1.5-4.2c1-0.4,2.6,1.3,3,1.8c1,1.1,1.6,2,2.3,2.7c1.7,2,2.3,4.4,4.7,5.3c0.6-0.7,0.1-1.3,0.3-2.3
			c0.2-0.6,0.8-0.9,0.8-1.7c-0.1-0.8-2.2-2.4-2.9-3c-1.2-1.1-2.6-1.8-3.5-2.6c-2.5-2.2-3.7-5-6.3-5.7c-1.4,0.5-0.7,1.4-2.1,1.5
			c-0.8,0-2.3-1-3.3-1.5c-1.1-0.5-2.1-1.4-3.5-1.4c-0.7,0-1.9,1.1-2.9,1.1c-1.5,0-3.7-2.1-5-2.3c-0.8-0.1-1.1,0.3-1.7,0.2
			c-2.5-0.7,0.3-3.3,0.6-3.9c0.3-0.7,0.3-1.6,0.5-2.1c0.2-0.6,0.9-1.2,1.2-2.1c0.2-0.6,0.1-1.4,0.3-2c1.6-4.1,8.6-0.9,13.4-1.8
			c0.8-0.2,1.8-1,2.9-1.1c2.2-0.1,3.4,1.8,5.9,2c0.9,0.1,4.8-0.2,5-1.1c0.1-0.9-1.7-1.6-1.8-2.3c-0.4-2.2,1.2-3.9,2.4-4.2
			c4.5-1.1,4.8,2.8,7.7,2.6c1-0.1,2.1-1.2,2.3-2.1c0.1-0.7-0.7-1.7,0.1-2.1c1.1,0.3,3.2,2.5,3.3,3.6c0.1,1.1-1.4,2.8-1.5,4.5
			c0,0.7,0.3,1.3,0.1,1.8c-0.3,1.2-2,1.8-2,2.6c0.5,5.1,5.5,8.1,8.7,10.6c3.1,2.4,5.7,4.9,8.6,6.8c0.6-0.3,1.3-0.9,1.4-1.7
			c0.1-0.9-0.7-1.6-0.8-2.6c0-0.7,0.5-1.3,0.5-2c-0.1-0.9-1-1.1-0.9-1.8c0.3-1.1,1.6-0.9,1.5-2c-0.1-0.9-2-1.1-2.3-2.4
			c-0.1-0.7,0.4-0.9,0.3-2c-0.4-0.8-1.2-0.8-2-1.4c-0.9-0.7-1.5-2-2.6-2.4c-0.9-0.3-1.8,0-2.6-0.5c-1.1-0.8-0.8-2.7-1.4-4.1
			c1-2,3.2-0.7,4.8-1.1c0.7-0.1,1.4-1.1,2.1-1.2c2-0.4,4.1,1.2,5.4,0.9c1.1-0.2,2-2.7,3-3.6c0.9-0.8,3.2-2.3,4.5-2.4
			c0.9-0.1,2.1,0.7,3.2-0.2c-0.6-2.6-7.2-2.4-7.4-5c-0.1-0.9,0.9-1.9,1.8-2.1c5.6-1.4,10,3.4,15.3,2.3c0.4-4.3-4.9-6.2-9.5-6.2
			c-0.9,0-1.5,0.3-2.3,0.3c-1.4,0-3.2-1.1-5-1.7c-3-0.9-6.7-1.3-9.5-2.1c-0.5-0.1-1-0.6-1.5-0.8c-0.5-0.1-1.2,0-1.8-0.1
			c-0.7-0.2-1.3-0.7-2-0.8c-1.4-0.2-2.6,0.3-4.1,0.5c-2,0.2-4.2,0.1-5.9-0.3c-2-0.5-3.6-2-5.3-2.1c-0.7-0.1-1.5,0.3-2.3,0.3
			c-1.3,0-2.5-0.7-3.3,0c-0.9,0.6,0.8,1.5-0.1,2.1c-2.2,0.4-4.5-2-6-2c-1.2,0-1.8,0.8-2.7,0.9c-0.5,0-1.1-0.2-1.8-0.3
			c-2.8-0.2-7.1,0.3-9.9,0c-1.9-0.2-2.7-1.7-4.5-2.4c-3.4-1.4-7.8-1.2-11.3-0.9c-1.5,0.1-3.1,0.5-4.7,0.3c-0.7-0.1-1.6-0.7-2.6-0.9
			c-1.5-0.3-3.2-0.1-4.2-0.5c-1.5-0.5-2.6-2-4.1-2.3c-1.3-0.2-2.9,0.2-4.4,0.1c-4.2-0.1-8.7-0.5-13.2-0.3c-0.8,0.5-0.6,1.5-1.5,2
			c-2.4,1.1-7.7-0.5-10.7,0.2c-0.9,0.4-1,1.5-2,1.7c-0.8,0.1-2.8-0.7-3.6-1.2c-0.8-0.5-1.4-1.6-2.3-2.3c-1.2-0.9-3.1-2.2-4.2-2.4
			c-2.1-0.5-5,0.1-7.5-0.2c-0.6-0.1-1.6-0.4-2.3-0.3c-1.3,0.2-2.5,1.6-4.1,1.7c-0.8,0-1.6-0.4-2.6-0.5c-0.7-0.1-1.5,0.1-2.1,0
			c-0.8-0.1-1.5-0.8-2.4-0.9c-1.5-0.2-3.8-0.3-5.6-0.3c-1.4,0-2.6,0.5-3.8,0.2c-1.8-0.5-2.7-1.9-4.2-2.4c-0.4-2.4-1.7-2.2-3.6-2.9
			c-0.6-0.2-1.1-0.8-1.7-0.9c-2.9-0.8-6.2,0.2-9.3-0.3c-1-0.2-1.9-1.3-3-1.5c-1.2-0.2-2.6,0.4-4.2,0.6c-1.5,0.2-3.2-0.3-4.5,0
			c-0.8,0.2-1.4,1-2.3,1.4c-0.8,0.3-1.8,0.6-2.7,0.6c-1.4,0-2.9-1-4.5-0.9c-1.5,0.1-3.3,1.5-5.3,1.8c-3.2,0.5-6.3,0.7-8.1,2
			c-0.6,0.7,0.7,1.2,0.1,2c-2.1,0.8-6-0.2-7.7,1.1c-0.5,0.9,0.8,1.7-0.2,2.3c-1.4-0.1-1.7-0.6-2.6-0.6c-1.6,0.1-2.5,2.4-3.8,2.4
			c-1,0-1.5-1.7-2.6-1.7c-1.2,0.1-1.8,2.7-2.9,2.7c-1.2,0-1-1.7-1.8-2.9c-1.2-1.7-5.6-1.7-6.9-0.4c-0.4,0.4-2.1,3.3-2.1,3.6
			c0,0.7,1.3,2.9,1.7,3.2c1.1,0.9,3.5,0.3,3.8,2.4c-3.1-0.1-6.3-1.8-9.8-2.3c-2.3-0.3-4.8-0.3-7.1-0.5c-0.7,0.9,1.6,1.6,0.6,2.6
			c-0.6,0.6-2-0.6-2.9-0.6c-1.2-0.1-2.2,0.7-3.6,0.9c-0.6,0.1-1.4-0.1-2.1,0c-0.9,0.1-1.6,0.5-2.3,0.5c-1.2-0.2-1.8-1.2-2.7-1.2
			c-0.7,0-1.7,0.7-2.6,0.9c-0.7,0.2-1.5,0-2,0.2c-0.7,0.2-1.4,0.9-2.3,1.2c-0.7,0.3-1.5,0.3-2.1,0.6c-1.4,0.7-1.7,2-3.2,2.1
			c-0.6,0-1.9-0.2-2.4-1.4c-0.1-0.9,0.8-0.8,0.6-1.8c-0.4-0.9-3.2-1.2-3.8-0.2c-1.1,1.6,0.9,2.4,0.8,4.1c-0.3,0.1-0.5,0.3-0.6,0.6
			c-2.7-1.2-5,0.4-6.8,1.5c-0.2,0.8-0.1,2-0.9,2.3c-2.1,0.3-3.9-1.6-5.4-0.5c-0.2,1.5,2,0.7,1.7,2.3c-3.4,0.4-7-2.2-7.1-5.6
			c2.5-0.8,5.6,0.6,8,0.6c1.4,0,4.7-0.6,4.7-2.6c-0.1-1.7-3.8-2.4-5.6-3c-2.1-0.7-4.5-1.8-6.6-2.1c-0.7-0.1-1.4,0.1-2.1,0
			c-2-0.2-3.5-1.2-5-1.4c-1-0.1-1.9,0.2-2.6,0c-1.3-0.5-1.2-1.7-2.3-2.1c-2-0.9-4.2-0.1-6.6-0.2c-1.4,0-2.8-0.4-3.9-0.3
			c-0.8,0.1-1.4,0.4-2,0.5c-0.4,0-1.3-0.2-1.7-0.2c-0.9,0.1-1.8,1-2.7,1.4c-1.6,0.6-3.4,0.4-5.1,0.8c-1.6,0.4-3,2.2-4.5,2.4
			c-1.1,0.2-3-0.6-3.5,0.5c-0.3,1.1,0.9,1.4,0.4,2.1c-1,1.7-3.4,2.3-4.7,3.9c-0.4,0.4-0.4,1.2-0.8,1.7c-0.5,0.7-1.4,1.1-1.8,1.7
			c-0.6,1-0.4,1.8-1.2,2.3c-1.3,0.8-3.3,0.3-4.7,0.8c-0.8,0.3-1.4,1.1-2.1,1.5c-1.9,1-4.6,1.3-5.7,3.3c-0.3,1.7,0.4,3,0.6,4.2
			c0.1,0.8-0.1,1.6,0.2,2.4c0.5,1.4,2.5,2.9,4.4,2.9c2.9,0,5.1-3.6,7.4-3.2c1.1,0.2,1.2,2,1.8,3c0.5,0.9,2.9,2.5,2.6,4.1
			c-0.3,1.2-3.1,1.7-4.5,1.7c-0.1-1.4,0.2-3.6-0.9-4.4c-2.3,1.1-3.9,0.8-4.5,2.6c-0.8,2.3,1.4,3.9,1.1,6c-0.3,2.2-4.9,1.4-6.9,1.8
			c-1.5,0.3-2.1,2.1-3.3,3.6c-0.9,1-2.5,2.2-3.8,2.7c-0.6,0.3-1.4,0.2-2,0.6c-0.8,0.6-1.1,1.9-2.1,2.6c-0.7,0.5-3.3,1.8-4.1,1.8
			c-0.9,0-1.6-0.8-2.3-0.6c-0.9,0.3-0.8,2.1-1.8,2.4c-2,0.7-5.3-1.8-6,1.2c0.9,1.7,3,1.3,4.5,2.3c0.9,0.6,2.9,3.2,3.2,4.2
			c0.2,0.9-0.1,4.2-0.5,5.1c-0.9,2.4-3.1,1.6-5.9,1.5c-0.8,0-1.6,0.2-2.3,0.1c-4.7-0.3-9.3-2-11.4,1.4c0.2,2.6,0.7,4.3,0.2,6.5
			c-0.4,1.6-1.9,3.1-1.8,4.5c0,0.7,0.9,1.4,1.1,2.4c0.1,0.5-0.2,1.6,0,2.1c0.8,1.5,2.9,0.2,4.2,0.4c1.3,0.2,2.9,2.1,2.9,3.6
			c0,1-1,2.8-1.7,3.8c-1.3,2-3.1,2.1-5,3.2c-1.6,0.9-2.2,2.4-3.2,3.9c-1,1.7-1.6,2.7-1.2,5.1c-1.3,2.7-3.4,4.3-6.2,5.6
			c-0.8,0.4-2,0.5-2.7,1.1c-0.6,0.4-0.9,1.6-1.8,2.6c-1.1,1.2-2.2,1.7-2.7,2.6c-0.4,0.7-0.6,2.1-1.1,3c-0.6,1.3-2,1.9-2.9,3.2
			c-0.4,0.6-0.6,1.8-1.1,2.6c-1,1.7-2.6,3-2.4,4.5c0.2,1.5,1.8,1.7,2,3c0.1,0.7-0.5,1.2-0.5,2c0,1.2,0.8,2,0.9,2.9
			c0.2,2.2-0.8,3.1-1.2,4.7c-0.2,0.7-0.1,1.5-0.3,2.1c-0.4,1.1-1.9,2.1-2,3.5c0,0.9,1,1.7,1.1,3c0.1,0.9-0.5,1.9-0.3,2.7
			c0.3,1.6,3.2,3.5,4.5,4.8c1.7,1.7,3.9,3,4.7,4.8c0.6,1.5,0.6,3.5,1.8,4.7c0.9,0.8,2.3,1.4,3.5,2.3c1,0.8,2.2,1.5,3.3,2.4
			c1.8,1.4,4.6,4.3,7.5,4.1c1.5-0.1,3.1-1.3,4.8-1.7c1.8-0.3,4.1-0.5,5.9-0.3c1.4,0.1,2.8,1,4.2,0.9c1.5-0.1,3.3-1.2,5-2
			c3-1.3,7.4-3,11.7-2.4c3.3,0.5,3.1,4.3,5.4,5.7c2.7,0.2,4.8-1,6.9-0.5c1.6,0.4,3.5,2.8,3.6,4.1c0.2,1.3-0.7,3.3-0.9,4.1
			c-0.4,1.8-0.4,3.9-0.8,5c-0.2,0.9-0.9,1.4-0.9,2.3c0,0.8,1,2.7,1.8,3.8c1,1.3,2.6,2.2,3.8,3.6c2.2,2.5,3.1,5.6,4.7,8.9
			c0.6,1.2,1.6,3.1,1.7,4.4c0,0.9-0.5,1.8-0.5,2.7c0.2,2,1.4,2.9,1.7,4.7c0.5,4.2-3.3,5.5-4.1,8.9c-0.2,0.8,0,1.7-0.1,2.4
			c-0.3,1.1-1,2-1.2,3c-0.2,1.1-0.4,3.1-0.3,4.2c0.2,1.6,1.9,3.1,2.7,4.5c0.9,1.5,1.6,4.1,2.7,6c0.6,1.1,1.6,2,1.8,2.9
			c0.3,1.1,0,2.7,0.1,4.1c0.1,1.1,0.8,2.1,0.9,3c0.5,2.8,0.6,5.5,2,7.8c0.7,1.2,1.9,1.9,2.9,3.3c0.9,1.4,1.2,3.3,2.1,5
			c0.9,1.8,2.1,3,2.1,3.9c0,0.8-0.8,1.7-0.8,2.6c0.1,2.3,2.6,4.7,4.5,4.7c0.9,0,1.8-0.7,2.7-0.9c0.6-0.1,1.1,0.1,1.7,0
			c0.9-0.2,1.7-0.8,2.4-0.9c1.9-0.3,3.9,0.3,5.7,0.1c3.1-0.2,6.7-1.7,8.7-3.2c2.3-1.7,4.7-3.7,6.5-5.6c1.3-1.4,1.9-3.3,3.2-4.7
			c1-1.1,2.5-1.6,3.2-2.9c0.4-0.8,1.4-3.6,1.5-4.4c0.1-0.9-0.5-1.6-0.3-2.4c0.6-2.8,6.1-2.2,7.2-4.8c1-2.4,0.4-5.6-0.2-7.8
			c-0.2-0.8-1-2.1-0.9-3c0.2-1.5,2.6-2.9,4.4-4.4c1.1-0.9,1.9-2.2,3-3c1.5-1.1,3.7-1.3,5.1-2.3c1.3-0.8,3.5-3.2,4.1-4.5
			c0.6-1.5,0-2.7-0.2-4.4c-0.3-2.6,0.2-5.5,0-8.6c-1.5-1.4-2.2-3.7-3-5.7c0.3-1.7,0.6-3.1,0.2-4.7c-0.3-0.9-1.1-1.5-1.2-2.4
			c-0.3-2.4,1.4-3.6,2.3-5.3c0.7-1.5,1.2-3.1,1.8-3.9c0.8-1.1,2.3-1.6,3.3-2.7c0.7-0.8,1-1.8,1.7-2.7c1.7-2.3,4.2-4.9,6.6-6.6
			c1.2-0.9,2.5-1.4,3.6-2.3c1.1-0.9,2-1.9,3-3c1.8-2,4.1-4.4,5.3-6.8c0.4-0.8,0.3-1.7,0.6-2.4c1-2.4,3.1-4.4,3.9-7.1
			c0.1-0.5,0.1-1.1,0.3-1.7c0.4-1.6,1.5-3.6,0-5.3c-1.4-0.4-2.7,1.1-4.5,1.4c-1.9,0.3-3.7,0.1-5.3,0.5c-0.9,0.2-1.6,0.9-2.4,1.1
			c-0.5,0.1-1.2-0.1-1.8,0c-1.2,0.2-2.2,1-3,0.9c-1.9-0.2-3.1-2.4-4.2-3.6c0.2-0.9,0.9-1.2,0.6-2.3c-0.2-0.8-1.3-0.9-2.1-1.7
			c-1.4-1.3-2.6-3.1-4.2-4.2c-1.8-1.3-4.4-2.1-5.3-4.1c-0.6-1.3-0.6-3.3-1.5-4.7c-1.1-1.7-3.7-2.8-4.2-4.5c-0.5-1.8-0.1-3.1-0.5-5
			c-0.6-2.8-3.6-3.5-4.5-5.9c-0.3-0.7-0.2-1.5-0.5-2.1c-0.6-1.7-1.9-3.3-2.9-4.8c-1-1.7-1.9-3.3-2.6-5.3c0.6-0.8,1.9-0.9,3.2-1.1
			c2.4,2,4.5,4.4,6,7.2c0.4,0.7,0.5,1.6,0.9,2.3c0.7,1,1.8,1.4,2.4,2.1c0.8,0.9,1.5,2,1.8,3.2c0.2,0.7,0,1.4,0.1,2.3
			c0.7,3.3,4.2,4.6,6,7.2c0.5,0.8,0.7,1.7,1.2,2.4c0.9,1.4,2.5,2.1,2.9,3.8c-0.1,0.8-1.3,0.5-1.2,1.5c0.5,1.2,1.8,1.6,2.4,2.7
			c1.3,2.3,1.5,5.5,2.6,8c2.3,1.4,4.5-1,6.8-1.7c0.7-0.2,1.5-0.1,2.3-0.3c0.9-0.2,1.9-0.9,2.9-1.2c0.5-0.1,1.1,0,1.5-0.2
			c1.1-0.4,1.9-1.5,3.2-2.1c2-0.9,4.3-0.9,5.7-1.8c1.3-0.9,1.3-2.5,2.4-3.2c1.7-1.1,3.6-0.8,5.6-1.5c1-0.4,1.6-1.4,2.6-2.1
			c0.8-0.6,1.7-1.2,2.6-2c0.8-0.7,2.1-1.5,2.4-2.1c0.2-0.3,0.1-1.4,0.3-2c0.3-0.7,1.2-1.1,1.8-1.8c0.6-0.8,2.6-3.8,2.6-4.7
			c-0.1-1-3.1-3.8-3.8-4.1c-1.1-0.4-2.1-0.2-2.9-0.4c-1.1-0.4-2-1.4-2.6-2.6c-0.6-1.2,0-2.1-1.7-3.2c-2.8,2.4-4.6,5.9-10.8,4.8
			c-1.4-0.6-0.8-3.1-1.4-4.5c-0.7-0.7-1.9,0.1-2.6-0.2c-0.9-3.2-4-4.1-5.7-6.5c-0.5-0.7-1.8-2.5-1.7-3.5c0.2-1.4,2.1-2.1,3.3-2.1
			c3.5,0,3.9,4.6,6.2,6.2c0.9,0.6,2.1,1.1,3.5,2c1.9,1.2,4.2,2.4,6.9,1.8c1.3-0.3,2.1-1.4,3.5-1.1c1.2,0.3,1.4,2.2,2.1,2.9
			c1.1,1,3.6,1.5,5.6,1.7c1.5,0.2,3.3,0.4,4.8,0.6c2.3,0.3,4.5-0.2,6.3-0.3c1.4-0.1,3.7,0.1,5,0c0.5,0,1.3-0.4,1.8-0.3
			c2,0.2,3.1,2.6,4.2,3.6c2,1.8,4.7,2.6,5.7,4.1c-1.3,2.5,3.1,5.3,4.7,5.3c1.7,0,2.3-1.5,3.8-1.8c1.6,0.8,1.1,2,1.2,3.9
			c0.1,1.3,0.7,3.4,1.2,5.1c0.5,1.6,1,3.4,1.5,4.8c0.6,1.7,1.9,3.3,2.9,5c1.1,1.9,1.3,4,2.1,5.7c0.7,1.5,2,2.6,2.7,3.8
			c1.5,2.6,2.3,8.9,5.6,8.4c0.7-0.1,0.9-0.8,1.7-1.7c0.5-0.6,1.3-1,1.8-1.7c0.3-0.4,0.5-1.2,0.9-1.8c0.5-0.7,1.1-1,1.2-1.5
			c0.2-1-0.3-2.1-0.2-3c0.1-1.1,0.9-2.1,1.1-3.2c0.3-2.4-1-4.3-0.9-6.8c1.1-2.1,3.5-2.3,5.1-3.8c0.6-0.6,0.8-1.5,1.4-2.1
			c0.7-0.7,1.8-1.2,2.6-2c1.6-1.6,2.6-3.5,4.1-4.5c1.1-0.8,2.8-0.8,3.3-2.4c-0.4-3.6,2.1-2.8,5.1-3c0.9-0.1,3.1-0.5,4.1-0.8
			c0.9-0.3,1.9-1.5,2.7-1.4c0.9,0.2,1.1,1.7,1.7,2.9c0.4,0.8,1.3,1.9,2.1,2.7c0.9,0.8,2.2,1.3,2.9,2.1c0.4,0.4,0.5,1.2,0.9,1.8
			c1.1,1.4,2.5,2.2,2.6,4.2c0,1-0.6,1.9-0.5,2.9c0.2,1,1.5,1.8,2.6,1.8c2,0,3.5-3.1,5-2.9C478.5-83.9,479.2-80.5,479.8-78.8z
			 M245.5-189.6c1.5-0.3,1.1-1.5,2.1-1.7c0.7-0.1,1.3,0.6,2.3,0.5c1.1-0.1,2-1.7,3-2.1c1.9-0.8,3.5-0.4,3.8-2
			c0.2-0.9-0.5-2.2-0.3-3.2c0.5-2.2,4.5-1.8,4.4-4.4c-0.1-1.5-3.3-1.9-3.6-3.3c-0.2-0.9,0.3-2.5,0.6-3c1.4-2.5,5.7-2.8,7.1-4.8
			c0.6-1,0.6-1.9,1.1-2.4c1.2-1.3,5-1.5,6.3-0.3c0,3.4-6.8,3.9-6.9,6.6c0,0.6,0.5,1.6,0.6,2.6c0.1,0.9,0,1.5,0.2,2
			c0.5,1.5,2.5,2.6,4.1,2.7c3.6,0.2,9-3.5,12.2-0.8c-1.4,3-6.4,0.5-9.9,1.8c-0.7,0.3-1.2,1-1.8,1.2c-0.9,0.3-2.4,0-2.4,1.4
			c0.7,1.4,1.8-0.3,2.7-0.3c1,0,2.4,1.1,2.3,2.3c-0.3,2.8-2.7-0.1-4.4,0c-2.4,0.1-2.9,3.5-2.4,6c-1.1,0.6-2.3,2.3-3.8,2.4
			c-0.9,0.1-1.6-0.8-2.9-0.9c-2.7-0.3-5.2,2.2-7.8,2.1c-1.1,0-2.3-1.4-4.1-1.4c-0.9,0-1.6,0.7-2.6,0.8c-1.2,0.1-3.1-0.4-3-1.4
			C242.3-190.7,244.3-189.4,245.5-189.6z M296.7-16.9c-2.1-0.2-3.6-4.3-2.6-6.8h0.4c1.2,0.7,0.6,2.4,0.9,3.8
			C295.8-18.8,297.3-18,296.7-16.9z M308-5.9c1.6,0.8,0.7,3.9,0,5c-1.7-0.7-1-3.7-0.3-5H308z M307.4-35.9c0.2,1.3-1,2.4-1.5,3.5
			c-0.5,1-0.3,1.8-1.4,2.3c-1.8,0.1-3.3-0.1-3.9-1.2c0.6-1.4-0.1-2.5,0.3-3.9C301.6-37.4,307-38.8,307.4-35.9z M306.5-130.1
			c-0.8,2.4-0.3,4.8-2.6,5.6c-3.1,1.1-4.9-1.2-7.8-1.1c-1.5,0.1-2.6,1.6-4.2,1.8c-2.5,0.4-5.1-1.8-8-2.1c-0.7-0.1-1.4,0.1-2,0
			c-0.7-0.2-1.2-1-2-1.2c-1.2-0.4-2.2-0.2-3.3-0.5c-1.5-2.6-9-2.8-9.6,1.1c-0.3,1.7,0.9,4.1-1.7,4.4c-1.6,0.2-3.2-1.6-5.4-2.1
			c-0.9-0.2-2.2-0.1-2.9-0.3c-1.6-0.6-1.4-2.2-2.9-3.2c-0.8-0.6-2.9-1.4-4.2-1.5c-0.8-0.1-1.6,0.2-2.4,0.1c-1-0.1-2.5-0.8-3.3-1.4
			c-0.8-0.5-2.5-1.2-2.7-2c-0.3-1.1,2-2.4,2.1-3.3c0.1-0.7-0.9-1.2-1.1-2.3c-0.1-0.7,0.3-1.4,0.2-1.8c-0.2-0.8-1.5-1.6-2.7-1.7
			c-1.1,0-2.1,0.9-3,0.9c-1.3,0-3.5-0.7-5.1-0.6c-1,0.1-1.9,0.7-2.9,0.8c-2.6,0.2-4.7-0.1-6.8,0c-1.5,0.1-4,0.6-5.4,1.2
			c-0.7,0.3-1.2,1.1-2.1,1.5c-0.4,0.2-1,0.2-1.5,0.5c-0.9,0.4-1.7,1.3-2.6,1.5c-1.2,0.3-3-0.2-5.1-0.2c-1.5,0.1-4,0.1-4.1-1.8
			c0-2.8,4.7-1.8,7.4-2.3c1-0.2,1.5-1.1,2.7-1.8c0.6-0.3,1.3-0.4,1.8-0.8c0.9-0.6,2.3-2.1,2.4-2.9c0.1-0.7-0.4-1.6-0.3-2.1
			c0.1-0.6,0.8-1.3,1.7-2.1c1.3-1.3,2.7-2.9,4.2-3.8c1.1-0.6,2.5-0.5,3-1.4c0.1-1-0.2-1.5-0.2-2.4c0.7-0.6,1.1-1.1,1.7-1.2
			c1.6-0.4,3.2,1.1,5.1,1.1c0.8,0,1.5-0.6,2.4-1.2c0.7-0.5,1.5-0.8,2.3-1.2c0.8-0.4,1.6-1.3,2.6-1.4c2.4-0.1,3.3,2.5,4.4,3.9
			c0.9,1.2,3.5,3.2,5,4.1c0.8,0.5,1.9,0.5,2.9,0.9c2,0.9,5.8,3.8,5.9,5.7c0,1-0.9,1.7-0.8,2.6c1.5,0.2,3.1-1.4,3.2-2.9
			c0-0.9-0.9-1.4-0.8-2.4c0.7-1.5,2.7,0,3.6-0.6c-0.2-1.7-2.5-1.8-3.9-2.7c-0.8-0.5-1.3-1.5-2.1-1.8c-1.2-0.5-2.4-0.4-3.3-1.1
			c-0.9-0.7-1.3-2.2-2.1-3.2c-1.2-1.5-3.9-1.7-3.2-5c0.4-0.5,1.2-1.3,1.8-1.1c1.1,0.3,1,1.2,1.8,1.8c0.6,0.4,1.4,0.3,2.1,0.8
			c0.8,0.5,1.2,1.8,2.1,2.6c1.3,1.1,3.5,1.9,5.3,2.7c1.7,0.8,4.3,1.9,4.7,3.3c0.2,0.8-0.3,1.7-0.2,2.4c0.1,0.9,0.8,1.8,1.2,2.4
			c1.2,1.6,2.8,3,4.1,5c0,2.7,0.9,4.3,3.9,3.9c1.1-0.6,0.5-1.4,1.4-2.3c0.8-0.8,2.5-0.7,2.6-2c0-1.9-4.5-2.2-3.9-5
			c0.2-0.9,1.2-0.5,2-0.5c1.3-1.5,4-3.4,5.7-1.1c0.8,4.5,2.2,8.6,5.4,11c2.3-0.8,3.3,1.3,5.4,0.9c1-0.2,1.5-1.5,2.6-1.7
			c1.8-0.3,3.1,1.7,4.8,2c2.8,0.4,4.9-2.9,7.7-1.2c0.1,2.3,0.8,3.5,0.8,5.1C308.1-132.9,307.1-131.7,306.5-130.1z M317.8-151.9
			c-1.4,0.3-3.9,0.3-5.3,0.3c-4.2-0.1-7.2-3.2-12-3c-1.1,0-2.1,0.3-2.9,0.6c-1.3,0.5-2.2,1.6-3.3,1.8c-1.4,0.3-3.6-0.4-4.7,0
			c-1.4,0.5-1.5,3.7-4.2,1.5c-0.1-1.4,1.7-0.8,1.8-2c-0.1-1.1-1.5-1.7-1.7-3c-0.2-1.5,1.3-2.1,1.8-3.8c0.2-0.5,0-1.1,0.1-1.5
			c0.3-0.6,1-1,1.5-1.7c0.9-1.3,1.8-3.9,3.6-4.1c1.7-0.2,2.6,1.3,4.1,1.2c1,1.4,1.5,3.6,3.3,3.9c1.5,0.2,3.3-1.1,4.8-1.7
			c-0.4-1.4-1.9-0.6-2.1-2c-0.3-2.3,4.6-3.1,6.6-2.6c1.2,2.5-1.8,3-1.8,4.4c0,1.3,4.1,2.5,5.1,3.2c1.8,1.1,3.7,1.9,5.3,2.9
			C320-156.1,321.9-152.7,317.8-151.9z M353.1-141.1c-1,1-2.8,1.6-4.5,1.5c-1.6,0-3.1-1.3-4.7-2c-1.6-0.7-3.3-0.8-3.6-2.4
			c-0.2-0.8,0.2-2.9,0.5-3.8c0.3-0.9,1.1-1.1,1.1-2c-0.1-1-2.6-2.9-3.5-3.8c-1.3-1.2-3-2.2-3.6-3.6c-0.2-0.5-0.2-1.3-0.5-2
			c-0.5-1.2-1.9-1.8-2-2.7c-0.1-0.6,0.7-1.9,1.4-2.4c0.7-0.5,2-1.1,3.2-2c2.5-1.8,4.5-2.4,8.4-1.5c1,0.6,1.6,3,0.6,3.8
			c-2.5-0.1-4.6,0.9-4.7,2.6c-0.1,2,4.2,4.3,5.9,5.3c0.2,0.9,0.2,2,0.9,2.4c2.3-0.9,4.5,0.5,4.5,2.3c-0.5,1.2-2,0-3,0.5
			c-0.3,0-0.1,0.5-0.4,0.5C349.8-146.7,353.9-146.3,353.1-141.1z M364.3-160.5c-1.7,0.3-4.2-3.3-1.8-3.9
			C364.3-164.9,366.7-161,364.3-160.5z M367.4-219.4c-0.5-1.6,1-1.8,1.1-3.2c0.1-2.7-4.7-3.5-4.5-6.8c0.2,0,0.1-0.3,0.2-0.5
			c2.2-0.4,2.1,1.5,3,3c0.8,1.2,2.6,1.4,3.2,2C372.6-222.5,371-218.5,367.4-219.4z M397.8-165.4c-0.7-1,0.9-2.5,1.5-1.4
			C399.2-165.9,398.8-165.3,397.8-165.4z M426.2-235.3c-0.4-0.9,0.8-1.1,1.4-1.4c1-0.6,1.7-1.2,3.3-1.2
			C430.5-236.2,427.7-235.5,426.2-235.3z M470.3-185.6c-0.4,1.3-2.2,1.9-3.3,3c-0.7,0.7-1.2,1.9-2.1,1.2c0.1-1.2,1.1-1.4,1.7-2.1
			c-0.1-1.5,1.5-2.6,1.7-4.1c0.1-1.1-1.1-2.9,0.6-3.2C470-189.4,470.9-187.5,470.3-185.6z M583.5,77.8c-1.7-0.3-2.9-1.7-3.9,0.5
			c-0.4,0.7-1.3,4.2-1.2,5c0.5,2.7,4.8,0.8,6.2-0.2c1.9-1.3,3.3-3.4,3.8-5.3C587,76.7,585.3,78.1,583.5,77.8z M578.1-136.2
			c-0.5-1.7-0.9-3.5-1.5-5.3c-0.3-0.8-0.8-1.5-0.9-2.1c-0.1-1.1,0.5-2.1,0.3-3.2c-0.4-2.7-3.9-5.3-6.6-5.6c-1.8,2.1,1,3.9,1.5,5.6
			c0.8,2.7-0.7,5.3-2.1,6c-0.5,0.3-1.2,0.2-1.8,0.6c-0.7,0.5-0.8,2.6-2.1,3.2c-1.5,0.6-3.6,0-5.6,0.5c-1.1,0.2-2.8,2-3.6,2.9
			c-0.7,0.7-2.9,2.5-2.9,3.6c0,1,1.4,1.7,2.4,3c0.8,1.1,1.5,2.8,2.9,2.6c1.9-0.3,0.3-3.8,1.8-4.7c2.6,0.9,3.7-2.7,5.9-2.7
			c0.8,0,1.5,1,2.4,0.8c1.1-0.3,1.4-2.2,2.6-2.7C573.2-134.9,576.5-134.2,578.1-136.2z M565.3-156.2c0,1.4,2.1,2.8,3.3,3
			c0.5-1.3-0.4-2.4,1.1-2.7c1.2-0.3,2.6,1.1,3.8,0.9c0.8-0.1,1.5-1.5,2.1-2c0.6-0.4,1.3-0.3,1.7-1.1c-0.1-2.1-1.9-1.9-4.1-2.3
			c-3.3-0.5-6.2-3.3-7.7-3c0,0.2-0.2,0.2-0.2,0.5c0.6,1.6,1.8,2.5,1.4,4.2C566.4-157.6,565.3-157,565.3-156.2z M569.4-4.6
			c0.2,0.8,2.4,1,2.3-0.3C571.4-5.8,569.5-5.5,569.4-4.6z M563.7-166.4c2.5-1.6-1.1-3.4-2.6-4.2C560.6-168.9,562.2-167,563.7-166.4z
			 M552-8.2c1.8-0.2,3.1-1.7,4.5-2.6c1.4-0.9,3.7-0.8,4.4-2.7c-3-1-4.9,1-6.6,2c-1.2,0.6-2.9,1-2.9,2.7C551.6-8.6,551.8-8.4,552-8.2
			z M554.8-39.7c-1.2-0.7-2.9-0.1-4.7-0.2c-1.6,0-3.3-0.7-4.4-0.6c-1.4,0.1-2.8,1.4-2.9,2.7c0.9,0.3,1.1-0.3,2-0.4
			C548.8-38.8,554.6-35.9,554.8-39.7z M550.9-21.8c0.7-0.5,0.4-2,0.5-3.2c-1.4-1.7-1.9-4.4-3.2-6.3c0.8-1.6,3.6-1.8,3.5-3.9
			c-2.5-0.5-4.7,1.7-6.5,1.4c-0.5-0.1-1.6-1.8-2.4-1.8c-1.6,0.1-1.3,2.7-1.8,4.1c-0.3,0.9-1.4,1.9-1.4,2.9c0.1,1.1,1.5,1.4,1.8,2.9
			c0.3,1.6-1.2,3.8,0.3,4.2c3.1,0.9,1-6.5,3.3-6.9C546.3-26.6,547.9-21.2,550.9-21.8z M546.1-12.7c-0.3-1.3-3.4-1.6-3.9-0.5
			C542.5-12.1,545.5-11.6,546.1-12.7z M539.9-10.3c0.3,1.2,1.6,1.4,2.7,1.8c0.2-0.2,0.4-0.4,0.6-0.6
			C543.2-10.5,540.8-11.5,539.9-10.3z M536.8-54.2c-0.2-1.2-2.3-4.3-3.6-2.7c-1.6,1.8-1.6,3.9-3.6,5.4c-0.8,0.6-1.6,0.6-2.6,1.2
			c-0.8,0.5-1.3,1.8-2,2.6c-0.7,0.8-1.4,1.7-2.4,2.1c-1,0.4-2.2,0.2-2.9,0.6c-1.2,0.8-1,2.7-2.4,3c-0.7,0.2-1.8-0.6-2.9-0.5
			c-2.6,0.4-2.2,5-1.2,7.1c0.7,1.4,1.9,2,2.3,3c0.3,1,0.2,2.8,1.2,3.5c0.5,0.3,1.6,0.1,2.7,0.5c0.9,0.3,1.5,0.9,2.1,0.9
			c0.8,0.1,1.8-0.5,2.6-0.5c2.1,0,3.4,1.8,4.7,2c1.2,0.1,2.3-0.8,3.3-0.8c1.4-1.3,0.7-3.6,1.4-5.4c0.5-1.5,2.2-1.8,2.9-3
			c0.2-1.7-0.3-1.8,0.1-2.9c0.5-1.2,2.8-1.1,2.9-2.3c0-0.6-1.2-1.5-1.7-2.4c-0.4-0.8-0.8-2-0.9-2.6c-0.5-3.8,2-4,2.9-6.6
			C539-53,537.5-53.2,536.8-54.2z M534.4-13.6c-1.1,0.1-2.6-0.7-3,0.5c0.3,1.3,1.9,1.3,3.5,1.4c1-1.1,3.6,0,4.4-1.1
			C538.7-15.1,536.2-13.8,534.4-13.6z M524-13.3c1.7,0.2,3.6,1.3,5-0.1c-0.9-1.8-3.8-1.6-5.6-2.6c0-0.8,0.3-1.2-0.2-1.7
			c-2.1,0.2-3.8-1.1-5.6-1.1c-0.8,0-1.4,0.6-2.3,0.8c-3.5,0.5-5.3-1.9-8-2.3c-2.1-0.3-4.4,0.1-4.4,1.5c0.1,1.3,5.1,3.3,6.5,3.5
			c1.1,0.2,2.4-0.2,3.6,0c2,0.2,3.9,1.4,6,1.7C520.8-13.4,522.5-13.5,524-13.3z M509.7-31.7c-3.8,0-3.8,6,0,6
			C513.6-25.8,513.6-31.7,509.7-31.7z M504.1-27c0.5-1.4,2.1-1.3,2.1-2.4c0-0.6-1.6-3-2.1-3c-1.1-0.1-1.2,1.4-2.3,1.1
			c-1.1-0.2-1.2-1.4-2-2.3c-0.6-0.7-1.6-1-1.8-1.8c-0.1-0.4,0.3-1.4,0.2-2c-0.4-2.3-3.5-3.4-5.3-4.5c-1.3-0.8-2.6-1.2-3.6-1.8
			c-0.7-0.4-1.4-1.5-2.3-2.3c-0.8-0.7-1.9-1.2-2.7-1.8c-1.5-1.2-2.4-3.3-3.8-3.8c-0.7-0.2-1.8,0-2.7-0.1c-1.4-0.3-2.2-1.5-3-0.6
			c0.2,3.3,3.8,4.5,5.7,6.8c0.4,0.5,0.7,1.3,1.2,1.8c0.7,0.8,1.8,1.2,2.4,2.1c0.7,1,0.7,2.4,1.4,3.5c0.8,1.3,2.2,2.1,3,3.3
			c0.9,1.3,1.2,2.9,2,4.4c0.5,1,1.6,1.8,2.4,2.7c2.3,2.6,4.5,4.9,7.2,6.8c1.1,0,2.3,0.1,3-0.3C504.5-22.4,503.4-24.9,504.1-27z
			 M433.2-64.1c-0.2,0.1-0.4,0.2-0.5,0.5c-0.9,2.7-1.5,9.3,1.5,9.8c1.5,0.2,3-0.8,3.3-1.7C438.8-58.4,434.4-63.7,433.2-64.1z
			 M347.6-2.1c-0.7,0.6-0.6,1.6-1.1,2.1c-0.5,0.6-1.4,0.7-1.8,1.2c-0.6,0.7-0.6,1.8-1.4,2.7c-0.9,1.1-2.5,2.1-3.6,2.7
			c-1.4,0.7-3.3,0.6-4.7,1.7c-1,0.7-1.8,2.7-2,3.9c-0.2,1.9,0.9,3.8,0.8,5.7c-0.1,2.5-3.1,4-3.5,7.1c-0.1,1.4,0.6,2.4,0.8,3.6
			c0.1,1-0.1,1.9,0.2,2.7c0.5,1.6,2.1,3,3.9,3c0.8,0,3.5-0.7,4.2-1.1c2-1.1,2.4-5.1,3.5-7.7c0.3-0.6,0.9-1.2,1.2-2
			c0.8-2,1.4-4.6,2.4-6.9c1.2-2.7,2.5-5.6,2.6-8.9c0.4-0.8,1.7-1.1,2-2.3c0.1-0.4-0.3-1.3-0.4-2.1C350.3,0.8,349.7-3,347.6-2.1z
			 M320.1-224.9c0.5-1.5-2.5-1.8-2.1-0.2C318.3-224.5,319.6-224.5,320.1-224.9z M299.5-134.9c0.6,1.4,3.3,0.6,3.5-0.6
			C302.4-136.6,299.5-136.1,299.5-134.9z M247.9-143c1.1,1.8,3.4,2.4,5.9,2.9c0.9-0.7,0.9-2.2,1.4-3.3
			C252.9-143.4,249.4-144.3,247.9-143z M236.9-151c0,1.7,0.2,2.8-0.2,4.2c1,1.9,3.1,0.2,3.6-1.1C241.1-152,238.9-153.2,236.9-151z
			 M238.8-153.6c0.7-0.4,1.2-1,1.1-2.3C238.4-157.5,236.9-153.9,238.8-153.6z M204.7-192.2c0.9,0.4,1.4,2.1,2.9,2.9
			c0.6,0.3,1.3,0.2,1.8,0.5c0.9,0.5,1.5,1.6,1.4,2.4c-0.3,1.2-1.9,0.9-2.7,1.8c0.1,1.8-1.2,2-1.7,3.2c0.3,0.7,1.4,0.6,1.5,1.5
			c-0.2,1-1.9,1.1-1.5,2.1c1.6,1.3,3.3-0.3,4.8-0.5c3.4-0.4,6.8,0.4,8.9-1.2c-0.3-1.6,1.7-2.2,1.5-3.6c-0.1-1.1-1.9-1.2-2.7-2
			c-0.4-0.4-0.5-1.3-1.1-2.1c-0.6-0.9-1.7-1.5-2.4-2.4c-0.9-1.2-2.7-2.9-2.7-3.8c0-1,1.3-1.3,1.5-2.7c-0.3-1.3-2.7-0.4-2.9-1.8
			c0.1-0.9,0.9-1,0.9-2c-0.2-0.1-0.4-0.2-0.8-0.1c-0.8,1-2.1,0.6-3.5,1.1c-1.1,0.4-3,2.2-3.3,2.9
			C204.2-195.1,204.8-193.9,204.7-192.2z M200.6-182.1c0.9-0.3,2.1-0.2,2.6-0.9c0.5-0.8,0.1-2.2,0.4-3.3c0.4-1.3,1.7-1.4,1.5-2.6
			c-0.2-1.5-3.7-2.4-5.7-1.2c-1.1,0.7-1.5,1.8-2.4,2.1c-1.2,0.5-2.1,0.1-2.3,1.2c-0.1,0.9,0.8,1.4,0.8,2.3c-0.4,1.1-1.7,1.4-2,2.7
			C195.1-179.3,198.7-181.5,200.6-182.1z M143.6-22.8c-0.8-0.3-2.5,0-3.6-0.5c-3.6-1.3-5.6-5.8-9.3-6c-0.8-0.1-1.5,0.3-2.4,0.3
			c-1.5,0-3.6-1-5.3-1.2c-1-0.1-2.4,0.3-3,0c-0.9-0.5-1-2.2-1.8-2.7c-0.6-0.4-1.8-0.6-2.7-0.9c-1.5-0.6-2.7-1.2-4.4-1.4
			c-0.5,0-1.2,0.3-1.8,0.2c-0.9-0.2-1.7-1.3-2.6-1.8c-1.1-0.7-2.1-1-2.6-2c1-3.2-1.7-4.2-2.4-6c-0.3-0.9-0.2-1.9-0.5-2.7
			c-0.4-1.1-1.5-1.8-2.7-2.7c-2.2-1.7-4.1-3.2-7.2-3.6c-1.4-0.2-2.7,0.4-4.4,0.3c-1.8-0.1-4-1.7-5.3-3.2c-1.3-1.5-1.9-2.8-3-3.5
			c-1.1-0.7-2.4-0.7-3.2-1.4c-0.3-0.3-0.3-0.8-0.6-1.5c-0.5-1.1-1.4-1.7-0.8-3c-1.2-0.6-1.2,1.1-2.6,0.9c-1.2-1.7-2.2-2.4-4.8-2
			c-1.2,0.2-1.9,1.8-3.3,1.8c-1.2,0-2.1-1.3-3.6-1.5c-1.2-0.2-2.5,0.3-3.3,0.2C55.4-67,55-68,53.9-68.8c-0.9-0.6-2.5-1.5-3-1.5
			c-1.5,0.1-2.6,3.2-4.7,2.1c-1-1.3,1.7-2,0.5-3.2c-0.9-0.9-1.7,0.4-2.4,0.9c-0.8,0.6-1.6,1.2-2.6,1.5c-2.1,0.8-3.3,0.4-5,1.2
			c-1.5,0.8-1.6,2.1-2.4,3.6C33.6-62.9,32-61.1,31-61c-1.3,0.1-2.5-1.8-3.6-2.3c-3.4-1.5-5.1,1.3-8,1.4c-2.7,0-6.4-4.3-6.3-6.8
			c0.1-1.5,0.9-3.8,1.1-5.7c0.1-1.5,1.2-2.4,1.2-3.8c0-1.8-2.4-3.3-3.6-3.5c-2.8-0.5-6.7,1.1-9.9-0.2c-0.6-1,0.7-1.7,1.1-2.7
			c0.2-0.6,0.1-1.3,0.3-2c0.4-1,1.4-1.7,1.8-2.7C5.3-90,5.4-91.1,5.7-92c0.4-1.1,1.1-1.8,1.2-2.6c0.1-1-0.3-2.2-1.1-2.9
			c-2.5,0.1-4.1,0.3-5.6,0.9c-3.3,1.5-2.6,5.9-5.9,6.9c-1.1,0.4-2.7,0.4-3.9,0.6c-1.1,0.2-2.4,0.8-3.5,0.8c-1.3,0-3.6-1.3-4.4-2.1
			c-0.7-0.8-2.4-4.5-2.6-5.1c-1.3-4.4,0.1-8.5,1.8-11.6c0.4-0.7,0.9-1.3,1.2-2c0.4-1,0.1-2.6,0.5-3.8c0.6-2.1,3.3-3.4,5.3-4.4
			c2.2-1.1,4.1-3,6.6-3.2c1.3-0.1,3.1,0.3,4.4,0.6c1.1,0.2,2,1,3,1.1c2.8,0.2,3.4-2,5.7-3.2c2.3,0.3,3.9-0.4,6-0.2
			c1.4,0.2,2.5,1.7,3.6,1.8c0.9,0.1,1.8-0.9,2.7-0.8c0.9,0.1,2.4,2.1,2.6,3.2c0.2,1.4-1,2.6-0.6,4.1c1.4,1.4,4,1.7,6,2.6
			c1.3-1.1,0.2-3.1,0-4.7c-0.1-0.7,0.1-1.3,0-2c-0.1-1.1-0.6-2.1-0.6-3c0-4.3,3.4-6.3,6.3-8c1.2-0.7,2.2-2,3.3-2.6
			c1.5-0.8,2.7-0.9,3.9-1.7c2.3-1.3,4.2-2.3,6-3.8c0.8-1.9,0-4.6,0.1-6.5c0.8-0.5,1.5,0.2,2.4,0.2c1.4-0.3,1.5-2.2,2.3-3
			c0.4-0.4,1.7-0.8,2.3-1.2c1.4-1.1,1.8-2.7,3-3.2c0.4-0.2,1.4-0.1,2.1-0.3c0.9-0.2,2.2-1.3,3.6-1.8c0.9-0.3,3.1-0.4,3.5-0.8
			c0.4-0.5,0-1.7,0.1-2.4c0.7-3.4,5.9-4.1,8.9-5.3c2.1-0.8,4.3-2.3,6.6-1.8c-0.5,1.6-2.6,1.1-2.3,3c0.5,2.7,4.2-0.8,5.1-1.2
			c1.8-0.8,5-1.2,7.4-2.1c2.1-0.8,5.9-2,3.9-4.4c-1.7-0.1-2.5,1.9-3.9,2.6c-1,0.1-0.8-0.8-1.7-0.9c-0.8-0.1-1.3,0.8-2.1,0.6
			c-0.8-0.1-2-1.4-2.1-2.4c-0.3-2.5,2.1-3.5,3.2-5.4c-0.7-2.3-3.8-0.5-5.7-1.4c0.2-1.4,1.6-2.3,3.2-2.6c1.3-0.2,4.2,0,5,0.6
			c0.5,0.4,0.1,1.3,0.8,2c0.8,0.7,1.7,0.6,2.7,0.5c0.4-1.7-2.2-1.3-2-2.4c2-1.3,5.3-0.2,7.8-0.6c1.4-0.2,2.9-1.2,4.2-2
			c1.2-0.7,2.8-1.9,4.1-0.8c0.4,1.2-1.1,1.6-1.8,2.3c-2.3,2.1-4.7,4.4-6.5,6.8c1.1,1.1,3.1,0.5,5,0.8c0.7,0.1,1.6,0.3,2.4,0.5
			c0.9,0.2,1.9,0.1,2.6,0.3c1.3,0.3,1.6,1.7,2.9,1.7c2.1,0,2.1-2.2,0.9-3.6c0.4-1.4,1-2.2,0.5-3.2c-0.9-1.9-4.3,0-4.5-2.4
			c-0.1-1.5,1.3-1.4,1.8-2.6c-0.2-2.9,2.4-3.1,2.1-5.7c-0.1-1.1-1-1.1-1.8-2.1c-0.4-0.5-0.6-1.6-1.1-2c-1.6-1.3-4.8-1.1-5-3.6
			c-0.1-1.5,0.4-2.7,0.1-4.4c-0.2-1.5-1.2-5.7-2.6-6c-1.7-0.4-3.4,2.5-5.4,3.5c-1.1,0.5-2.7,1.1-3.8,0.9c-0.7-0.1-2.1-1.2-2.3-2.6
			c-0.1-1.6,1.1-1.6,1.4-3.3c-0.2-1-1.3-0.8-2.3-1.5c-1.1-0.8-2-2.7-3.5-2.9c-0.7-0.1-1.7,0.6-2.4,0.6c-2.2,0.2-4.2-1.4-5.9-1.1
			c-2,0.5-1.9,3.6-3.9,4.2c0.3,1.5-1.7,2.5-2,3.6c-0.1,0.8,0.3,1.7,0.3,2.4c0.5,7.2-5.5,10.6-12.5,10.4c-1.4,1.3-1.1,3.8-1.8,5.6
			c-0.6,1.5-2.8,3.1-4.4,3c-1.1-0.1-2.4-1.7-2.4-2.7c0-1.3,1.9-2,0.8-3.5c0.2-1,2.4-1.6,2.1-3.2c-0.3-1.7-2.6-0.8-4.7-1.1
			c-1.5-0.2-3.5-1.1-4.8-1.8c-1.8-1-3.3-2.9-5.6-3.2c-1.3-0.2-2.5,0.4-3.2-0.3c-0.7-0.8,0.3-2,0.3-2.6c0-0.9-1.7-1.2-1.8-2.1
			c-0.1-0.6,1.6-2.6,2.3-3.2c1.2-1,3.3-2.1,5.3-3.2c1.9-1,4-2.1,5.9-2.7c0.8-0.3,1.7-0.2,2.4-0.4c1.9-0.7,3.2-2,5-2.6
			c0.9-0.3,2-0.2,3-0.4c2.5-0.6,4.3-2.4,6.5-2.7c-0.5,1.7-2.4,2-2.9,3.8c1.8,3.3,4.9-0.8,7.1-0.8c1.9,0,3.9,2.8,5.1,0.1
			c-0.4-1.4-1.8-2.2-3-3c-1.2-0.7-3-1.4-2.9-3c1.4-0.6,1.9,1.1,3.2,1.1c0.7,0,1.6-0.8,2.3-1.1c1.6-0.5,4.2-0.7,5.4-1.8
			c0.7-0.7,0.6-1.7,1.2-2.6c0.5-0.7,1.7-0.9,2.3-1.7c0.6-0.9,0.1-1.6,0.9-2.1c1.8-0.8,3.9,0.2,5.9,0c0.9-0.1,1.5-0.8,2.4-0.8
			c1.7,0.1,2.6,2.9,3.8,3.6c0.9,0.6,2.4,0.6,2.6,1.7c0.3,2.2-2.9,2.4-4.8,3.5c-1,0.6-1.4,1.8-2.6,2.3c-3.2,1.2-8-1.3-9,2.1
			c1.5,2.2,4.2-0.1,6-0.1c1.3,0,2.9,1.2,3.8,2.1c0.7,0.8,1,2.2,1.8,2.7c0.6,0.3,1.6,0.2,2.3,0.5c2.2,0.7,4,1.9,6.5,1.4
			c0.8-1.5-1.7-1.9-0.8-3c1.6,0.1,2.7,0.9,3.9,1.4c1.7-1.3,2.9-1.4,2.9-3.5c0-1.7-2.3-1.8-2.3-3.8c0-1.1,0.8-1.6,1.7-1.7
			c1.9-0.1,2.5,2.8,3.9,3c0.9,0.1,3.4-1.1,3.9-1.4c0.7-0.4,2.9-1.7,3-2.4c0.1-1.1-2.3-2.5-3.5-3c-1.6-0.7-3.3-0.6-3.9-2
			c-0.3-0.8,0.2-1.6-0.5-2.1c-0.1-0.8,1-1.3,0.8-2.1c-0.2-0.8-1.1-0.7-2.3-1.2c-0.8-0.4-1.6-1.2-2.3-1.4c-0.9-0.2-1.8,0-2.6-0.3
			c-2.6-1-2.2-3.2-3.9-4.2c-2.3,0.3-4.2-0.8-5.9,0.2c-2-1.1-5.1,0.3-7.7,0c-0.8-0.1-1.5-0.5-2.3-0.6c-3.9-0.4-9.4,2.2-11,3.9
			c-0.3,0.3-1.4,2.3-1.2,3.2c0.5,1.6,3.4,0.4,4.2,2c-0.2,1.9-2.2,2.8-3.8,3.6c-1.5,0.7-3.4,2.6-5,1.7c-0.6-1.6,1.8-1.6,1.2-3
			c-0.4-1-2.3-0.4-3.2-1.4c-1.2-1.4,0.2-3.4-0.2-5.4c1.7-3.1,8.2-1.3,9.9-4.4c-0.2-1-1.2-0.4-2-0.8c-0.8-0.3-1-1-1.8-1.1
			c-0.8,0-1.8,0.9-2.7,1.2c-1.1,0.4-2.1,0.7-2.9,1.2c-1.7,1.1-2.3,3.8-4.4,3.3c-0.5-1.6,1.9-2.5,1.7-3.9c-0.5-1-1.8-0.6-2.9-0.5
			c-2.9,0.3-4.9,0.9-6,2.4c-1-0.1-2.4-0.7-3,0.1c0.7,1.1,2,2.9,3.5,3.2c1,0.2,2.1-0.8,3.2,0c0.3,1.6-1.9,1.6-2,3.2
			c0,0.9,1.2,1.5,1.1,2.4c-0.2,1.3-3.5,2.9-4.8,2.1c0-1.5,2-1,2-2.4c0-0.6-1-1.4-1.7-1.5c-1.2-0.2-3.2,0.7-4.1,1.5
			c-0.7,0.7-0.7,2-1.5,2.6c-1.3,0.9-3.1,0.4-4.7,0.5c-3,0.1-4.8,0.2-6.9-0.9c-0.6-0.3-1.9-0.9-1.8-2c2.4-0.1,4.6,1.1,7.4,0.6
			c1-0.2,1.3-1.1,2.3-1.5c1-0.5,2.2,0,2.6-1.1c-0.1-1.8-2.2-1.3-2.4-2.7c-0.1-0.8,1.1-2.6,2-3.3c0.9-0.9,2.6-1,2.9-2.1
			c-0.8-1.6-2.4,0.1-3.6,0.3c-0.7,0.1-1.4-0.2-2.1,0c-1.5,0.3-2.3,1.7-3.3,2.3c-1.1-0.2-1.2-1.3-2.3-1.5c-1.3,1-2.6,0.3-3.9,0
			c-0.7-0.2-1.6-0.2-2.1-0.3c-1.2-0.4-2-1.8-3.5-2.3c-0.8-0.3-2.3,0-3.8-0.1c-2.5-0.3-4.8-1.1-6.9-0.8c-2.6,0.4-4.2,2.2-6.3,3
			c-2.5,1-6.9,2.3-3.5,4.5c3.4-0.1,6.3-1.6,9.3-1.7c0.3,1.9-1,3.4-1.7,4.7c-0.5,1-0.4,1.6-0.9,2c-2.2,1.5-6-1.2-8.7-1.7
			c-1.5-0.2-2.8,0.4-4.2,0.5c-1.4,0-2.8-0.7-4.1,0c-1.2-0.4-1-1.8-2.1-2c-0.8-0.1-1.8,0.8-2.6,0.9c-0.7,0.1-1.4-0.2-2.3-0.2
			c-1.5,0.1-3.1,0.7-4.8,1.1c-1.8,0.4-3.7,0.2-5.4,0.3c-2.4,0.2-5,1.5-7.4,1.2c-1.3-0.1-2.3-1.3-3.5-1.5c-0.9-0.2-1.8,0-2.7-0.1
			c-0.9-0.2-1.7-0.6-2.6-0.8c-2.3-0.4-4.9,0-7.2-0.3c-1-0.1-1.8-0.8-2.9-0.9c-1.1-0.2-2.3,0.2-3.5,0c-0.7-0.1-1.4-0.6-2.1-0.8
			c-0.9-0.2-2,0-2.9-0.2c-0.9-0.2-1.8-0.9-2.7-0.9c-1.4-0.1-2.8,0.7-4.1,0.9c-1.5,0.3-2.8,0.2-4.4,0.3c-1.8,0.2-3.8,0.9-5.9,1.2
			c-2.1,0.3-4,0.8-5.7,1.5c-2,0.8-3.7,1.2-5.7,1.5c-1.8,0.3-4.1,0-5.4,1.8c0.3,1.2,1.4,2.5,0.9,4.1c-1,2.2-3.2,0.2-5,0.1
			c-1.5-0.1-4.1,0.5-5.9,0.9c-1.9,0.4-4.5,0.9-4.4,2.6c0.2,2.7,6.7,0.5,8.3,1.8c0.3,2.1-2.7,1.7-4.8,2c-1,0.1-1.9,0.9-2.7,0.9
			c-0.8,0.1-1.5-0.3-2.1-0.3c-1.5,0.1-2.7,1.1-4.7,1.7c-1.2,0.4-4.3,1.3-4.4,2.1c-0.1,1.3,3.2,2.3,5,3.2c2.4,1.1,3.7,1.8,5.9,2.3
			c2.4,0.5,6.6,0.4,8.9,0.2c0.9-0.1,2-0.5,2.6-0.5c1.5,0.1,1.5,1.3,2.7,1.4c1.5,0.1,2.2-0.9,3.6-1.2c1.4-0.3,3.4-0.1,4.8-0.8
			c1.5-0.6,2.1-1.9,3.2-2c1.7-0.1,2.6,1.6,4.5,2c3.1,0.5,5.5-0.2,7.7,0.9c1.7,0.9,2.6,3.5,3.5,4.5c0.4,0.5-1,1.6-1.1,2.3
			c-0.1,0.5,0.3,1.2,0.3,1.8c-0.1,1.6-1.3,2.6-0.3,3.5c1.1,0.9,2.9-1.3,3.9,0.2c1,1.5-1,2-1.2,3.3c-0.3,1.6,0.5,3.1,0.5,4.5
			c0,0.7-0.2,2.2-0.5,2.7c-0.5,1.1-2,1-2.1,2.1c-0.2,1.7,2.5,2.9,2.7,4.4c0.1,1-0.8,2.9-1.2,3.8c-1,2.4-2.6,4.4-4.4,6.5
			c-1.6,1.9-4,3.8-5.1,5.7c-0.6,1.1-0.7,2.3-1.2,3.3c-0.8,1.4-2.1,2.2-2.9,3.6c-0.3,2.1-0.1,3.9,0,5.9c0.1,1.9-0.1,3.9,0.2,5.7
			c0.1,1,0.5,3,1.1,3.9c0.6,1.1,1.7,0.8,3,1.5c1,0.6,2.5,2,2.9,3c0.3,1.2,0.2,2.9,0.3,4.4c0.1,1.6,0.2,3.4,0.6,4.5
			c0.4,1.2,2.4,2.5,2.4,3.9c0,1.3-1.8,1.5-1.8,2.9c0,2.2,4.3,2.2,4.8,4.4c0.3,1.1-0.5,2.3-0.3,3.2c0.3,1.1,2.1,2,2.6,2.4
			c0.9,0.8,1.4,2.3,2.9,2c1.1-1.4-0.8-2.5-1.4-3.6c-0.6-1.3-0.6-3.5-1.2-5.6c-0.4-1.3-1.6-2.3-2-3.5c-0.4-1.2-0.3-2.5-0.8-3.5
			c-0.4-1-1.8-2.3-2-3.3c-0.5-3.6,3.3-4.8,4.4-2.1c0.6,1.6-0.3,3.1,0,4.8c0.2,1.4,2,2.7,2.9,3.9c1,1.4,1.8,2.7,2.7,3.6
			c0.1,1,0.1,1.1,0,2.1c1.2,1.5,2.7,2.8,3.9,4.4c1.7,2.1,4.3,4.7,3.9,8.3c-0.1,1.1-1.3,2.1-1.2,3.3c0,1,1.3,2.2,2.4,3
			c1.2,0.8,2.2,1.8,3.2,2.3c0.7,0.3,1.9,0.4,2.7,0.8c1.1,0.5,1.9,1.6,3.2,2.3c1.5,0.8,3.6,1.2,5.4,2.1c1.8,0.8,4.2,2,5.6,2
			c1.4,0,2.9-1.5,4.5-1.5c3.7-0.1,5.3,4.7,8.3,6.2c0.7,0.4,1.7,0.4,2.7,0.6c0.8,0.2,1.4,0.5,2.1,0.8c1.6,0.5,3.5,0.5,4.8,1.1
			c1.9,0.9,3.3,4.5,5,5.4c0.1,1-0.2,2.3,0.1,3c0.8,1.1,1.9,0.8,3.2,1.5c1.5,0.8,2,3,3.5,3.6c0.5,0.2,1.8,0.2,2.6,0.5
			c2,0.6,2.7,2.9,4.4,2.4c1.1-0.3,1-1.5,1.2-2.6c0.7-0.8,1.6-2.1,2.7-2.1c1.9,0,2,2,2.7,3.8c0.4,1,1.4,1.9,1.7,3
			c0.5,1.9,0.2,7.5-0.1,8.6c-0.5,1.4-2.3,1.9-3.5,3.5c-0.5,0.7-0.8,1.8-1.2,2.3c-0.7,0.9-1.9,1.1-2.4,2c-0.3,0.5-0.6,1.5-0.9,2.1
			c-0.9,1.9-2.1,3.3-1.4,5.6c0.3,0.9,1.8,1.6,1.8,2.7c0,1.3-2.8,2.5-3,3.9c-0.2,1.1,0.9,3,1.2,4.4c0.3,1.1,2.2,1.7,2.9,2.4
			c1.1,1.2,1.9,2.9,2.9,4.4c1.9,2.9,3.4,6.5,5.3,9.4c1,1.5,2.4,2.8,3,4.4C34,1.1,34,2,34.3,2.7c1.1,2.4,5.8,5,8.3,6.2
			c1.1,0.6,2.4,0.8,3.5,1.4c1.6,0.9,4.8,3.3,5.6,4.7c0.7,1.3,1.2,4.3,1.5,6.3c0.5,2.6,0,4.7,0.1,7.5c0.1,1.5,0.6,3.1,0.6,4.7
			c0,0.5-0.3,1-0.3,1.5c-0.1,1.9,0.5,4,0.3,5.9c-0.1,1-0.4,1.9-0.3,2.7c0.1,0.9,0.5,1.7,0.6,2.6c0.1,0.9-0.2,2-0.2,2.7
			c0.2,1.9,1.6,3.4,2,5.1c0.3,1.4,0.5,4.2,0.3,5.9c-0.1,0.9-0.6,1.8-0.8,2.7c-0.1,0.8,0.1,1.6,0,2.3c-0.2,1.1-0.8,1.9-0.8,2.9
			c0.1,2,2.4,3.7,2.7,5.7c0.1,0.7-0.2,1.5-0.1,2.1c0.1,1.3,0.6,2.3,0.9,3.5c0.4,1.8,0,4.2,1.8,5c1.9-0.6-0.4-2.7,0.8-3.6
			c2.2,0.7,1.5,4.2,2.1,6.3c-0.9,0.5-1.9-0.6-2.4,0.5c-0.5,0.9,0.7,1.8,0.8,2.4c0.1,1.1-0.8,2.4-0.6,3.2c0.3,1.3,2.6,1,3,2.1
			c0.4,1.1-0.8,2-0.8,3.2c0,1.2,1.6,3.5,2.9,5.1c0.6,0.8,1.5,1.3,2,2c0.4,0.6,0.7,1.7,1.2,2.3c0.5,0.5,1.8,0.8,2.6,1.4
			c1.3,0.9,2.8,3.1,4.1,3.8c0.6,0.3,1.4,0.4,2.1,0.8c1,0.4,2,1.2,2.9,1.5c2.5,0.9,4.9,1.5,6.9,2.4h4.7c1.2-0.4,2.4-0.7,2.7-2
			c-0.9-2.1-4.1-1.8-6.2-3c-1.4-0.8-2.7-2.5-3.8-3.6c-1.1-1.2-3.2-2.8-3.2-4.2c0-1.2,1.3-1.5,1.5-2.6c0.2-0.8-0.3-1,0-2
			c0.6-1.8,2.3-1.8,2.3-3.6c-0.1-3-5.9-1.7-6-4.8c-0.1-2.1,2.9-2,3.3-3.9c0.2-0.9-0.3-1.3-0.3-2.7c0.3-1.5,1.9-1.7,2.3-3.2
			c-0.6-1.1-2.1-0.3-3-0.9c-0.9-0.5-1.3-1.7-1.2-2.9c1.6-0.7,4.6,1.6,5.7-0.6c0.6-1-0.6-3.6,0.1-4.7c0.5-0.7,3.4-0.7,4.5-0.9
			c1.6-0.3,3.5-0.6,4.4-1.2c1-0.6,2.4-2.5,2.3-4.4c-0.1-0.9-0.7-1.2-1.4-2c-0.6-0.7-0.8-1.5-1.2-2.1c-0.7-1.1-1.8-0.9-2.1-2.4
			c2.2-0.4,5.4,1.8,8.6,0.9c1.5-0.4,3.5-3.6,4.2-5c0.2-0.4,0.2-1.1,0.5-1.7c0.3-0.6,0.8-1.1,0.9-1.4c0.2-0.8,0.1-1.4,0.3-2
			c0.5-1.5,2-2,2.9-3.2c0.7-0.9,1-1.9,1.7-2.7c0.7-0.9,1.3-1.7,1.8-2.6c0.4-2.8-1.1-4.7-0.5-7.1c0.7-2.7,4.5-4.4,7.1-5.6
			c0.9-0.4,1.8-1.1,2.6-1.4c1.8-0.6,4.1-0.3,5.7-0.9c2.8-1,3.1-4.1,4.5-6.6c0.7-1.2,1.5-2.4,1.7-3.3c0.1-0.8-0.3-1.5-0.2-2.4
			c0.1-0.9,1-1.7,1.2-2.7c0.3-1.3,0.5-3.2,0.5-4.7c0-1.2-0.5-2.2-0.6-3.3c-0.2-3.9,1.4-4.4,2.9-6.5c0.7-1.1,1-2.3,1.5-3
			c2.4-3.6,6.6-5.4,6.3-10.9C146.1-18.1,145-22.2,143.6-22.8z M50.2-159.8c1.4-0.1,3.4-0.3,4.1,0.3c-0.5,2-4.8,1.5-6.3,0.8
			C48.1-159.5,49.3-159.7,50.2-159.8z M104.2-219.7c0.1,0.8-0.3,1-1.1,0.9C102.6-219.5,103.6-220.1,104.2-219.7z M32.9-162.8
			c-2.1,1.3-3.4,3.3-4.1,6c-0.2,0.8-2.3,2.9-3.3,2.7c-2.4-0.5,0.7-4.9,1.2-5.6c0.6-0.7,1.4-1.4,2.1-2.3c0.7-0.8,1.1-2,1.8-2.4
			c1-0.7,4.3-1.5,5-0.8C35.5-163.4,34.2-163.5,32.9-162.8z M39.1-153.4c-1.1,0.4-3.1,0.8-3.3-0.5c-0.2-1.6,1.7-1.2,2.7-1.4
			c1.8-0.2,3.7-1.5,5.9-0.8C43-154.8,41.5-154.2,39.1-153.4z M41.5-165.8c0.7,0.1,1.6,0.8,2.4,0.9c0.8,0.1,1.5-0.4,2-0.3
			c1.3,0.3,1.8,2.2,0.6,3.2c-1,0.1-1.4-0.4-2.1-0.3c-2,0.4-2.8,4.4-4.4,4.2c-1.4-0.1-2.2-3.6-0.8-4.7c0.1-0.9-0.7-1.1-0.6-2
			C39.1-165.3,40.3-165.9,41.5-165.8z M35.8-173c1.4,0.4,5,4.3,2,5.6c-0.3,0.1-4.4,0.6-5.1,0.5c-1-0.2-1.7-1.6-2.7-1.8
			c-2.1-0.4-4.9,2.5-6.3,0.2c0.4-1.3,1.9-1.4,3.5-1.8C29.9-171.3,33.4-173.7,35.8-173z M22.7-223.9c2.5,0.3,5.3-0.3,6.9,0.5
			c0.4,0.7-0.4,1.2-0.9,1.5c-2.9-2.1-7.1,1.2-9.9-1.1C19-226.2,21.3-225.8,22.7-223.9z M16.9-186.3c2.8-0.7,1.7,4.3,0,4.4
			C14.5-181.9,15-185.9,16.9-186.3z M1.8-206.4c-1.4,0.5-3.5,1.5-5.9,1.1c0.1-1.1,1.9-1.3,3.2-2c1.1-0.6,1.6-1.5,2.7-1.5
			c0.8,0,1.6,0.8,2.3,1.4C3.9-206.5,2.7-206.7,1.8-206.4z M-4.3-218.9c2.7-0.2,7.3-2.3,8,1.1C3-217,2-217.4,1.1-217.2
			c-2.3,0.4-4.8,1.9-6.9,1.4C-5.7-217.2-4.9-218-4.3-218.9z M46.2-63.1c-1.1,0.2-1.7-1.8-0.6-2.3C47-66,47.4-63.3,46.2-63.1z
			 M96.7-222.8c-1.1-1.8-4.7,0-4.4,1.4C92.8-219.7,97-221.5,96.7-222.8z M68.9-210.1c-0.6,0.4-0.7,0.9-0.6,1.2
			c0.3,1.6,3.3,0.2,3.3-0.6C71.6-210.4,69.7-210.6,68.9-210.1z M-59.5-186.8c-0.8-1.4-2.8-0.4-2.9,1.1c0.2,0.3,0.5,0.5,0.8,0.8
			C-60.7-185.3-59.9-185.8-59.5-186.8z"/>
	</g>
</g>
<g>
	<circle fill="#EF3D3C" cx="243.9" cy="-169.6" r="3.8"/>
	<rect x="162.2" y="-129.2" fill="#FFFFFF" width="183.8" height="36.3"/>
	<text transform="matrix(1 0 0 1 172.7715 -103.5781)" fill="#252525" font-family="'ArialMT'" font-size="22">SALZBURG (HQ)</text>
	<polygon fill="#FFFFFF" points="216.9,-125.2 243.9,-169.6 241.9,-125.2 231.1,-125.2 	"/>
</g>
<g>
	<circle fill="#EF3D3C" cx="608.8" cy="55.3" r="3.8"/>
	<rect x="537.1" y="-15" fill="#FFFFFF" width="115.3" height="36.3"/>
	<text transform="matrix(1 0 0 1 550.9297 10.6631)" fill="#252525" font-family="'ArialMT'" font-size="22">SYDNEY</text>
	<polygon fill="#FFFFFF" points="608.8,16 587.1,16 608.8,55.3 608.8,55.3 	"/>
</g>
<g>
	<circle fill="#EF3D3C" cx="245.4" cy="-181.9" r="3.8"/>
	<g>
		<rect x="104" y="-194.5" fill="#FFFFFF" width="108" height="36.3"/>
		<text transform="matrix(1 0 0 1 118.8691 -168.876)" fill="#252525" font-family="'ArialMT'" font-size="22">BERLIN</text>
		<polygon fill="#FFFFFF" points="245.6,-181.9 206,-191.2 206,-172.5 		"/>
	</g>
</g>
<g>
	<circle fill="#EF3D3C" cx="245.8" cy="-196" r="3.8"/>
	<rect x="168.4" y="-260.9" fill="#FFFFFF" width="173" height="36.3"/>
	<text transform="matrix(1 0 0 1 180.2266 -235.2617)" fill="#252525" font-family="'ArialMT'" font-size="22">COPENHAGEN</text>
	<polygon fill="#FFFFFF" points="245.8,-231 224.2,-231 245.8,-195 245.8,-195 	"/>
</g>
<g>
	<g>
		<path fill="#333333" d="M858.6,536.2c-1.5-0.3-1.4-1.5-1.9-2.8c-0.3-0.7-0.8-1.1-0.9-1.6c-0.2-1.3,1.2-3.9-1.2-3.7
			c-2,0.2-0.7,3.7-0.9,5.4c-0.5,3.8-3.7,5.1-5.8,6.9c0,1.1,0.9,1.2,0.9,2.2c-0.4,1.4-2.3,1.4-2.4,3.1c1.2,1,2.7-0.4,3.7-1
			c1.1-0.7,2.4-1.4,3.4-2.2c1.1-0.9,1.7-2.2,3-2.7c0.7-0.3,1.5-0.2,2.1-0.5c1.3-0.6,2.3-1.8,2.8-3.1
			C860.7,535.3,859.5,536.1,858.6,536.2z M840.5,544c-1.9,1.2-3.7,2.7-5.7,4.2c-3.5,2.6-9.5,4-13.7,6.1c-1.3,0.6-3.8,1.7-4.9,2.5
			c-2.7,2,1.4,3.5,3.6,3.3c2-0.1,4.5-1.7,6.3-2.8c1.8-1.1,3.3-3,5.2-3.9c1.2-0.6,2.6-0.4,3.7-0.9c0.9-0.4,1.5-1.5,2.2-1.9
			c2.4-1.6,6-2.9,6.9-5.4C843.1,545,841.5,543.4,840.5,544z M814.9,448.7c2.7,0.2,4-1.2,4.2-3.3c-0.3-0.1-0.3-0.4-0.7-0.3
			c-1.4,1.1-7.2-0.2-6.9,1.9C811.6,447.7,813.7,448.6,814.9,448.7z M811,455.3c-0.5-2.4-3.6-2.3-3.4-4.5c0.1-1.1,1.6-1.2,1.5-2.2
			c-0.1-1.4-3.5-2.1-4.2-2.7c-0.7-0.7-0.7-1.6-1.2-2.2c-1.9-2.3-6.1-3.1-9.7-4.3c-1.1-0.4-2.1-1-3.1-1.3c-1.2-0.4-2.5-0.5-3.6-0.9
			c-1.5-0.5-2.3-1.5-3.6-1.6c-1.3-0.1-2.9,0.6-3.9,1.2c-1.4,0.9-2.3,3.3-3.9,3.1c-1.2-0.1-2.5-2.3-2.7-3.1c-0.1-0.7,0.2-1.5,0-2.1
			c-0.4-1.2-3.6-3.2-5.2-3c-1.8,0.3-2.5,3-1.5,4.8c0.4,0.7,1.6,1,1.9,1.8c0.3,0.7-0.1,1.2,0.1,1.6c1.2,2.6,6,2,9.1,3.6
			c0.9,0.5,1.5,1.3,2.2,1.8c0.7,0.4,1.6,0.5,2.2,1c0.6,0.6,2,2.6,1.8,3.9c-0.2,1.3-3.1,1.9-2.7,3.7c0.6,2.3,4.2-0.4,5.7-0.2
			c1.5,0.2,2.3,2.3,3.9,2.8c1.5,0.5,2.7-0.1,4.8,0.1c2.1-1.2,2.1-3.9,4.5-4.2c1.4-0.2,3.4,0.8,4.2,1.5c1.5,1.4,1.9,3.8,3.3,4.9
			c1.3,1,2.7,0.5,4.5,0.9c1.4,0.3,2.4,1.6,3.3,0.7C816.9,459,812.1,455.6,811,455.3z M811.8,498.5c-0.7-1.1-1.7-1.9-2.1-3
			c-0.3-0.8-0.2-1.5-0.4-1.9c-0.5-0.8-1.8-0.9-2.2-1.9c-0.1-0.3,0-1-0.2-1.5c-0.3-1-0.8-1.5-0.7-2.7c-1.5-2-3.8-1.9-4.9-3.7
			c-0.9-1.4-0.3-3.1-0.6-5.1c-0.2-1.1-1.1-2.2-1.2-3.4c-0.1-0.7,0.4-1.7,0.3-2.4c-0.3-2.1-2.4-1.8-3.6-2.7c0.3-3.1-0.3-6.8-2.1-8.7
			c-1.8,0.7-2.6,3.5-3.1,5.5c-0.2,0.8-0.7,1.5-0.9,2.2c-0.4,2.3-0.5,4.9-1.5,7c-0.8,1.8-2.4,3.8-3.9,3.7c-1.3,0-2-1.5-3-2.1
			c-0.3-0.2-1-0.3-1.5-0.6c-0.5-0.3-1.4-1.3-2.4-1.9c-1.5-0.9-3.9-1.7-3.9-3.4c0-1.4,1.3-1.6,2.5-2.1c0.4-0.7-0.1-1.1,0.1-1.8
			c0.3-1,1.5-1.7,1.3-2.7c-0.3-2.1-2.9-0.6-4.3-0.6c-2.6-0.1-5.6-2.4-7.3-2.5c-0.7,0.6,0.2,1.2,0,2.1c-0.8,1.3-2.5,0.4-4,0.7
			c-1.9,0.5-2.7,2.5-3.7,4c-0.7,1-1.6,2.8-2.4,3c-2.3,0.6-3.3-2.4-5.4-2.5c-0.6-0.1-1.7,0.3-2.4,0.6c-1.1,0.5-2.6,1.6-3.4,2.2
			c-1.2,1-1.3,2.5-2.4,3.4c-0.5,0.5-2,1.2-2.7,1.3c-0.7,0.2-1.3-0.1-1.9,0.2c-1.3,0.6-1.1,1.9-1.8,3.6c-0.6,1.4-2.7,3.6-4.2,4.5
			c-1.4,0.8-3,0.6-4.8,1c-1.9,0.4-3.6,1.6-4.9,1.8c-0.4,0.1-1.2-0.1-1.8,0c-2.3,0.4-4.1,2.5-6.4,3.6c-0.6,0.3-2.3,0.9-2.7,1.5
			c-0.3,0.5-0.3,1.8-0.6,2.5c-0.6,1.5-1.5,2.1-1.5,3.3c0,1.7,1.1,1.9,0.6,3.3c-0.3,0.9-1.4,1-1.6,1.9c-0.1,0.5,0.3,1.3,0.4,2.2
			c0.1,0.6-0.1,1.3,0,1.8c0.2,1.4,1,2.6,1,3.9c0,1-0.5,2-0.6,3c-0.1,1.3,0.6,2.4,0.6,3.4c0,1.3-1,3.3-1.6,4.2
			c-0.6,0.8-2.2,1.6-2.2,2.7c0,1.4,1.7,1.9,2.7,2.7c4.9,0.7,6.7-1.9,9.8-2.8c3.2-0.9,6.3,0,9.4-0.3c1.9-1.6,5.2-4,8.2-4.5
			c0.9-0.2,1.9,0.1,2.8,0c3.6-0.3,6.6-2.8,11.2-2.1c1.1,0.2,4.2,1.4,5.1,1.9c0.8,0.5,2.4,3.6,2.5,4.3c0.2,1-0.7,2.1,0.4,2.5
			c1.3,0.2,2-1.3,3.1-1.9c1-0.6,2.1-0.8,3-1.2c-0.4,0.5-0.6,1.2-0.6,2.1c1.1,0.7,1,2,0.7,3c0.5,1,1.6,1.3,1.6,2.4
			c0.1,1.1-0.9,1.7-0.7,3c0.3,2.3,2.6,2.3,4.8,3c1,0.3,1.4,0.7,2.1,0.7c1.7,0,2.7-1.1,3.9-0.9c1.1,0.1,2.1,1.5,3.3,1.5
			c1.1,0,2.6-1.7,4.8-2.5c1.4-0.6,2.8-0.4,4.3-0.6c2.6-0.3,3.4-3.2,4.9-4.9c1.1-1.2,2.7-2.3,4-3.7c1.3-1.4,2.4-2.9,3.9-4
			c0.9-0.8,2-1.2,3-1.9c1.6-1.3,3.1-3.4,4.2-5.2c1.3-2.3,3-4,3.7-5.8c0.6-1.5,0.3-3.5,0.6-4.9c0.3-1.2,1.3-2.2,1-3.7
			C813.5,500.7,812.4,499.5,811.8,498.5z M671.9,389.6c0.4,1.1,0.8,2,1.2,2.8c0.4,0.9,1.1,1.7,1.3,2.7c0.3,1,0,2.4,0.2,3.6
			c0.1,0.6,0.4,1.1,0.4,1.6c0.1,2.4-0.7,4.7-0.6,6.7c0.1,1.4,1.9,2,3,3c1.2,1.2,2.9,3.4,3.3,4.8c0.5,1.6,0.4,3.1,0.9,4.5
			c0.2,0.6,0.8,1.2,1.2,1.8c1.3,2.1,2.3,3.2,4.3,4.5c1.2,0.7,2.5,1.7,3.9,1.9c1.5-2-1-3.3-1.5-5.2c-0.4-1.7,0.2-3.5-0.4-5.1
			c-0.6-1.3-3.3-3.8-4.9-4.9c-0.8-0.6-2-0.7-2.7-1.3c-1.1-1-1.2-2.9-2.2-4.6c-0.6-1-1.9-1.8-2.1-2.8c-0.5-2.5,1-4.1,1.3-6.1
			c0.3-2.1-0.1-3.4,1.2-3.4c0.8,0,1.4,1.5,2.2,1.9c1.3,0.7,2.8,0.9,3.9,1.9c0.8,0.8,1.3,2.2,2.4,3.1c1.3,1.1,3.5,1.6,3.9,2.7
			c0.3,0.8-0.3,2.5,0.7,2.8c2.7-0.3,3.5-3.2,5.1-4.2c2.1-1.3,4.8-1.8,5.8-4c0.7-9-3.7-11.3-7.9-15c-1.1-1-4.4-4.4-4.3-6
			c0.1-2.2,4.6-6.1,6.6-6.3c2.2-0.2,4.2,1.7,3.9,3.6c-0.2,1.1-2.5,1.8-2.4,3.6c0.1,1.6,2,2.2,2.8,2.1c1.2-0.1,2.9-2,2.7-3.9
			c-0.1-1.2-1.7-1.9-1.6-3.1c0.2-2.4,3.7-2,5.7-2.7c0.8-0.3,1.5-1.2,2.4-1.5c3.4-1.1,7.2-1.8,10-4c3.2-2.5,4.3-6.1,5.2-10.8
			c2.1-1,1-3.4,1.3-6c-0.4-1.1-2-0.9-2.4-1.9c-0.1-0.8,0.4-1,0.3-1.8c-0.8-0.6-0.6-1.9-1.3-2.8c-0.3-0.4-1.3-0.8-1.9-1.5
			c-1.5-1.5-2.8-3.7-3.9-4.5c-1.2-0.9-2.8-1.2-2.8-2.5c0-2.4,4-3.7,4.8-5.5c-1.2-0.7-2.6-1.5-4.5-1.3c-1.1,0.1-1.8,1.3-2.8,1.2
			c-1.3-0.1-1.4-1.7-2.8-2.2c-1.5-0.6-3.5-0.3-3.3-1.9c0.1-0.9,1.6-1,2.4-1.6c1.2-0.9,2.6-4.1,4.6-3.9c2.7,0.3,0.1,3.5,2.2,4.8
			c1.5-0.3,2-1.6,3.6-1.9c2.2-0.4,4.9,0.3,5.5,1.9c0.5,1.2,0.1,2.5,1.3,3.1c1.9,1,3.4,0.1,4.3,1.6c0.3,0.5,0.2,1.3,0.4,1.8
			c0.5,0.9,1.3,1.4,1.6,2.5c0.4,1.5-0.2,3.1,1.5,3.6c1.8,0.5,6-1.5,6.1-3c0.1-1.1-1.1-3.1-1.9-4.2c-1.3-1.6-3.6-3.6-4.9-4.5
			c-1-0.6-2.9-0.9-3-2.4c-0.1-1.6,2.1-1.9,2.5-3.4c0.3-1-0.2-1.5-0.3-3c1.1-1.4,1.4-3.1,3.3-3.1c1.2-0.1,1.7,0.9,3,0.9
			c1.4-0.1,3.3-1.6,3.9-3c0.3-0.7,0.4-2,0.7-3.1c0.3-1,0.9-2,1-2.8c0.1-0.9-0.2-1.8-0.1-2.8c0-1.5,0.7-3.1,0.6-4
			c-0.1-1.4-1.4-3.2-2.4-4.5c-0.5-0.6-3.4-3.5-1.5-4.2c1-0.4,2.5,1.3,3,1.8c1,1.1,1.6,1.9,2.2,2.7c1.7,2,2.2,4.4,4.6,5.2
			c0.6-0.7,0.1-1.3,0.3-2.2c0.2-0.6,0.8-0.9,0.7-1.6c-0.1-0.8-2.2-2.4-2.8-3c-1.2-1.1-2.5-1.8-3.4-2.5c-2.5-2.2-3.7-4.9-6.3-5.7
			c-1.4,0.4-0.7,1.4-2.1,1.5c-0.7,0-2.3-1-3.3-1.5c-1.1-0.5-2-1.4-3.4-1.3c-0.7,0-1.9,1.1-2.8,1c-1.5,0-3.6-2.1-4.9-2.2
			c-0.8-0.1-1,0.3-1.6,0.2c-2.5-0.7,0.3-3.2,0.6-3.9c0.3-0.7,0.3-1.6,0.4-2.1c0.2-0.6,0.9-1.2,1.2-2.1c0.2-0.6,0.1-1.4,0.3-1.9
			c1.6-4.1,8.6-0.9,13.3-1.8c0.8-0.2,1.8-1,2.8-1c2.2-0.1,3.4,1.8,5.8,1.9c0.9,0.1,4.8-0.2,4.9-1c0.1-0.9-1.7-1.6-1.8-2.2
			c-0.4-2.2,1.2-3.9,2.4-4.2c4.5-1.1,4.8,2.8,7.6,2.5c1-0.1,2.1-1.2,2.2-2.1c0.1-0.7-0.7-1.6,0.1-2.1c1.1,0.3,3.2,2.4,3.3,3.6
			c0.1,1-1.4,2.7-1.5,4.5c0,0.6,0.3,1.3,0.1,1.8c-0.3,1.2-2,1.8-1.9,2.5c0.5,5.1,5.5,8.1,8.7,10.5c3.1,2.4,5.6,4.9,8.5,6.7
			c0.6-0.3,1.3-0.9,1.3-1.6c0.1-0.9-0.7-1.5-0.7-2.5c0-0.7,0.5-1.3,0.4-1.9c-0.1-0.9-1-1.1-0.9-1.8c0.3-1.1,1.6-0.9,1.5-1.9
			c-0.1-0.9-2-1.1-2.2-2.4c-0.1-0.7,0.4-0.8,0.3-1.9c-0.4-0.7-1.2-0.8-1.9-1.3c-0.9-0.7-1.5-2-2.5-2.4c-0.9-0.3-1.8,0-2.5-0.4
			c-1.1-0.8-0.8-2.7-1.3-4c1-1.9,3.1-0.7,4.8-1c0.6-0.1,1.4-1,2.1-1.2c2-0.4,4,1.2,5.4,0.9c1.1-0.2,2-2.6,3-3.6
			c0.9-0.8,3.1-2.2,4.5-2.4c0.9-0.1,2.1,0.7,3.1-0.2c-0.6-2.5-7.1-2.3-7.3-4.9c-0.1-0.9,0.9-1.9,1.8-2.1c5.5-1.4,9.9,3.4,15.2,2.2
			c0.4-4.2-4.9-6.1-9.4-6.1c-0.9,0-1.5,0.3-2.2,0.3c-1.4,0-3.2-1.1-4.9-1.6c-2.9-0.9-6.6-1.3-9.4-2.1c-0.5-0.1-1-0.6-1.5-0.7
			c-0.5-0.1-1.2,0-1.8-0.1c-0.7-0.2-1.3-0.7-1.9-0.7c-1.4-0.2-2.6,0.3-4,0.4c-2,0.2-4.2,0.1-5.8-0.3c-2-0.5-3.6-1.9-5.2-2.1
			c-0.7-0.1-1.5,0.3-2.2,0.3c-1.3,0-2.4-0.7-3.3,0c-0.9,0.6,0.8,1.5-0.1,2.1c-2.1,0.4-4.5-2-6-1.9c-1.2,0-1.7,0.8-2.7,0.9
			c-0.5,0-1.1-0.2-1.8-0.3c-2.8-0.2-7.1,0.3-9.8,0c-1.9-0.2-2.7-1.7-4.5-2.4c-3.4-1.4-7.8-1.2-11.2-0.9c-1.5,0.1-3,0.5-4.6,0.3
			c-0.7-0.1-1.5-0.7-2.5-0.9c-1.5-0.3-3.2-0.1-4.2-0.4c-1.5-0.5-2.5-2-4-2.2c-1.3-0.2-2.9,0.2-4.3,0.1c-4.2-0.1-8.7-0.5-13.1-0.3
			c-0.7,0.5-0.6,1.5-1.5,1.9c-2.4,1.1-7.6-0.5-10.6,0.2c-0.9,0.4-1,1.5-1.9,1.6c-0.8,0.1-2.8-0.7-3.6-1.2c-0.8-0.5-1.4-1.6-2.2-2.2
			c-1.2-0.9-3.1-2.1-4.2-2.4c-2.1-0.5-4.9,0.1-7.5-0.2c-0.6-0.1-1.6-0.4-2.2-0.3c-1.3,0.2-2.5,1.6-4,1.6c-0.8,0-1.6-0.4-2.5-0.4
			c-0.7-0.1-1.5,0.1-2.1,0c-0.8-0.1-1.5-0.8-2.4-0.9c-1.5-0.2-3.8-0.3-5.5-0.3c-1.3,0-2.5,0.5-3.7,0.1c-1.8-0.5-2.7-1.9-4.2-2.4
			c-0.4-2.4-1.7-2.1-3.6-2.8c-0.6-0.2-1.1-0.8-1.6-0.9c-2.9-0.8-6.1,0.2-9.2-0.3c-1-0.2-1.9-1.3-3-1.5c-1.2-0.2-2.6,0.4-4.2,0.6
			c-1.5,0.2-3.2-0.3-4.5,0c-0.8,0.2-1.4,1-2.2,1.3c-0.8,0.3-1.8,0.6-2.7,0.6c-1.4,0-2.9-1-4.5-0.9c-1.5,0.1-3.3,1.5-5.2,1.8
			c-3.1,0.5-6.2,0.7-8.1,1.9c-0.6,0.7,0.7,1.2,0.1,1.9c-2.1,0.8-5.9-0.2-7.6,1c-0.5,0.9,0.8,1.6-0.1,2.2c-1.4-0.1-1.7-0.6-2.5-0.6
			c-1.6,0.1-2.5,2.4-3.7,2.4c-1,0-1.5-1.7-2.5-1.6c-1.2,0.1-1.8,2.7-2.8,2.7c-1.2,0-0.9-1.7-1.8-2.8c-1.2-1.7-5.5-1.7-6.9-0.4
			c-0.4,0.4-2.1,3.3-2.1,3.6c0,0.7,1.3,2.9,1.6,3.1c1.1,0.9,3.4,0.3,3.7,2.4c-3.1-0.1-6.3-1.8-9.7-2.2c-2.3-0.3-4.7-0.3-7-0.4
			c-0.7,0.9,1.6,1.6,0.6,2.5c-0.6,0.6-2-0.6-2.8-0.6c-1.2-0.1-2.2,0.7-3.6,0.9c-0.6,0.1-1.4-0.1-2.1,0c-0.9,0.1-1.6,0.5-2.2,0.5
			c-1.1-0.2-1.8-1.2-2.7-1.2c-0.7,0-1.7,0.7-2.5,0.9c-0.7,0.2-1.4,0-1.9,0.2c-0.7,0.2-1.4,0.9-2.2,1.2c-0.7,0.3-1.5,0.3-2.1,0.6
			c-1.4,0.7-1.7,2-3.1,2.1c-0.6,0-1.9-0.2-2.4-1.3c-0.1-0.9,0.8-0.8,0.6-1.8c-0.4-0.8-3.2-1.2-3.7-0.2c-1,1.5,0.9,2.4,0.7,4
			c-0.3,0.1-0.5,0.3-0.6,0.6c-2.7-1.2-4.9,0.4-6.7,1.5c-0.2,0.8-0.1,2-0.9,2.2c-2.1,0.3-3.9-1.6-5.4-0.4c-0.2,1.5,1.9,0.7,1.6,2.2
			c-3.3,0.4-7-2.1-7-5.5c2.4-0.8,5.6,0.6,7.9,0.6c1.4,0,4.7-0.6,4.6-2.5c-0.1-1.7-3.8-2.4-5.5-3c-2.1-0.7-4.4-1.8-6.6-2.1
			c-0.7-0.1-1.4,0.1-2.1,0c-1.9-0.2-3.5-1.2-4.9-1.3c-1-0.1-1.9,0.2-2.5,0c-1.3-0.5-1.2-1.6-2.2-2.1c-2-0.9-4.2-0.1-6.6-0.2
			c-1.4,0-2.8-0.4-3.9-0.3c-0.8,0.1-1.4,0.4-1.9,0.4c-0.4,0-1.3-0.2-1.6-0.2c-0.9,0.1-1.7,1-2.7,1.3c-1.6,0.6-3.4,0.4-5.1,0.7
			c-1.6,0.4-3,2.2-4.5,2.4c-1.1,0.2-2.9-0.6-3.4,0.4c-0.3,1.1,0.9,1.4,0.4,2.1c-1,1.7-3.3,2.3-4.6,3.9c-0.4,0.4-0.4,1.2-0.7,1.6
			c-0.5,0.7-1.4,1-1.8,1.6c-0.6,1-0.4,1.8-1.2,2.2c-1.3,0.8-3.3,0.3-4.6,0.7c-0.8,0.3-1.4,1.1-2.1,1.5c-1.9,1-4.5,1.3-5.7,3.3
			c-0.3,1.7,0.4,3,0.6,4.2c0.1,0.8-0.1,1.6,0.2,2.4c0.5,1.4,2.5,2.8,4.3,2.8c2.8,0,5-3.6,7.3-3.1c1.1,0.2,1.2,2,1.8,3
			c0.5,0.9,2.9,2.5,2.5,4c-0.3,1.2-3.1,1.7-4.5,1.6c-0.1-1.4,0.2-3.6-0.9-4.3c-2.3,1.1-3.8,0.8-4.5,2.5c-0.8,2.3,1.4,3.9,1,6
			c-0.3,2.2-4.9,1.4-6.9,1.8c-1.5,0.3-2,2.1-3.3,3.6c-0.9,1-2.5,2.1-3.7,2.7c-0.6,0.3-1.4,0.2-1.9,0.6c-0.8,0.6-1.1,1.9-2.1,2.5
			c-0.7,0.5-3.3,1.8-4,1.8c-0.8,0-1.6-0.8-2.2-0.6c-0.9,0.3-0.8,2-1.8,2.4c-2,0.7-5.3-1.8-6,1.2c0.8,1.7,3,1.3,4.5,2.2
			c0.9,0.6,2.9,3.2,3.1,4.2c0.2,0.8-0.1,4.2-0.4,5.1c-0.9,2.4-3.1,1.6-5.8,1.5c-0.8,0-1.5,0.2-2.2,0.1c-4.6-0.3-9.2-1.9-11.3,1.3
			c0.2,2.5,0.7,4.2,0.1,6.4c-0.4,1.6-1.9,3.1-1.8,4.5c0,0.7,0.9,1.4,1,2.4c0.1,0.5-0.2,1.6,0,2.1c0.8,1.5,2.8,0.2,4.2,0.4
			c1.3,0.2,2.8,2.1,2.8,3.6c0,1-1,2.7-1.6,3.7c-1.3,2-3.1,2.1-4.9,3.1c-1.6,0.9-2.2,2.4-3.1,3.9c-1,1.7-1.6,2.7-1.2,5.1
			c-1.3,2.7-3.4,4.3-6.1,5.5c-0.8,0.4-1.9,0.5-2.7,1c-0.6,0.4-0.9,1.6-1.8,2.5c-1,1.2-2.1,1.7-2.7,2.5c-0.4,0.7-0.6,2.1-1,3
			c-0.6,1.3-2,1.9-2.8,3.1c-0.4,0.6-0.6,1.8-1,2.5c-0.9,1.7-2.6,3-2.4,4.5c0.2,1.5,1.8,1.7,1.9,3c0.1,0.7-0.5,1.2-0.4,1.9
			c0,1.1,0.8,2,0.9,2.8c0.2,2.2-0.8,3.1-1.2,4.6c-0.2,0.7-0.1,1.5-0.3,2.1c-0.4,1.1-1.9,2.1-1.9,3.4c0,0.9,1,1.7,1,3
			c0.1,0.9-0.5,1.9-0.3,2.7c0.3,1.6,3.2,3.5,4.5,4.8c1.7,1.7,3.9,3,4.6,4.8c0.6,1.5,0.6,3.5,1.8,4.6c0.9,0.8,2.3,1.4,3.4,2.2
			c1,0.8,2.2,1.5,3.3,2.4c1.8,1.4,4.6,4.3,7.5,4c1.5-0.1,3.1-1.3,4.8-1.6c1.8-0.3,4-0.5,5.8-0.3c1.4,0.1,2.8,1,4.2,0.9
			c1.5-0.1,3.2-1.2,4.9-1.9c2.9-1.3,7.3-3,11.6-2.4c3.3,0.5,3.1,4.2,5.4,5.7c2.6,0.2,4.8-1,6.9-0.4c1.6,0.4,3.4,2.8,3.6,4
			c0.2,1.3-0.7,3.2-0.9,4c-0.4,1.7-0.4,3.8-0.7,4.9c-0.2,0.9-0.9,1.4-0.9,2.2c0,0.8,1,2.7,1.8,3.7c1,1.3,2.5,2.2,3.7,3.6
			c2.2,2.5,3.1,5.5,4.6,8.8c0.5,1.2,1.6,3.1,1.6,4.3c0,0.9-0.5,1.8-0.4,2.7c0.2,2,1.4,2.9,1.6,4.6c0.5,4.2-3.3,5.4-4,8.8
			c-0.2,0.8,0,1.7-0.1,2.4c-0.3,1.1-1,1.9-1.2,3c-0.2,1.1-0.4,3.1-0.3,4.2c0.2,1.6,1.8,3.1,2.7,4.5c0.9,1.5,1.6,4,2.7,6
			c0.6,1.1,1.6,2,1.8,2.8c0.3,1.1,0,2.7,0.1,4c0.1,1.1,0.7,2.1,0.9,3c0.5,2.8,0.6,5.5,1.9,7.8c0.7,1.1,1.9,1.8,2.8,3.3
			c0.9,1.4,1.2,3.3,2.1,4.9c0.9,1.7,2.1,2.9,2.1,3.9c0,0.8-0.8,1.7-0.7,2.5c0.1,2.3,2.5,4.6,4.5,4.6c0.9,0,1.7-0.7,2.7-0.9
			c0.5-0.1,1.1,0.1,1.6,0c0.9-0.1,1.7-0.8,2.4-0.9c1.9-0.3,3.9,0.3,5.7,0.1c3.1-0.2,6.7-1.7,8.6-3.1c2.3-1.6,4.7-3.6,6.4-5.5
			c1.3-1.4,1.9-3.3,3.1-4.6c1-1.1,2.5-1.6,3.1-2.8c0.4-0.8,1.4-3.6,1.5-4.3c0.1-0.9-0.5-1.6-0.3-2.4c0.6-2.7,6.1-2.2,7.2-4.8
			c1-2.4,0.4-5.6-0.1-7.8c-0.2-0.8-1-2.1-0.9-3c0.2-1.5,2.6-2.9,4.3-4.3c1.1-0.9,1.9-2.2,3-3c1.5-1.1,3.7-1.3,5.1-2.2
			c1.3-0.8,3.5-3.2,4-4.5c0.6-1.5,0-2.7-0.2-4.3c-0.2-2.6,0.2-5.5,0-8.5c-1.5-1.4-2.1-3.6-3-5.7c0.3-1.7,0.6-3,0.1-4.6
			c-0.3-0.9-1.1-1.5-1.2-2.4c-0.3-2.4,1.4-3.5,2.2-5.2c0.7-1.5,1.2-3,1.8-3.9c0.8-1.1,2.3-1.6,3.3-2.7c0.7-0.8,1-1.8,1.6-2.7
			c1.7-2.3,4.2-4.8,6.6-6.6c1.2-0.9,2.5-1.4,3.6-2.2c1.1-0.9,2-1.9,3-3c1.8-2,4.1-4.3,5.2-6.7c0.4-0.8,0.3-1.7,0.6-2.4
			c1-2.4,3.1-4.4,3.9-7c0.1-0.5,0.1-1.1,0.3-1.6c0.4-1.6,1.5-3.5,0-5.2c-1.4-0.4-2.7,1.1-4.5,1.3c-1.9,0.3-3.7,0.1-5.2,0.4
			c-0.9,0.2-1.6,0.9-2.4,1c-0.5,0.1-1.2-0.1-1.8,0c-1.2,0.2-2.2,1-3,0.9c-1.9-0.2-3-2.4-4.2-3.6c0.2-0.9,0.9-1.2,0.6-2.2
			c-0.2-0.8-1.3-0.9-2.1-1.6c-1.4-1.2-2.5-3-4.2-4.2c-1.8-1.3-4.3-2.1-5.2-4c-0.6-1.3-0.6-3.3-1.5-4.6c-1.1-1.7-3.7-2.7-4.2-4.5
			c-0.5-1.8-0.1-3.1-0.4-4.9c-0.6-2.7-3.5-3.5-4.5-5.8c-0.3-0.7-0.2-1.5-0.4-2.1c-0.6-1.7-1.9-3.3-2.8-4.8c-1-1.6-1.9-3.3-2.5-5.2
			c0.6-0.8,1.9-0.9,3.1-1.1c2.3,2,4.5,4.4,6,7.2c0.4,0.7,0.5,1.6,0.9,2.2c0.7,1,1.8,1.4,2.4,2.1c0.8,0.9,1.5,2,1.8,3.1
			c0.2,0.7,0,1.4,0.1,2.2c0.7,3.2,4.2,4.6,6,7.2c0.5,0.8,0.7,1.7,1.2,2.4c0.9,1.4,2.5,2.1,2.8,3.7c-0.1,0.8-1.3,0.5-1.2,1.5
			c0.5,1.2,1.7,1.5,2.4,2.7c1.3,2.2,1.4,5.4,2.5,7.9c2.3,1.4,4.4-1,6.7-1.6c0.7-0.2,1.5-0.1,2.2-0.3c0.9-0.2,1.8-0.9,2.8-1.2
			c0.5-0.1,1,0,1.5-0.2c1.1-0.4,1.9-1.5,3.1-2.1c2-0.9,4.3-0.9,5.7-1.8c1.3-0.9,1.3-2.4,2.4-3.1c1.6-1.1,3.5-0.8,5.5-1.5
			c1-0.4,1.6-1.4,2.5-2.1c0.8-0.6,1.7-1.2,2.5-1.9c0.8-0.7,2.1-1.5,2.4-2.1c0.2-0.3,0.1-1.4,0.3-1.9c0.3-0.7,1.2-1.1,1.8-1.8
			c0.6-0.8,2.6-3.8,2.5-4.6c-0.1-1-3-3.8-3.7-4c-1.1-0.4-2.1-0.2-2.8-0.4c-1.1-0.4-2-1.4-2.5-2.5c-0.6-1.2,0-2.1-1.6-3.1
			c-2.8,2.4-4.5,5.8-10.7,4.8c-1.3-0.6-0.8-3.1-1.3-4.5c-0.7-0.7-1.9,0.1-2.5-0.2c-0.9-3.2-4-4.1-5.7-6.4c-0.5-0.7-1.8-2.5-1.6-3.4
			c0.2-1.4,2.1-2.1,3.3-2.1c3.4,0,3.9,4.6,6.1,6.1c0.9,0.6,2.1,1.1,3.4,1.9c1.8,1.2,4.1,2.4,6.9,1.8c1.3-0.3,2-1.4,3.4-1
			c1.2,0.3,1.4,2.2,2.1,2.8c1.1,1,3.6,1.5,5.5,1.6c1.5,0.2,3.3,0.4,4.8,0.6c2.3,0.2,4.5-0.2,6.3-0.3c1.4-0.1,3.7,0.1,4.9,0
			c0.5,0,1.2-0.4,1.8-0.3c2,0.2,3,2.6,4.2,3.6c2,1.7,4.6,2.6,5.7,4c-1.2,2.5,3,5.2,4.6,5.2c1.6,0,2.3-1.5,3.7-1.8
			c1.6,0.8,1.1,1.9,1.2,3.9c0.1,1.3,0.7,3.4,1.2,5.1c0.5,1.6,1,3.4,1.5,4.8c0.6,1.7,1.9,3.3,2.8,4.9c1.1,1.9,1.3,4,2.1,5.7
			c0.7,1.5,2,2.5,2.7,3.7c1.4,2.6,2.2,8.8,5.5,8.4c0.7-0.1,0.9-0.7,1.6-1.6c0.5-0.6,1.3-1,1.8-1.6c0.3-0.4,0.5-1.2,0.9-1.8
			c0.5-0.7,1.1-1,1.2-1.5c0.2-1-0.2-2-0.2-3c0.1-1.1,0.9-2.1,1-3.1c0.3-2.4-1-4.2-0.9-6.7c1.1-2.1,3.5-2.2,5.1-3.7
			c0.6-0.6,0.8-1.5,1.3-2.1c0.7-0.7,1.8-1.2,2.5-1.9c1.6-1.6,2.6-3.5,4-4.5c1.1-0.8,2.8-0.8,3.3-2.4c-0.4-3.6,2.1-2.8,5.1-3
			c0.9-0.1,3.1-0.4,4-0.7c0.9-0.3,1.8-1.5,2.7-1.3c0.9,0.2,1.1,1.7,1.6,2.8c0.4,0.8,1.3,1.9,2.1,2.7c0.9,0.8,2.2,1.3,2.8,2.1
			c0.4,0.4,0.5,1.2,0.9,1.8c1.1,1.4,2.5,2.2,2.5,4.2c0,1-0.6,1.9-0.4,2.8c0.2,1,1.5,1.8,2.5,1.8c2,0,3.4-3,4.9-2.8
			C670.6,384.6,671.3,387.9,671.9,389.6z M439.5,279.7c1.4-0.3,1.1-1.5,2.1-1.6c0.7-0.1,1.3,0.6,2.2,0.4c1.1-0.1,2-1.7,3-2.1
			c1.9-0.8,3.4-0.4,3.7-1.9c0.2-0.9-0.5-2.2-0.3-3.1c0.5-2.1,4.5-1.8,4.3-4.3c-0.1-1.5-3.2-1.9-3.6-3.3c-0.2-0.9,0.3-2.4,0.6-3
			c1.4-2.5,5.7-2.7,7-4.8c0.6-1,0.6-1.9,1-2.4c1.2-1.3,5-1.5,6.3-0.3c0,3.4-6.7,3.9-6.9,6.6c0,0.6,0.5,1.6,0.6,2.5
			c0.1,0.9,0,1.5,0.2,1.9c0.5,1.5,2.5,2.6,4,2.7c3.6,0.2,8.9-3.4,12.1-0.7c-1.4,3-6.3,0.5-9.8,1.8c-0.7,0.3-1.2,0.9-1.8,1.2
			c-0.9,0.3-2.4,0-2.4,1.3c0.7,1.4,1.8-0.3,2.7-0.3c1,0,2.4,1,2.2,2.2c-0.3,2.8-2.7-0.1-4.3,0c-2.3,0.1-2.8,3.5-2.4,6
			c-1.1,0.6-2.3,2.3-3.7,2.4c-0.9,0.1-1.6-0.8-2.8-0.9c-2.7-0.3-5.2,2.2-7.8,2.1c-1.1,0-2.3-1.4-4-1.3c-0.9,0-1.6,0.7-2.5,0.7
			c-1.2,0.1-3.1-0.4-3-1.3C436.4,278.7,438.4,279.9,439.5,279.7z M490.4,450.9c-2.1-0.2-3.6-4.3-2.5-6.7h0.4
			c1.2,0.7,0.6,2.4,0.9,3.7C489.5,449.1,491,449.8,490.4,450.9z M501.6,461.9c1.6,0.7,0.7,3.8,0,4.9c-1.7-0.7-1-3.7-0.3-4.9H501.6z
			 M501,432.1c0.2,1.3-1,2.4-1.5,3.4c-0.5,1-0.3,1.8-1.3,2.2c-1.8,0.1-3.3-0.1-3.9-1.2c0.5-1.4-0.1-2.5,0.3-3.9
			C495.2,430.6,500.6,429.2,501,432.1z M500.1,338.8c-0.8,2.4-0.3,4.7-2.5,5.5c-3.1,1.1-4.9-1.2-7.8-1c-1.5,0.1-2.6,1.6-4.2,1.8
			c-2.5,0.4-5-1.8-7.9-2.1c-0.7-0.1-1.4,0.1-1.9,0c-0.7-0.2-1.2-1-1.9-1.2c-1.2-0.4-2.2-0.2-3.3-0.4c-1.5-2.6-8.9-2.8-9.5,1.1
			c-0.3,1.7,0.9,4-1.6,4.3c-1.6,0.2-3.2-1.6-5.4-2.1c-0.9-0.2-2.1-0.1-2.8-0.3c-1.6-0.6-1.4-2.1-2.8-3.1c-0.8-0.6-2.9-1.4-4.2-1.5
			c-0.8-0.1-1.5,0.2-2.4,0.1c-1-0.1-2.4-0.8-3.3-1.3c-0.8-0.5-2.5-1.2-2.7-1.9c-0.3-1.1,2-2.4,2.1-3.3c0.1-0.7-0.9-1.2-1-2.2
			c-0.1-0.7,0.3-1.4,0.1-1.8c-0.2-0.8-1.5-1.6-2.7-1.6c-1.1,0-2.1,0.9-3,0.9c-1.3,0-3.4-0.7-5.1-0.6c-1,0.1-1.9,0.7-2.8,0.7
			c-2.6,0.2-4.7-0.1-6.7,0c-1.5,0.1-4,0.6-5.4,1.2c-0.7,0.3-1.2,1-2.1,1.5c-0.4,0.2-1,0.2-1.5,0.5c-0.8,0.4-1.7,1.3-2.5,1.5
			c-1.2,0.3-3-0.2-5.1-0.2c-1.5,0.1-4,0.1-4-1.8c0-2.8,4.7-1.8,7.3-2.2c1-0.2,1.5-1.1,2.7-1.8c0.6-0.3,1.3-0.4,1.8-0.7
			c0.9-0.6,2.3-2.1,2.4-2.8c0.1-0.7-0.4-1.6-0.3-2.1c0.1-0.6,0.8-1.3,1.6-2.1c1.3-1.2,2.6-2.9,4.2-3.7c1.1-0.6,2.5-0.5,3-1.3
			c0.1-1-0.2-1.5-0.2-2.4c0.6-0.6,1.1-1.1,1.6-1.2c1.6-0.3,3.2,1.1,5.1,1c0.8,0,1.5-0.6,2.4-1.2c0.7-0.5,1.5-0.8,2.2-1.2
			c0.8-0.4,1.6-1.3,2.5-1.3c2.3-0.1,3.3,2.5,4.3,3.9c0.9,1.2,3.5,3.2,4.9,4c0.8,0.5,1.9,0.5,2.8,0.9c1.9,0.9,5.8,3.8,5.8,5.7
			c0,1-0.9,1.7-0.7,2.5c1.5,0.2,3.1-1.4,3.1-2.8c0-0.9-0.9-1.4-0.7-2.4c0.7-1.5,2.7,0,3.6-0.6c-0.2-1.7-2.5-1.8-3.9-2.7
			c-0.8-0.5-1.3-1.5-2.1-1.8c-1.2-0.5-2.4-0.3-3.3-1c-0.8-0.7-1.3-2.1-2.1-3.1c-1.2-1.4-3.9-1.7-3.1-4.9c0.4-0.5,1.2-1.3,1.8-1
			c1.1,0.3,1,1.2,1.8,1.8c0.6,0.4,1.4,0.3,2.1,0.7c0.8,0.5,1.2,1.8,2.1,2.5c1.2,1.1,3.5,1.9,5.2,2.7c1.6,0.8,4.3,1.9,4.6,3.3
			c0.2,0.8-0.3,1.7-0.1,2.4c0.1,0.9,0.8,1.8,1.2,2.4c1.2,1.6,2.8,3,4,4.9c0,2.6,0.9,4.2,3.9,3.9c1.1-0.6,0.5-1.4,1.3-2.2
			c0.8-0.8,2.5-0.7,2.5-1.9c0-1.9-4.5-2.2-3.9-4.9c0.2-0.9,1.2-0.5,1.9-0.4c1.3-1.5,3.9-3.3,5.7-1c0.7,4.5,2.2,8.5,5.4,10.9
			c2.3-0.8,3.2,1.3,5.4,0.9c1-0.2,1.5-1.5,2.5-1.6c1.8-0.3,3.1,1.7,4.8,1.9c2.8,0.4,4.9-2.9,7.6-1.2c0.1,2.3,0.8,3.5,0.7,5.1
			C501.7,336,500.6,337.1,500.1,338.8z M511.3,317.1c-1.4,0.3-3.9,0.3-5.2,0.3c-4.1-0.1-7.2-3.2-11.9-3c-1.1,0-2.1,0.3-2.8,0.6
			c-1.3,0.5-2.2,1.5-3.3,1.8c-1.4,0.3-3.5-0.4-4.6,0c-1.4,0.5-1.5,3.7-4.2,1.5c-0.1-1.4,1.7-0.8,1.8-1.9c-0.1-1.1-1.5-1.7-1.6-3
			c-0.2-1.5,1.3-2.1,1.8-3.7c0.2-0.5,0-1.1,0.1-1.5c0.3-0.6,1-1,1.5-1.6c0.9-1.3,1.8-3.8,3.6-4c1.7-0.2,2.6,1.2,4,1.2
			c1,1.4,1.5,3.6,3.3,3.9c1.5,0.2,3.3-1.1,4.8-1.6c-0.4-1.4-1.9-0.6-2.1-1.9c-0.3-2.3,4.5-3,6.6-2.5c1.2,2.5-1.8,2.9-1.8,4.3
			c0,1.3,4,2.5,5.1,3.1c1.8,1.1,3.7,1.9,5.2,2.8C513.5,312.9,515.3,316.3,511.3,317.1z M546.3,327.9c-1,1-2.8,1.5-4.5,1.5
			c-1.6,0-3.1-1.3-4.6-1.9c-1.6-0.7-3.2-0.8-3.6-2.4c-0.2-0.8,0.2-2.9,0.4-3.7c0.3-0.9,1.1-1.1,1-1.9c-0.1-1-2.5-2.9-3.4-3.7
			c-1.3-1.2-2.9-2.1-3.6-3.6c-0.2-0.5-0.2-1.3-0.4-1.9c-0.5-1.2-1.8-1.8-1.9-2.7c-0.1-0.6,0.7-1.9,1.3-2.4c0.7-0.5,2-1.1,3.1-1.9
			c2.4-1.8,4.5-2.3,8.4-1.5c1,0.6,1.6,3,0.6,3.7c-2.4-0.1-4.6,0.9-4.6,2.5c-0.1,2,4.1,4.2,5.8,5.2c0.2,0.9,0.2,1.9,0.9,2.4
			c2.2-0.9,4.5,0.5,4.5,2.2c-0.5,1.2-2,0-3,0.4c-0.3,0-0.1,0.5-0.4,0.5C543,322.3,547.1,322.7,546.3,327.9z M557.4,308.6
			c-1.6,0.3-4.2-3.3-1.8-3.9C557.4,304.2,559.8,308.1,557.4,308.6z M560.5,250.2c-0.4-1.6,1-1.8,1-3.1c0.1-2.6-4.7-3.5-4.5-6.7
			c0.2,0,0.1-0.3,0.1-0.4c2.2-0.4,2.1,1.5,3,3c0.8,1.2,2.6,1.4,3.1,1.9C565.6,247.1,564,251,560.5,250.2z M590.6,303.8
			c-0.7-1,0.9-2.5,1.5-1.3C592,303.3,591.6,303.8,590.6,303.8z M618.8,234.4c-0.4-0.9,0.8-1,1.3-1.3c1-0.5,1.6-1.2,3.3-1.2
			C623.1,233.5,620.2,234.2,618.8,234.4z M662.5,283.7c-0.4,1.3-2.1,1.9-3.3,3c-0.7,0.7-1.1,1.9-2.1,1.2c0.1-1.2,1.1-1.4,1.6-2.1
			c-0.1-1.5,1.5-2.6,1.6-4c0.1-1.1-1.1-2.8,0.6-3.1C662.2,279.9,663.1,281.8,662.5,283.7z M774.8,544.9c-1.7-0.3-2.8-1.6-3.9,0.4
			c-0.4,0.7-1.3,4.2-1.2,4.9c0.5,2.7,4.8,0.8,6.1-0.2c1.9-1.3,3.3-3.4,3.7-5.2C778.2,543.8,776.5,545.2,774.8,544.9z M769.4,332.6
			c-0.5-1.7-0.9-3.4-1.5-5.2c-0.3-0.8-0.8-1.5-0.9-2.1c-0.1-1.1,0.5-2.1,0.3-3.1c-0.4-2.6-3.9-5.3-6.6-5.5c-1.8,2,1,3.9,1.5,5.5
			c0.8,2.6-0.7,5.2-2.1,6c-0.5,0.3-1.2,0.2-1.8,0.6c-0.7,0.5-0.8,2.6-2.1,3.1c-1.5,0.6-3.5,0-5.5,0.4c-1.1,0.2-2.7,1.9-3.6,2.8
			c-0.7,0.7-2.9,2.5-2.8,3.6c0,1,1.4,1.7,2.4,3c0.8,1,1.5,2.8,2.8,2.5c1.8-0.3,0.3-3.7,1.8-4.6c2.6,0.9,3.7-2.7,5.8-2.7
			c0.8,0,1.5,1,2.4,0.7c1.1-0.3,1.4-2.2,2.5-2.7C764.5,333.9,767.8,334.7,769.4,332.6z M756.7,312.9c0,1.4,2.1,2.7,3.3,3
			c0.5-1.3-0.4-2.4,1-2.7c1.2-0.3,2.5,1.1,3.7,0.9c0.8-0.1,1.5-1.5,2.1-1.9c0.6-0.4,1.3-0.3,1.6-1c-0.1-2.1-1.9-1.9-4-2.2
			c-3.3-0.5-6.2-3.3-7.6-3c0,0.2-0.2,0.2-0.2,0.5c0.6,1.6,1.8,2.5,1.3,4.2C757.8,311.5,756.7,312,756.7,312.9z M760.8,463.2
			c0.2,0.8,2.4,0.9,2.2-0.3C762.7,461.9,760.8,462.2,760.8,463.2z M755.1,302.7c2.5-1.6-1.1-3.4-2.5-4.2
			C752,300.2,753.6,302.2,755.1,302.7z M743.5,459.6c1.8-0.2,3-1.7,4.5-2.5c1.4-0.9,3.7-0.8,4.3-2.7c-3-1-4.8,1-6.6,1.9
			c-1.2,0.6-2.8,1-2.8,2.7C743.1,459.2,743.3,459.4,743.5,459.6z M746.3,428.4c-1.2-0.7-2.9-0.1-4.6-0.2c-1.6,0-3.2-0.7-4.3-0.6
			c-1.4,0.1-2.8,1.4-2.8,2.7c0.9,0.3,1.1-0.3,1.9-0.4C740.3,429.3,746.1,432.1,746.3,428.4z M742.4,446.2c0.7-0.5,0.4-2,0.4-3.1
			c-1.4-1.7-1.9-4.4-3.1-6.3c0.8-1.6,3.6-1.8,3.4-3.9c-2.5-0.5-4.6,1.7-6.4,1.3c-0.5-0.1-1.6-1.8-2.4-1.8c-1.6,0.1-1.3,2.7-1.8,4
			c-0.3,0.9-1.4,1.9-1.3,2.8c0.1,1.1,1.5,1.4,1.8,2.8c0.3,1.6-1.2,3.7,0.3,4.2c3.1,0.9,1-6.4,3.3-6.9
			C737.8,441.3,739.4,446.7,742.4,446.2z M737.7,455.1c-0.3-1.3-3.4-1.6-3.9-0.4C734,455.7,737.1,456.3,737.7,455.1z M731.5,457.5
			c0.3,1.2,1.6,1.4,2.7,1.8c0.2-0.2,0.4-0.4,0.6-0.6C734.8,457.3,732.4,456.3,731.5,457.5z M728.4,414c-0.2-1.2-2.3-4.2-3.6-2.7
			c-1.6,1.8-1.6,3.9-3.6,5.4c-0.7,0.6-1.6,0.6-2.5,1.2c-0.8,0.5-1.3,1.8-1.9,2.5c-0.7,0.8-1.4,1.7-2.4,2.1c-0.9,0.3-2.2,0.2-2.8,0.6
			c-1.2,0.8-1,2.6-2.4,3c-0.7,0.2-1.8-0.6-2.8-0.4c-2.6,0.4-2.2,5-1.2,7c0.7,1.4,1.9,2,2.2,3c0.3,1,0.2,2.8,1.2,3.4
			c0.5,0.3,1.6,0.1,2.7,0.4c0.9,0.3,1.5,0.9,2.1,0.9c0.8,0.1,1.7-0.5,2.5-0.5c2.1,0,3.3,1.8,4.6,1.9c1.2,0.1,2.3-0.8,3.3-0.7
			c1.4-1.3,0.7-3.6,1.3-5.4c0.5-1.5,2.2-1.8,2.8-3c0.2-1.7-0.3-1.8,0.1-2.8c0.5-1.2,2.7-1.1,2.8-2.2c0-0.6-1.2-1.5-1.6-2.4
			c-0.4-0.8-0.8-1.9-0.9-2.5c-0.5-3.7,2-4,2.8-6.6C730.6,415.2,729.1,415,728.4,414z M726,454.2c-1.1,0.1-2.5-0.6-3,0.4
			c0.3,1.3,1.9,1.3,3.4,1.3c0.9-1.1,3.6,0,4.3-1C730.3,452.8,727.8,454.1,726,454.2z M715.7,454.5c1.7,0.2,3.6,1.2,4.9-0.1
			c-0.9-1.8-3.8-1.6-5.5-2.5c0-0.8,0.3-1.2-0.2-1.6c-2.1,0.2-3.8-1.1-5.5-1c-0.8,0-1.4,0.6-2.2,0.7c-3.4,0.5-5.2-1.9-7.9-2.2
			c-2.1-0.3-4.4,0.1-4.3,1.5c0.1,1.3,5.1,3.2,6.4,3.4c1.1,0.2,2.4-0.1,3.6,0c2,0.2,3.9,1.4,6,1.6
			C712.6,454.4,714.2,454.3,715.7,454.5z M701.6,436.2c-3.8,0-3.8,5.9,0,5.9C705.4,442.2,705.4,436.2,701.6,436.2z M696,440.9
			c0.5-1.4,2-1.3,2.1-2.4c0-0.6-1.6-2.9-2.1-3c-1.1-0.1-1.2,1.3-2.2,1.1c-1.1-0.2-1.2-1.4-1.9-2.2c-0.6-0.7-1.6-1-1.8-1.8
			c-0.1-0.4,0.3-1.4,0.2-1.9c-0.4-2.2-3.5-3.4-5.2-4.5c-1.3-0.8-2.6-1.2-3.6-1.8c-0.7-0.4-1.4-1.5-2.2-2.2c-0.8-0.7-1.9-1.1-2.7-1.8
			c-1.4-1.2-2.4-3.3-3.7-3.7c-0.7-0.2-1.8,0-2.7-0.1c-1.4-0.3-2.2-1.5-3-0.6c0.2,3.3,3.8,4.5,5.7,6.7c0.4,0.5,0.7,1.3,1.2,1.8
			c0.7,0.8,1.8,1.2,2.4,2.1c0.7,1,0.7,2.4,1.3,3.4c0.8,1.3,2.2,2.1,3,3.3c0.9,1.3,1.2,2.9,1.9,4.3c0.5,1,1.5,1.8,2.4,2.7
			c2.3,2.6,4.5,4.8,7.2,6.7c1.1,0,2.3,0.1,3-0.3C696.4,445.5,695.3,443.1,696,440.9z M625.7,404.1c-0.2,0.1-0.4,0.2-0.4,0.4
			c-0.9,2.7-1.5,9.3,1.5,9.7c1.5,0.2,2.9-0.8,3.3-1.6C631.2,409.8,626.9,404.6,625.7,404.1z M540.8,465.6c-0.7,0.6-0.6,1.6-1,2.1
			c-0.5,0.6-1.4,0.7-1.8,1.2c-0.6,0.7-0.6,1.8-1.3,2.7c-0.8,1.1-2.4,2.1-3.6,2.7c-1.4,0.7-3.2,0.6-4.6,1.6c-1,0.7-1.8,2.7-1.9,3.9
			c-0.2,1.9,0.9,3.8,0.7,5.7c-0.1,2.5-3.1,4-3.4,7c-0.1,1.4,0.6,2.4,0.7,3.6c0.1,1-0.1,1.8,0.1,2.7c0.5,1.6,2,3,3.9,3
			c0.7,0,3.5-0.7,4.2-1c2-1.1,2.4-5.1,3.4-7.6c0.3-0.6,0.9-1.2,1.2-1.9c0.8-2,1.4-4.6,2.4-6.9c1.2-2.7,2.4-5.5,2.5-8.8
			c0.4-0.8,1.7-1.1,1.9-2.2c0.1-0.4-0.3-1.3-0.4-2.1C543.5,468.5,542.9,464.7,540.8,465.6z M513.5,244.7c0.5-1.5-2.5-1.8-2.1-0.2
			C511.7,245.1,513,245.1,513.5,244.7z M493.1,334c0.6,1.4,3.2,0.6,3.4-0.6C496,332.3,493.1,332.7,493.1,334z M441.9,325.9
			c1.1,1.8,3.4,2.4,5.8,2.8c0.9-0.7,0.9-2.1,1.3-3.3C446.9,325.5,443.5,324.6,441.9,325.9z M431,318c0,1.7,0.2,2.7-0.1,4.2
			c1,1.8,3.1,0.2,3.6-1C435.2,317,433.1,315.8,431,318z M433,315.4c0.7-0.4,1.2-1,1-2.2C432.5,311.6,431,315.1,433,315.4z
			 M399.1,277.1c0.9,0.4,1.4,2,2.8,2.8c0.5,0.3,1.3,0.2,1.8,0.4c0.9,0.5,1.5,1.5,1.3,2.4c-0.3,1.2-1.9,0.9-2.7,1.8
			c0.1,1.7-1.2,2-1.6,3.1c0.3,0.7,1.4,0.6,1.5,1.5c-0.2,1-1.9,1.1-1.5,2.1c1.6,1.2,3.3-0.3,4.8-0.5c3.3-0.4,6.8,0.4,8.8-1.2
			c-0.3-1.6,1.7-2.2,1.5-3.6c-0.1-1.1-1.9-1.2-2.7-1.9c-0.4-0.4-0.5-1.3-1-2.1c-0.6-0.9-1.7-1.5-2.4-2.4c-0.9-1.2-2.7-2.9-2.7-3.7
			c0-1,1.3-1.3,1.5-2.7c-0.3-1.3-2.6-0.4-2.8-1.8c0.1-0.8,0.9-1,0.9-1.9c-0.2-0.1-0.4-0.2-0.7-0.1c-0.8,1-2.1,0.6-3.4,1
			c-1.1,0.4-3,2.2-3.3,2.8C398.7,274.3,399.2,275.5,399.1,277.1z M395.1,287.2c0.8-0.3,2.1-0.2,2.5-0.9c0.5-0.8,0.1-2.1,0.4-3.3
			c0.4-1.3,1.6-1.4,1.5-2.5c-0.2-1.5-3.7-2.4-5.7-1.2c-1.1,0.7-1.5,1.8-2.4,2.1c-1.2,0.5-2.1,0.1-2.2,1.2c-0.1,0.9,0.8,1.4,0.7,2.2
			c-0.4,1.1-1.7,1.4-1.9,2.7C389.6,289.9,393.2,287.7,395.1,287.2z M338.6,445.1c-0.8-0.3-2.5,0-3.6-0.4c-3.5-1.3-5.6-5.7-9.2-6
			c-0.8-0.1-1.5,0.3-2.4,0.3c-1.4,0-3.6-1-5.2-1.2c-1-0.1-2.4,0.3-3,0c-0.9-0.5-1-2.2-1.8-2.7c-0.6-0.4-1.8-0.5-2.7-0.9
			c-1.5-0.6-2.6-1.2-4.3-1.3c-0.5,0-1.2,0.2-1.8,0.2c-0.9-0.2-1.7-1.3-2.5-1.8c-1.1-0.7-2.1-1-2.5-1.9c1-3.2-1.7-4.1-2.4-6
			c-0.3-0.9-0.2-1.9-0.4-2.7c-0.4-1.1-1.5-1.8-2.7-2.7c-2.2-1.7-4.1-3.2-7.2-3.6c-1.4-0.2-2.7,0.4-4.3,0.3c-1.7-0.1-3.9-1.7-5.2-3.1
			c-1.3-1.5-1.9-2.7-3-3.4c-1-0.7-2.4-0.7-3.1-1.3c-0.3-0.3-0.3-0.8-0.6-1.5c-0.5-1.1-1.4-1.7-0.7-3c-1.2-0.6-1.2,1.1-2.5,0.9
			c-1.2-1.6-2.1-2.4-4.8-1.9c-1.2,0.2-1.9,1.8-3.3,1.8c-1.2,0-2.1-1.3-3.6-1.5c-1.1-0.2-2.5,0.3-3.3,0.1c-1.3-0.2-1.7-1.3-2.8-2.1
			c-0.9-0.6-2.5-1.5-3-1.5c-1.5,0.1-2.6,3.2-4.6,2.1c-1-1.3,1.6-1.9,0.4-3.1c-0.9-0.9-1.7,0.4-2.4,0.9c-0.8,0.6-1.6,1.2-2.5,1.5
			c-2,0.8-3.3,0.4-4.9,1.2c-1.5,0.8-1.5,2.1-2.4,3.6c-0.7,1.3-2.2,3.1-3.3,3.1c-1.2,0.1-2.4-1.8-3.6-2.2c-3.4-1.5-5.1,1.3-7.9,1.3
			c-2.6,0-6.4-4.2-6.3-6.7c0.1-1.5,0.9-3.8,1-5.7c0.1-1.5,1.2-2.4,1.2-3.7c0-1.8-2.4-3.2-3.6-3.4c-2.8-0.5-6.7,1.1-9.8-0.2
			c-0.6-1,0.7-1.7,1-2.7c0.2-0.6,0.1-1.3,0.3-1.9c0.4-0.9,1.3-1.7,1.8-2.7c0.3-0.8,0.4-1.9,0.7-2.8c0.4-1.1,1.1-1.8,1.2-2.5
			c0.1-1-0.3-2.2-1-2.8c-2.5,0.1-4.1,0.3-5.5,0.9c-3.2,1.5-2.6,5.8-5.8,6.9c-1.1,0.4-2.7,0.4-3.9,0.6c-1.1,0.2-2.3,0.8-3.4,0.7
			c-1.3,0-3.6-1.3-4.3-2.1c-0.7-0.7-2.3-4.4-2.5-5.1c-1.3-4.4,0.1-8.5,1.8-11.5c0.4-0.7,0.9-1.3,1.2-1.9c0.4-1,0.1-2.6,0.4-3.7
			c0.6-2.1,3.3-3.3,5.2-4.3c2.2-1.1,4-3,6.6-3.1c1.3-0.1,3.1,0.3,4.3,0.6c1.1,0.2,2,1,3,1c2.8,0.2,3.4-1.9,5.7-3.1
			c2.3,0.3,3.9-0.4,6-0.2c1.4,0.2,2.5,1.7,3.6,1.8c0.9,0.1,1.8-0.9,2.7-0.7c0.9,0.1,2.4,2.1,2.5,3.1c0.2,1.3-1,2.6-0.6,4
			c1.4,1.4,4,1.7,6,2.5c1.3-1.1,0.2-3.1,0-4.6c-0.1-0.7,0.1-1.3,0-1.9c-0.1-1.1-0.6-2.1-0.6-3c0-4.3,3.4-6.2,6.3-7.9
			c1.2-0.7,2.2-2,3.3-2.5c1.5-0.8,2.6-0.9,3.9-1.6c2.3-1.3,4.2-2.3,6-3.7c0.8-1.9,0-4.5,0.1-6.4c0.8-0.5,1.5,0.2,2.4,0.2
			c1.4-0.3,1.5-2.2,2.2-3c0.4-0.4,1.7-0.8,2.2-1.2c1.4-1.1,1.8-2.7,3-3.1c0.4-0.2,1.4-0.1,2.1-0.3c0.9-0.2,2.1-1.3,3.6-1.8
			c0.9-0.3,3.1-0.4,3.4-0.7c0.4-0.5,0-1.7,0.1-2.4c0.7-3.4,5.8-4.1,8.8-5.2c2.1-0.8,4.3-2.2,6.6-1.8c-0.5,1.6-2.6,1-2.2,3
			c0.5,2.7,4.1-0.8,5.1-1.2c1.8-0.8,4.9-1.2,7.3-2.1c2.1-0.8,5.8-1.9,3.9-4.3c-1.6-0.1-2.4,1.9-3.9,2.5c-1,0.1-0.8-0.8-1.6-0.9
			c-0.8-0.1-1.3,0.7-2.1,0.6c-0.8-0.1-2-1.4-2.1-2.4c-0.3-2.5,2.1-3.5,3.1-5.4c-0.7-2.3-3.8-0.5-5.7-1.3c0.2-1.3,1.6-2.3,3.1-2.5
			c1.3-0.2,4.2,0,4.9,0.6c0.4,0.4,0.1,1.3,0.7,1.9c0.8,0.7,1.7,0.6,2.7,0.4c0.4-1.7-2.2-1.3-1.9-2.4c2-1.3,5.3-0.2,7.8-0.6
			c1.4-0.2,2.9-1.2,4.2-1.9c1.2-0.7,2.8-1.9,4-0.7c0.3,1.2-1.1,1.6-1.8,2.2c-2.3,2-4.6,4.4-6.4,6.7c1.1,1.1,3.1,0.5,4.9,0.7
			c0.7,0.1,1.6,0.3,2.4,0.4c0.9,0.2,1.8,0.1,2.5,0.3c1.3,0.3,1.6,1.6,2.8,1.6c2,0,2-2.2,0.9-3.6c0.4-1.4,0.9-2.1,0.4-3.1
			c-0.9-1.8-4.3,0-4.5-2.4c-0.1-1.5,1.2-1.4,1.8-2.5c-0.2-2.9,2.4-3.1,2.1-5.7c-0.1-1.1-1-1.1-1.8-2.1c-0.4-0.5-0.6-1.5-1-1.9
			c-1.6-1.3-4.7-1.1-4.9-3.6c-0.1-1.5,0.4-2.7,0.1-4.3c-0.2-1.5-1.2-5.7-2.5-6c-1.7-0.4-3.4,2.5-5.4,3.4c-1.1,0.5-2.6,1.1-3.7,0.9
			c-0.7-0.1-2.1-1.2-2.2-2.5c-0.1-1.6,1.1-1.6,1.3-3.3c-0.2-1-1.3-0.8-2.2-1.5c-1.1-0.8-2-2.6-3.4-2.8c-0.7-0.1-1.7,0.5-2.4,0.6
			c-2.2,0.2-4.1-1.4-5.8-1c-2,0.5-1.9,3.6-3.9,4.2c0.3,1.5-1.7,2.4-1.9,3.6c-0.1,0.8,0.3,1.7,0.3,2.4c0.4,7.2-5.4,10.5-12.4,10.3
			c-1.4,1.3-1,3.7-1.8,5.5c-0.6,1.5-2.8,3.1-4.3,3c-1.1-0.1-2.4-1.7-2.4-2.7c0-1.3,1.8-2,0.7-3.4c0.2-1,2.4-1.6,2.1-3.1
			c-0.3-1.6-2.6-0.8-4.6-1c-1.5-0.2-3.5-1.1-4.8-1.8c-1.7-1-3.2-2.9-5.5-3.1c-1.3-0.2-2.5,0.4-3.1-0.3c-0.7-0.8,0.3-2,0.3-2.5
			c0-0.9-1.7-1.2-1.8-2.1c-0.1-0.6,1.6-2.6,2.2-3.1c1.2-1,3.3-2.1,5.2-3.1c1.9-1,4-2.1,5.8-2.7c0.8-0.3,1.6-0.2,2.4-0.4
			c1.9-0.7,3.1-2,4.9-2.5c0.9-0.3,1.9-0.2,3-0.4c2.5-0.6,4.3-2.3,6.4-2.7c-0.5,1.7-2.4,2-2.8,3.7c1.8,3.3,4.9-0.8,7-0.7
			c1.9,0,3.9,2.7,5.1,0.1c-0.4-1.4-1.7-2.2-3-3c-1.1-0.7-3-1.4-2.8-3c1.4-0.6,1.9,1,3.1,1.1c0.7,0,1.5-0.8,2.2-1.1
			c1.6-0.5,4.1-0.7,5.4-1.8c0.7-0.7,0.6-1.7,1.2-2.5c0.5-0.7,1.7-0.9,2.2-1.6c0.6-0.9,0.1-1.6,0.9-2.1c1.7-0.8,3.9,0.2,5.8,0
			c0.9-0.1,1.5-0.8,2.4-0.7c1.7,0.1,2.6,2.8,3.7,3.6c0.9,0.6,2.4,0.5,2.5,1.6c0.3,2.2-2.8,2.3-4.8,3.4c-1,0.5-1.4,1.8-2.5,2.2
			c-3.2,1.2-7.9-1.3-8.9,2.1c1.5,2.2,4.1-0.1,6-0.1c1.3,0,2.9,1.2,3.7,2.1c0.7,0.7,0.9,2.2,1.8,2.7c0.6,0.3,1.6,0.2,2.2,0.4
			c2.2,0.7,4,1.9,6.4,1.3c0.8-1.4-1.7-1.9-0.7-3c1.6,0.1,2.6,0.8,3.9,1.3c1.7-1.3,2.9-1.4,2.8-3.4c0-1.7-2.3-1.8-2.2-3.7
			c0-1.1,0.8-1.6,1.6-1.6c1.9-0.1,2.5,2.8,3.9,3c0.9,0.1,3.4-1.1,3.9-1.3c0.7-0.4,2.9-1.7,3-2.4c0.1-1.1-2.3-2.5-3.4-3
			c-1.6-0.7-3.2-0.6-3.9-1.9c-0.3-0.8,0.2-1.6-0.4-2.1c-0.1-0.8,1-1.3,0.7-2.1c-0.2-0.8-1.1-0.7-2.2-1.2c-0.8-0.4-1.5-1.2-2.2-1.3
			c-0.9-0.2-1.8,0-2.5-0.3c-2.6-1-2.1-3.2-3.9-4.2c-2.3,0.3-4.2-0.8-5.8,0.2c-2-1.1-5,0.3-7.6,0c-0.7-0.1-1.5-0.5-2.2-0.6
			c-3.9-0.3-9.3,2.1-10.9,3.9c-0.3,0.3-1.4,2.3-1.2,3.1c0.4,1.6,3.4,0.4,4.2,1.9c-0.2,1.9-2.2,2.8-3.7,3.6c-1.5,0.7-3.3,2.6-4.9,1.6
			c-0.6-1.6,1.8-1.6,1.2-3c-0.4-1-2.3-0.4-3.1-1.3c-1.2-1.4,0.2-3.3-0.1-5.4c1.7-3.1,8.1-1.3,9.8-4.3c-0.2-1-1.2-0.4-1.9-0.7
			c-0.8-0.3-1-1-1.8-1c-0.8,0-1.8,0.8-2.7,1.2c-1.1,0.4-2.1,0.7-2.8,1.2c-1.7,1.1-2.3,3.8-4.3,3.3c-0.4-1.6,1.9-2.5,1.6-3.9
			c-0.5-0.9-1.8-0.5-2.8-0.4c-2.8,0.3-4.9,0.9-6,2.4c-1-0.1-2.3-0.7-3,0.1c0.6,1.1,2,2.9,3.4,3.1c1,0.2,2.1-0.8,3.1,0
			c0.3,1.6-1.9,1.6-1.9,3.1c0,0.9,1.2,1.5,1,2.4c-0.2,1.3-3.5,2.9-4.8,2.1c0-1.5,2-1,1.9-2.4c0-0.6-1-1.4-1.6-1.5
			c-1.2-0.2-3.2,0.7-4,1.5c-0.7,0.7-0.7,2-1.5,2.5c-1.3,0.9-3.1,0.4-4.6,0.4c-3,0.1-4.7,0.2-6.9-0.9c-0.6-0.3-1.9-0.9-1.8-1.9
			c2.3-0.1,4.6,1.1,7.3,0.6c1-0.2,1.3-1.1,2.2-1.5c1-0.5,2.2,0,2.5-1c-0.1-1.8-2.2-1.3-2.4-2.7c-0.1-0.8,1.1-2.5,1.9-3.3
			c0.9-0.9,2.5-1,2.8-2.1c-0.7-1.5-2.4,0.1-3.6,0.3c-0.7,0.1-1.4-0.2-2.1,0c-1.5,0.3-2.3,1.7-3.3,2.2c-1.1-0.2-1.2-1.3-2.2-1.5
			c-1.3,1-2.5,0.3-3.9,0c-0.7-0.2-1.6-0.2-2.1-0.3c-1.2-0.3-2-1.8-3.4-2.2c-0.8-0.2-2.3,0-3.7-0.1c-2.5-0.3-4.8-1.1-6.9-0.7
			c-2.6,0.4-4.2,2.2-6.3,3c-2.5,1-6.9,2.3-3.4,4.5c3.4-0.1,6.3-1.6,9.2-1.6c0.3,1.8-1,3.4-1.6,4.6c-0.5,0.9-0.4,1.6-0.9,1.9
			c-2.1,1.4-5.9-1.2-8.6-1.6c-1.5-0.2-2.8,0.4-4.2,0.4c-1.4,0-2.7-0.7-4,0c-1.2-0.4-1-1.8-2.1-1.9c-0.8-0.1-1.8,0.8-2.5,0.9
			c-0.7,0.1-1.4-0.2-2.2-0.2c-1.5,0.1-3.1,0.7-4.8,1c-1.8,0.4-3.6,0.2-5.4,0.3c-2.4,0.2-5,1.4-7.3,1.2c-1.3-0.1-2.2-1.3-3.4-1.5
			c-0.9-0.2-1.8,0-2.7-0.1c-0.9-0.2-1.7-0.6-2.5-0.7c-2.2-0.4-4.9,0-7.2-0.3c-1-0.1-1.8-0.8-2.8-0.9c-1.1-0.2-2.3,0.2-3.4,0
			c-0.7-0.1-1.4-0.6-2.1-0.7c-0.9-0.2-2,0-2.8-0.2c-0.9-0.2-1.7-0.9-2.7-0.9c-1.4-0.1-2.8,0.6-4,0.9c-1.4,0.3-2.8,0.2-4.3,0.3
			c-1.8,0.2-3.8,0.9-5.8,1.2c-2.1,0.3-3.9,0.8-5.7,1.5c-2,0.8-3.6,1.2-5.7,1.5c-1.8,0.3-4.1,0-5.4,1.8c0.3,1.2,1.4,2.5,0.9,4
			c-1,2.1-3.2,0.2-4.9,0.1c-1.5-0.1-4.1,0.5-5.8,0.9c-1.9,0.4-4.4,0.9-4.3,2.5c0.2,2.7,6.6,0.5,8.2,1.8c0.2,2.1-2.7,1.7-4.8,1.9
			c-1,0.1-1.9,0.8-2.7,0.9c-0.8,0.1-1.5-0.3-2.1-0.3c-1.5,0.1-2.7,1.1-4.6,1.6c-1.2,0.4-4.2,1.3-4.3,2.1c-0.1,1.3,3.1,2.3,4.9,3.1
			c2.4,1.1,3.7,1.8,5.8,2.2c2.3,0.5,6.5,0.4,8.8,0.2c0.9-0.1,2-0.5,2.5-0.5c1.4,0.1,1.5,1.2,2.7,1.3c1.5,0.1,2.2-0.9,3.6-1.2
			c1.4-0.3,3.3-0.1,4.8-0.7c1.5-0.6,2.1-1.9,3.1-1.9c1.7-0.1,2.6,1.6,4.5,1.9c3,0.5,5.4-0.2,7.6,0.9c1.7,0.9,2.6,3.5,3.4,4.5
			c0.3,0.4-1,1.6-1,2.2c-0.1,0.5,0.3,1.2,0.3,1.8c-0.1,1.6-1.3,2.6-0.3,3.4c1.1,0.9,2.9-1.3,3.9,0.2c1,1.4-0.9,2-1.2,3.3
			c-0.3,1.5,0.5,3,0.4,4.5c0,0.6-0.2,2.2-0.4,2.7c-0.4,1-2,1-2.1,2.1c-0.2,1.7,2.5,2.9,2.7,4.3c0.1,1-0.8,2.9-1.2,3.7
			c-1,2.4-2.6,4.4-4.3,6.4c-1.6,1.9-4,3.7-5.1,5.7c-0.6,1.1-0.7,2.3-1.2,3.3c-0.8,1.4-2.1,2.1-2.8,3.6c-0.3,2.1-0.1,3.9,0,5.8
			c0.1,1.9-0.1,3.9,0.2,5.7c0.1,1,0.5,3,1,3.9c0.6,1.1,1.7,0.8,3,1.5c1,0.6,2.5,2,2.8,3c0.3,1.1,0.2,2.9,0.3,4.3
			c0.1,1.6,0.2,3.4,0.6,4.5c0.4,1.2,2.4,2.4,2.4,3.9c0,1.3-1.8,1.5-1.8,2.8c0,2.2,4.3,2.2,4.8,4.3c0.3,1.1-0.5,2.3-0.3,3.1
			c0.3,1.1,2,1.9,2.5,2.4c0.9,0.8,1.4,2.2,2.8,1.9c1.1-1.4-0.8-2.5-1.3-3.6c-0.6-1.3-0.6-3.5-1.2-5.5c-0.4-1.3-1.6-2.3-1.9-3.4
			c-0.4-1.2-0.3-2.4-0.7-3.4c-0.4-1-1.8-2.3-1.9-3.3c-0.5-3.6,3.3-4.8,4.3-2.1c0.6,1.6-0.3,3.1,0,4.8c0.2,1.4,1.9,2.7,2.8,3.9
			c1,1.4,1.8,2.7,2.7,3.6c0.1,1,0.1,1.1,0,2.1c1.2,1.4,2.7,2.8,3.9,4.3c1.6,2.1,4.3,4.7,3.9,8.2c-0.1,1.1-1.2,2.1-1.2,3.3
			c0,1,1.3,2.2,2.4,3c1.2,0.8,2.2,1.8,3.1,2.2c0.7,0.3,1.9,0.4,2.7,0.7c1.1,0.5,1.9,1.6,3.1,2.2c1.5,0.8,3.5,1.2,5.4,2.1
			c1.8,0.8,4.1,1.9,5.5,1.9c1.4,0,2.9-1.5,4.5-1.5c3.7-0.1,5.2,4.7,8.2,6.1c0.7,0.4,1.7,0.4,2.7,0.6c0.8,0.2,1.3,0.5,2.1,0.7
			c1.6,0.5,3.5,0.5,4.8,1c1.9,0.8,3.3,4.4,4.9,5.4c0.1,1-0.2,2.3,0.1,3c0.8,1.1,1.9,0.8,3.1,1.5c1.5,0.8,2,2.9,3.4,3.6
			c0.5,0.2,1.7,0.2,2.5,0.4c2,0.6,2.6,2.9,4.3,2.4c1.1-0.3,1-1.5,1.2-2.5c0.7-0.8,1.5-2.1,2.7-2.1c1.9,0,2,1.9,2.7,3.7
			c0.4,1,1.4,1.9,1.6,3c0.5,1.9,0.2,7.4-0.1,8.5c-0.5,1.4-2.3,1.9-3.4,3.4c-0.5,0.7-0.8,1.7-1.2,2.2c-0.7,0.9-1.8,1.1-2.4,1.9
			c-0.3,0.5-0.6,1.5-0.9,2.1c-0.9,1.9-2.1,3.2-1.3,5.5c0.3,0.9,1.8,1.6,1.8,2.7c0,1.3-2.8,2.5-3,3.9c-0.2,1.1,0.9,3,1.2,4.3
			c0.3,1,2.2,1.7,2.8,2.4c1,1.2,1.9,2.9,2.8,4.3c1.9,2.9,3.4,6.5,5.2,9.3c1,1.5,2.3,2.8,3,4.3c0.3,0.8,0.3,1.7,0.6,2.4
			c1.1,2.4,5.8,4.9,8.2,6.1c1.1,0.6,2.4,0.8,3.4,1.3c1.6,0.9,4.7,3.2,5.5,4.6c0.7,1.3,1.1,4.3,1.5,6.3c0.5,2.6,0,4.6,0.1,7.5
			c0.1,1.5,0.6,3.1,0.6,4.6c0,0.5-0.3,0.9-0.3,1.5c-0.1,1.9,0.5,4,0.3,5.8c-0.1,1-0.4,1.8-0.3,2.7c0.1,0.9,0.5,1.7,0.6,2.5
			c0.1,0.9-0.2,2-0.2,2.7c0.2,1.9,1.6,3.4,1.9,5.1c0.3,1.4,0.5,4.2,0.3,5.8c-0.1,0.9-0.6,1.7-0.7,2.7c-0.1,0.7,0.1,1.5,0,2.2
			c-0.2,1-0.8,1.9-0.7,2.8c0.1,2,2.4,3.7,2.7,5.7c0.1,0.7-0.2,1.4-0.1,2.1c0.1,1.2,0.6,2.3,0.9,3.4c0.4,1.7,0,4.1,1.8,4.9
			c1.9-0.6-0.4-2.7,0.7-3.6c2.1,0.7,1.5,4.1,2.1,6.3c-0.8,0.5-1.9-0.6-2.4,0.4c-0.5,0.9,0.7,1.8,0.7,2.4c0.1,1.1-0.8,2.4-0.6,3.1
			c0.3,1.3,2.6,1,3,2.1c0.4,1.1-0.8,1.9-0.7,3.1c0,1.2,1.6,3.4,2.8,5.1c0.6,0.8,1.5,1.3,1.9,1.9c0.4,0.6,0.7,1.7,1.2,2.2
			c0.5,0.5,1.7,0.8,2.5,1.3c1.3,0.9,2.7,3.1,4,3.7c0.6,0.3,1.4,0.4,2.1,0.7c1,0.4,2,1.2,2.8,1.5c2.4,0.9,4.9,1.5,6.9,2.4h4.6
			c1.2-0.4,2.4-0.7,2.7-1.9c-0.9-2.1-4-1.8-6.1-3c-1.4-0.8-2.7-2.4-3.7-3.6c-1-1.2-3.1-2.8-3.1-4.2c0-1.2,1.2-1.5,1.5-2.5
			c0.2-0.8-0.3-1,0-1.9c0.6-1.8,2.3-1.8,2.2-3.6c-0.1-3-5.8-1.7-6-4.8c-0.1-2,2.9-2,3.3-3.9c0.2-0.9-0.3-1.3-0.3-2.7
			c0.3-1.5,1.9-1.7,2.2-3.1c-0.6-1.1-2-0.3-3-0.9c-0.9-0.5-1.3-1.7-1.2-2.8c1.6-0.7,4.6,1.6,5.7-0.6c0.6-1-0.6-3.6,0.1-4.6
			c0.5-0.7,3.4-0.7,4.5-0.9c1.6-0.3,3.4-0.6,4.3-1.2c1-0.6,2.4-2.5,2.2-4.3c-0.1-0.9-0.7-1.2-1.3-1.9c-0.6-0.7-0.8-1.5-1.2-2.1
			c-0.7-1-1.8-0.9-2.1-2.4c2.1-0.4,5.4,1.8,8.5,0.9c1.5-0.4,3.5-3.6,4.2-4.9c0.2-0.4,0.2-1.1,0.4-1.6c0.3-0.6,0.8-1,0.9-1.3
			c0.2-0.8,0.1-1.4,0.3-1.9c0.5-1.5,1.9-2,2.8-3.1c0.7-0.8,1-1.8,1.6-2.7c0.7-0.9,1.3-1.7,1.8-2.5c0.4-2.7-1.1-4.6-0.4-7
			c0.7-2.7,4.4-4.3,7-5.5c0.9-0.4,1.8-1.1,2.5-1.3c1.8-0.6,4-0.3,5.7-0.9c2.8-1,3.1-4,4.5-6.6c0.7-1.2,1.5-2.4,1.6-3.3
			c0.1-0.8-0.3-1.5-0.1-2.4c0.1-0.9,0.9-1.7,1.2-2.7c0.3-1.3,0.4-3.2,0.4-4.6c0-1.2-0.5-2.2-0.6-3.3c-0.2-3.9,1.4-4.3,2.8-6.4
			c0.7-1.1,1-2.2,1.5-3c2.4-3.6,6.6-5.3,6.3-10.8C341,449.7,339.9,445.7,338.6,445.1z M246,309.3c1.4-0.1,3.4-0.3,4,0.3
			c-0.5,2-4.7,1.5-6.3,0.7C243.8,309.6,245,309.4,246,309.3z M299.5,249.9c0.1,0.8-0.3,1-1,0.9C297.9,250.1,298.8,249.5,299.5,249.9
			z M228.8,306.3c-2.1,1.3-3.4,3.2-4,6c-0.2,0.8-2.3,2.9-3.3,2.7c-2.4-0.5,0.7-4.9,1.2-5.5c0.6-0.7,1.4-1.4,2.1-2.2
			c0.7-0.8,1.1-1.9,1.8-2.4c1-0.7,4.3-1.5,4.9-0.7C231.3,305.7,230.1,305.6,228.8,306.3z M234.9,315.6c-1.1,0.4-3.1,0.8-3.3-0.5
			c-0.2-1.6,1.6-1.2,2.7-1.3c1.7-0.2,3.7-1.5,5.8-0.7C238.8,314.2,237.3,314.8,234.9,315.6z M237.3,303.3c0.7,0.1,1.5,0.8,2.4,0.9
			c0.8,0.1,1.4-0.4,1.9-0.3c1.2,0.3,1.8,2.2,0.6,3.1c-1,0.1-1.4-0.4-2.1-0.3c-2,0.3-2.8,4.3-4.3,4.2c-1.4-0.1-2.2-3.6-0.7-4.6
			c0.1-0.9-0.6-1.1-0.6-1.9C234.9,303.8,236.1,303.2,237.3,303.3z M231.7,296.1c1.4,0.4,4.9,4.3,1.9,5.5c-0.3,0.1-4.4,0.6-5.1,0.4
			c-1-0.2-1.6-1.6-2.7-1.8c-2.1-0.4-4.9,2.5-6.3,0.2c0.4-1.3,1.9-1.4,3.4-1.8C225.8,297.9,229.2,295.5,231.7,296.1z M218.7,245.7
			c2.4,0.3,5.2-0.3,6.9,0.4c0.4,0.7-0.4,1.2-0.9,1.5c-2.9-2.1-7.1,1.2-9.8-1C215,243.5,217.3,243.8,218.7,245.7z M212.9,283
			c2.8-0.7,1.7,4.3,0,4.3C210.5,287.4,211,283.4,212.9,283z M198,263.1c-1.4,0.5-3.5,1.5-5.8,1c0.1-1.1,1.9-1.3,3.1-1.9
			c1.1-0.6,1.6-1.5,2.7-1.5c0.8,0,1.5,0.8,2.2,1.3C200,262.9,198.8,262.8,198,263.1z M191.8,250.7c2.7-0.2,7.2-2.2,7.9,1
			c-0.6,0.9-1.6,0.4-2.5,0.6c-2.3,0.4-4.8,1.9-6.9,1.3C190.5,252.4,191.3,251.6,191.8,250.7z M241.9,405.2c-1.1,0.2-1.7-1.7-0.6-2.2
			C242.8,402.3,243.1,405,241.9,405.2z M292.1,246.8c-1.1-1.7-4.6,0-4.3,1.3C288.1,249.9,292.4,248.1,292.1,246.8z M264.5,259.4
			c-0.6,0.4-0.7,0.9-0.6,1.2c0.3,1.6,3.3,0.2,3.3-0.6C267.1,259.1,265.3,258.9,264.5,259.4z M137.1,282.5c-0.8-1.4-2.8-0.4-2.8,1
			c0.2,0.3,0.5,0.5,0.7,0.7C135.9,283.9,136.8,283.5,137.1,282.5z"/>
	</g>
</g>
<circle fill="#EF3D3C" cx="52.4" cy="-145.7" r="3.8"/>
<rect x="-71" y="-212.4" fill="#FFFFFF" width="134.1" height="36.3"/>
<text transform="matrix(1 0 0 1 -59.0938 -186.7031)" fill="#252525" font-family="'ArialMT'" font-size="22">NEW YORK</text>
<polygon fill="#FFFFFF" points="52.7,-180.9 31,-180.9 52.7,-144.9 52.7,-144.9 "/>
<circle fill="#EF3D3C" cx="731.7" cy="362.8" r="3.8"/>
<circle fill="#EF3D3C" cx="134" cy="336.4" r="3.8"/>
</svg>
