<?xml version="1.0" encoding="utf-8"?>
<!-- Generator: Adobe Illustrator 18.1.1, SVG Export Plug-In . SVG Version: 6.00 Build 0)  -->
<svg version="1.1" id="Layer_1" xmlns="http://www.w3.org/2000/svg" xmlns:xlink="http://www.w3.org/1999/xlink" x="0px" y="0px"
	 viewBox="-55 147 500 500" enable-background="new -55 147 500 500" xml:space="preserve">
<g id="mail_1_">
	<path fill="#FFFFFF" d="M-52.6,151.7c0.3,0.2,4.8,2.7,5,2.8c0.2,0.1,0.4,0.1,0.6,0.1s0.4,0,0.6-0.1c0.2-0.1,4.7-2.6,5-2.8
		c0.3-0.2,0.6-0.8,0-0.8h-11.3C-53.2,151-52.9,151.6-52.6,151.7 M-41.3,153.1c-0.4,0.2-4.9,2.7-5.1,2.8c-0.2,0.1-0.4,0.1-0.6,0.1
		c-0.2,0-0.4,0-0.6-0.1c-0.2-0.1-4.8-2.6-5.1-2.8c-0.3-0.1-0.3,0-0.3,0.2v5.1c0,0.3,0.4,0.7,0.7,0.7h10.7c0.3,0,0.7-0.4,0.7-0.7
		v-5.1C-41,153.2-41,153-41.3,153.1"/>
</g>
<g id="phone_1_">
	<path fill="#FFFFFF" d="M-28.4,148h-5.2c-0.8,0-1.4,0.6-1.4,1.4v11.1c0,0.8,0.6,1.4,1.4,1.4h5.2c0.8,0,1.4-0.6,1.4-1.4v-11.1
		C-27,148.6-27.6,148-28.4,148 M-31,161.4c-0.5,0-1-0.3-1-0.7c0-0.4,0.4-0.7,1-0.7s1,0.3,1,0.7C-30,161.1-30.5,161.4-31,161.4
		 M-28.1,159.3h-5.8v-9.4h5.8V159.3z"/>
</g>
<g id="logo_bg">
	<rect x="-55" y="163" fill="#212121" width="80" height="32"/>
</g>
<g id="logo">
	<path fill="#FFFFFF" d="M-34.8,176.8c0.2,0.8,0.2,1.6,0.2,2.3c0,1.4-0.1,3.1-1.1,4.2c-0.6,0.6-1.5,1-2.4,1c-0.9,0-1.7-0.3-2.4-1
		c-1.1-1.1-1.1-2.9-1.1-4.2c0-1.4,0.1-3.1,1.1-4.2c0.6-0.6,1.5-1,2.4-1c0.6,0,1.2,0.2,1.7,0.5l1-1.2c-0.8-0.5-1.8-0.8-2.8-0.8
		c-1.3,0-2.6,0.5-3.5,1.4c-1.4,1.4-1.7,3.3-1.7,5.3c0,2.1,0.3,4,1.7,5.3c0.9,0.9,2.2,1.4,3.5,1.4c1.3,0,2.6-0.5,3.5-1.4
		c1.4-1.4,1.7-3.3,1.7-5.3c0-1.4-0.1-2.7-0.6-3.9L-34.8,176.8L-34.8,176.8z"/>
	<polygon fill="#FFFFFF" points="-50.9,172.6 -52.6,172.6 -52.6,185.6 -44.7,185.6 -44.7,184.1 -50.9,184.1 	"/>
	<path fill="#FFFFFF" d="M-22.1,176.9c0.2,0.8,0.2,1.6,0.2,2.2c0,1.4-0.1,3.1-1.1,4.2c-0.6,0.6-1.5,1-2.4,1c-0.9,0-1.7-0.3-2.4-1
		c-1.1-1.1-1.1-2.9-1.1-4.2c0-1.4,0.1-3.1,1.1-4.2c0.6-0.6,1.5-1,2.4-1c0.6,0,1.3,0.2,1.8,0.5l1-1.2c-0.8-0.6-1.8-0.8-2.8-0.8
		c-1.3,0-2.6,0.5-3.5,1.4c-1.4,1.4-1.7,3.3-1.7,5.3c0,2.1,0.3,4,1.7,5.3c0.9,0.9,2.2,1.4,3.5,1.4c1.3,0,2.6-0.5,3.5-1.4
		c1.4-1.4,1.7-3.3,1.7-5.3c0-1.4-0.1-2.7-0.6-3.8L-22.1,176.9L-22.1,176.9z"/>
	<g>
		<path fill="#FFFFFF" d="M-9.1,173.8c-0.7-0.8-1.8-1.2-3.3-1.2h-4.8v13h1.6v-5h3.2c1.4,0,2.5-0.4,3.2-1.1c0.7-0.7,1.1-1.7,1.1-2.9
			C-8.1,175.4-8.5,174.5-9.1,173.8 M-12.4,179.1h-3.2v-5h3.1c1.6,0,2.6,0.8,2.6,2.4C-9.8,178.3-10.6,179.1-12.4,179.1"/>
		<path fill="#FFFFFF" d="M20.6,172.5l-1.2,1.2c0.9,1.5,1.5,3.2,1.5,5c0,5.2-4.2,9.4-9.4,9.4c-5.2,0-9.4-4.2-9.4-9.4
			c0-5.2,4.2-9.4,9.4-9.4c1.9,0,3.6,0.6,5,1.5l1.2-1.2c-1.8-1.2-3.9-1.9-6.2-1.9c-6,0-11,4.9-11,11c0,6.1,4.9,11,11,11
			c6.1,0,11-4.9,11-11C22.6,176.4,21.8,174.3,20.6,172.5"/>
	</g>
</g>
<g id="work">
	<rect x="-54" y="198" fill="#989898" width="23" height="4"/>
	<rect x="-54" y="205" fill="#989898" width="23" height="4"/>
	<rect x="-54" y="212" fill="#989898" width="23" height="4"/>
</g>
<g id="work_hover">
	<rect x="-54" y="223" fill="#212121" width="23" height="4"/>
	<rect x="-54" y="230" fill="#212121" width="23" height="4"/>
	<rect x="-54" y="237" fill="#212121" width="23" height="4"/>
</g>
<g id="work_white">
	<g id="work_hover_1_">
		<rect x="-54" y="248" fill="#FFFFFF" width="23" height="4"/>
		<rect x="-54" y="255" fill="#FFFFFF" width="23" height="4"/>
		<rect x="-54" y="262" fill="#FFFFFF" width="23" height="4"/>
	</g>
</g>
<g id="inspire_1_">
	<path fill="#989898" d="M-10.8,204.4c0,0-0.9,0.1-2.9,1.2l-0.1-0.2c0.1-1.6,0.2-3.6,0.7-4.8c-0.3,0.1-1.2,1-2.3,1.8
		c-0.6-1.4-0.8-4.1-0.1-5.6c-5.3,3.9-8.4,9.5-8.4,13c0,2.7-0.4,6.8,6,6.8C-8,216.8-13.2,209.4-10.8,204.4 M-17.3,214.9
		c-7.2,0.2-2.6-7-3.4-5.6c-0.1,0.2-0.6,1.9,1.9,3.3c-1.3-1.6,1-3.5,1.9-4.4c0,2.3,0.9,4.4,0.9,4.4s1.5-0.9,2.5-4.1
		C-12.5,212.6-13.2,214.8-17.3,214.9"/>
</g>
<g id="inspire_hover_1_">
	<path fill="#212121" d="M-10.8,229.4c0,0-0.9,0.1-2.9,1.2l-0.1-0.2c0.1-1.6,0.2-3.6,0.7-4.8c-0.3,0.1-1.2,1-2.3,1.8
		c-0.6-1.4-0.8-4.1-0.1-5.6c-5.3,3.9-8.4,9.5-8.4,13c0,2.7-0.4,6.8,6,6.8C-8,241.8-13.2,234.4-10.8,229.4 M-17.3,239.9
		c-7.2,0.2-2.6-7-3.4-5.6c-0.1,0.2-0.6,1.9,1.9,3.3c-1.3-1.6,1-3.5,1.9-4.4c0,2.3,0.9,4.4,0.9,4.4s1.5-0.9,2.5-4.1
		C-12.5,237.6-13.2,239.8-17.3,239.9"/>
</g>
<g id="portfolio">
	<g>
		<rect x="2.8" y="198" fill="#989898" width="12.2" height="18"/>
		<rect x="0" y="198" fill="#989898" width="1.9" height="18"/>
		<rect x="5.6" y="200.8" fill="#FFFFFF" width="6.6" height="3.8"/>
	</g>
</g>
<g id="portfolio_hover">
	<g>
		<rect x="2.8" y="223" fill="#212121" width="12.2" height="18"/>
		<rect x="0" y="223" fill="#212121" width="1.9" height="18"/>
		<rect x="5.6" y="225.8" fill="#FFFFFF" width="6.6" height="3.8"/>
	</g>
</g>
<g id="close_white">
	<g>
		
			<rect x="31.2" y="197.5" transform="matrix(0.707 0.7072 -0.7072 0.707 156.3278 37.6646)" fill="#FFFFFF" width="3" height="20"/>
		
			<rect x="31.2" y="197.5" transform="matrix(-0.7074 0.7069 -0.7069 -0.7074 202.5181 331.1665)" fill="#FFFFFF" width="3" height="20"/>
	</g>
	<g>
		
			<rect x="30.2" y="197.5" transform="matrix(0.707 0.7072 -0.7072 0.707 156.0348 38.3718)" fill="#FFFFFF" width="3" height="20"/>
		
			<rect x="30.2" y="197.5" transform="matrix(-0.707 0.7072 -0.7072 -0.707 200.8664 331.7775)" fill="#FFFFFF" width="3" height="20"/>
	</g>
	<g>
		
			<rect x="30.9" y="197" transform="matrix(0.7071 0.7071 -0.7071 0.7071 156.2432 37.7978)" fill="#FFFFFF" width="3.1" height="20.9"/>
		
			<rect x="30.9" y="197.1" transform="matrix(-0.7071 0.7071 -0.7071 -0.7071 202.2045 331.246)" fill="#FFFFFF" width="3.1" height="20.9"/>
	</g>
</g>
<g id="close_black">
	<g>
		
			<rect x="30.9" y="222.1" transform="matrix(0.7069 0.7073 -0.7073 0.7069 173.9793 45.1624)" fill="#010101" width="3.1" height="20.9"/>
		
			<rect x="30.9" y="222" transform="matrix(-0.7073 0.7069 -0.7069 -0.7073 219.8368 373.9597)" fill="#010101" width="3.1" height="20.9"/>
	</g>
</g>
<g id="twitter">
	<path fill="#FFFFFF" d="M-34.5,275.8c-0.7,0.3-1.4,0.5-2.1,0.6c0.8-0.5,1.3-1.2,1.6-2.1c-0.7,0.4-1.5,0.7-2.3,0.9
		c-0.7-0.7-1.6-1.2-2.7-1.2c-2,0-3.7,1.7-3.7,3.8c0,0.3,0,0.6,0.1,0.9c-3.1-0.2-5.8-1.6-7.6-3.9c-0.3,0.6-0.5,1.2-0.5,1.9
		c0,1.3,0.7,2.5,1.6,3.1c-0.6,0-1.2-0.2-1.7-0.5c0,0,0,0,0,0c0,1.8,1.3,3.3,3,3.7c-0.3,0.1-0.6,0.1-1,0.1c-0.2,0-0.5,0-0.7-0.1
		c0.5,1.5,1.8,2.6,3.4,2.6c-1.3,1-2.9,1.6-4.6,1.6c-0.3,0-0.6,0-0.9-0.1c1.6,1.1,3.6,1.7,5.7,1.7c6.8,0,10.5-5.7,10.5-10.7
		c0-0.2,0-0.3,0-0.5C-35.6,277.2-35,276.6-34.5,275.8"/>
</g>
<g id="twitter_hover">
	<path fill="#FFFFFF" d="M-32,297.2c-0.8,0.4-1.8,0.6-2.7,0.8c1-0.6,1.7-1.5,2.1-2.7c-0.9,0.6-1.9,0.9-3,1.2
		c-0.9-0.9-2.1-1.5-3.4-1.5c-2.6,0-4.7,2.1-4.7,4.8c0,0.4,0,0.7,0.1,1.1c-3.9-0.2-7.4-2.1-9.7-5c-0.4,0.7-0.6,1.5-0.6,2.4
		c0,1.7,0.8,3.1,2.1,4c-0.8,0-1.5-0.2-2.1-0.6c0,0,0,0,0,0.1c0,2.3,1.6,4.3,3.8,4.7c-0.4,0.1-0.8,0.2-1.2,0.2c-0.3,0-0.6,0-0.9-0.1
		c0.6,1.9,2.3,3.3,4.4,3.3c-1.6,1.3-3.6,2.1-5.9,2.1c-0.4,0-0.8,0-1.1-0.1c2.1,1.4,4.6,2.2,7.2,2.2c8.7,0,13.4-7.3,13.4-13.6
		c0-0.2,0-0.4,0-0.6C-33.4,299.1-32.6,298.2-32,297.2"/>
</g>
<g id="facebook">
	<path fill="#FFFFFF" d="M-15.4,275.6h-2.9c-0.3,0-0.7,0.4-0.7,1v2.1h3.6v2.9H-19v8.8h-3.4v-8.8h-3.1v-2.9h3.1V277
		c0-2.5,1.8-4.5,4.2-4.5h2.9V275.6z"/>
</g>
<g id="facebook_hover">
	<path fill="#FFFFFF" d="M-14,297h-3.7c-0.4,0-0.9,0.6-0.9,1.3v2.6h4.6v3.8h-4.6V316H-23v-11.3h-4V301h4v-2.2c0-3.2,2.2-5.8,5.3-5.8
		h3.7V297z"/>
</g>
<g id="vine">
	<path fill="#FFFFFF" d="M11.4,277.2c-1,5.9-6.6,10.9-8.3,12.1c-1.7,1.1-3.2-0.5-3.8-1.7c-0.6-1.4-2.6-8.9-3.1-9.5
		c-0.5-0.6-2,0.6-2,0.6l-0.7-1c0,0,3.1-3.8,5.4-4.3c2.5-0.5,2.5,4,3.1,6.5c0.6,2.4,1,3.8,1.5,3.8c0.5,0,1.5-1.3,2.5-3.4
		c1.1-2.1,0-3.9-2.1-2.6C4.6,272.5,12.4,271.3,11.4,277.2"/>
</g>
<g id="vine_hover">
	<path fill="#FFFFFF" d="M13.9,299c-1.3,7.6-8.5,14-10.6,15.5c-2.2,1.5-4.1-0.6-4.8-2.1c-0.8-1.8-3.3-11.4-3.9-12.2
		c-0.6-0.8-2.6,0.8-2.6,0.8l-0.9-1.3c0,0,3.9-4.9,6.9-5.5c3.2-0.6,3.2,5.1,3.9,8.2c0.7,3.1,1.2,4.8,1.9,4.8c0.6,0,1.9-1.7,3.2-4.3
		c1.3-2.6-0.1-5-2.7-3.3C5.2,293.1,15.2,291.5,13.9,299"/>
</g>
<circle fill="#EF3D3C" cx="-15" cy="155" r="2"/>
<path fill="#FFFFFF" d="M37,163c-6.6,0-12,5.4-12,12c0,8,12,20,12,20s12-12,12-20C49,168.4,43.6,163,37,163z M37,183
	c-4.4,0-8-3.6-8-8s3.6-8,8-8s8,3.6,8,8S41.4,183,37,183z"/>
<g>
	<g>
		<path fill="#FFFFFF" d="M22.6,276.5c-0.1-0.2-0.3-0.5-0.7-0.5h-2.5c-0.2,0-0.3,0.1-0.3,0.2c-0.1,0.1-0.1,0.3,0,0.4l1.7,3
			c0,0,0,0,0,0l-2.7,4.9c-0.1,0.1-0.1,0.3,0,0.4c0.1,0.1,0.2,0.2,0.3,0.2H21c0.4,0,0.6-0.3,0.7-0.5c0,0,2.6-4.8,2.7-5
			C24.4,279.6,22.6,276.5,22.6,276.5z M32.9,273.1c0.1-0.1,0.1-0.3,0-0.4c-0.1-0.1-0.2-0.2-0.3-0.2H30c-0.4,0-0.5,0.2-0.7,0.5
			c0,0-5.4,9.9-5.6,10.2c0,0,3.6,6.8,3.6,6.8c0.1,0.2,0.3,0.5,0.7,0.5h2.5c0.2,0,0.3-0.1,0.3-0.2c0.1-0.1,0.1-0.3,0-0.4l-3.6-6.7
			c0,0,0,0,0,0L32.9,273.1z"/>
	</g>
</g>
<g>
	<g>
		<path fill="#FFFFFF" d="M21.8,298.2c-0.2-0.3-0.4-0.6-0.9-0.6h-3.2c-0.2,0-0.4,0.1-0.4,0.2c-0.1,0.1-0.1,0.3,0,0.5l2.2,3.9
			c0,0,0,0,0,0l-3.4,6.2c-0.1,0.2-0.1,0.4,0,0.5c0.1,0.1,0.2,0.2,0.4,0.2h3.2c0.5,0,0.7-0.3,0.9-0.6c0,0,3.3-6.1,3.5-6.3
			C24,302.1,21.8,298.2,21.8,298.2z M34.9,293.7c0.1-0.2,0.1-0.4,0-0.5c-0.1-0.1-0.2-0.2-0.4-0.2h-3.3c-0.5,0-0.7,0.3-0.9,0.6
			c0,0-6.9,12.7-7.2,13.1c0,0,4.6,8.6,4.6,8.6c0.2,0.3,0.4,0.6,0.9,0.6h3.2c0.2,0,0.3-0.1,0.4-0.2c0.1-0.1,0.1-0.3,0-0.5l-4.5-8.5
			c0,0,0,0,0,0L34.9,293.7z"/>
	</g>
</g>
<path fill="#FFFFFF" d="M56.3,282.1c0,0.6,0,1.3,0,1.9c-0.7,0-1.3,0-2,0c-0.7,2.3-3.4,6.2-6.1,6.5c-4.7-2.4-7.4-8.3-7.5-15.2
	c0.9,0,1.8,0.1,2.7,0.1c-0.1,5.5,2,10.1,5.2,12.4c1.4-1,3.2-2.9,3.5-5c-2.4-1.2-5.5-7.2-2-9.5c4.6-3,7.2,2.6,5.9,6.6
	c-0.8,0-1.7,0-2.5,0c0-0.1,0-0.3,0-0.4c0.4-1.1,0.6-3.7-0.3-4.3c-0.7-0.4-1.4-0.2-1.8,0.4C49.6,278.9,53.3,282.1,56.3,282.1z"/>
<path fill="#FFFFFF" d="M58.5,305.2c0,0.8,0,1.6,0,2.5c-0.8,0-1.7,0-2.5,0c-0.9,3-4.4,8-7.9,8.3c-6-3.1-9.5-10.6-9.6-19.4
	c1.1,0.1,2.3,0.1,3.4,0.2c-0.2,7.1,2.5,12.9,6.6,15.9c1.8-1.3,4.1-3.7,4.5-6.4c-3.1-1.6-7-9.2-2.5-12.2c5.8-3.9,9.2,3.3,7.5,8.5
	c-1.1,0-2.1,0-3.2,0c0-0.2,0-0.4,0-0.5c0.5-1.3,0.8-4.7-0.4-5.5c-0.9-0.5-1.8-0.3-2.3,0.5C49.9,301.2,54.7,305.3,58.5,305.2z"/>
<path fill="#FFFFFF" d="M63.5,277c0,1.5,0.5,2.6,1.5,3.3c0.8,0.5,1.7,0.6,2.2,0.6c0.1,0,0.2,0,0.3,0c0,0-0.2,1,0.6,2h0
	c-1.3,0-5.5,0.3-5.5,3.8c0,3.6,3.9,3.8,4.7,3.8c0.1,0,0.1,0,0.1,0c0,0,0.1,0,0.2,0c0.5,0,1.8-0.1,3-0.7c1.6-0.8,2.3-2.1,2.3-4
	c0-1.8-1.2-2.9-2.1-3.7c-0.5-0.5-1-0.9-1-1.3c0-0.4,0.3-0.7,0.8-1.1c0.7-0.6,1.3-1.5,1.3-3.2c0-1.5-0.2-2.5-1.4-3.1
	c0.1-0.1,0.6-0.1,0.8-0.1c0.6-0.1,1.6-0.2,1.6-0.7v-0.1h-4.6C68.1,272.5,63.5,272.7,63.5,277z M70.9,286.2c0.1,1.4-1.1,2.5-2.9,2.6
	c-1.8,0.1-3.4-0.7-3.4-2.1c0-0.7,0.3-1.4,0.8-1.9c0.6-0.5,1.4-0.9,2.3-0.9c0.1,0,0.2,0,0.3,0C69.7,283.8,70.8,284.8,70.9,286.2z
	 M69.7,276c0.5,1.6-0.2,3.3-1.3,3.6c-0.1,0-0.3,0.1-0.4,0.1c-1,0-2-1-2.4-2.4c-0.2-0.8-0.2-1.5,0-2.2c0.2-0.7,0.6-1.1,1.2-1.3
	c0.1,0,0.3-0.1,0.4-0.1C68.4,273.8,69.2,274.3,69.7,276z M77.5,279.5v-3.1h-1.9v3.1h-3v1.9h3v3.1h1.9v-3.1h3v-1.9H77.5z"/>
<path fill="#FFFFFF" d="M61.2,298.7c0,2,0.6,3.4,1.9,4.2c1,0.7,2.2,0.8,2.9,0.8c0.2,0,0.3,0,0.4,0c0,0-0.2,1.3,0.8,2.6h0
	c-1.7,0-7.1,0.4-7.1,4.9c0,4.6,5,4.8,5.9,4.8c0.1,0,0.1,0,0.1,0c0,0,0.1,0,0.2,0c0.6,0,2.3-0.1,3.8-0.8c2-1,3-2.7,3-5.1
	c0-2.3-1.5-3.7-2.7-4.7c-0.7-0.6-1.3-1.1-1.3-1.7c0-0.5,0.4-0.9,1-1.4c0.9-0.8,1.7-2,1.7-4.1c0-1.9-0.2-3.2-1.7-4
	c0.2-0.1,0.7-0.1,1-0.2c0.8-0.1,2-0.2,2-0.9V293h-5.9C67.1,293,61.2,293.2,61.2,298.7z M70.7,310.5c0.1,1.8-1.4,3.2-3.8,3.4
	c-2.4,0.2-4.3-0.9-4.4-2.7c-0.1-0.9,0.3-1.7,1.1-2.4c0.8-0.7,1.8-1.1,2.9-1.2c0.1,0,0.3,0,0.4,0C69.2,307.5,70.6,308.8,70.7,310.5z
	 M69.2,297.5c0.6,2.1-0.3,4.2-1.7,4.6c-0.2,0-0.3,0.1-0.5,0.1c-1.3,0-2.5-1.3-3-3.1c-0.3-1-0.2-1.9,0.1-2.8c0.3-0.8,0.8-1.4,1.5-1.6
	c0.2,0,0.3-0.1,0.5-0.1C67.6,294.6,68.6,295.3,69.2,297.5z M79.1,302v-3.9h-2.4v3.9h-3.9v2.5h3.9v3.9h2.4v-3.9H83V302H79.1z"/>
<g>
	<path fill="#FFFFFF" d="M89.6,274.5c0,1.1-0.8,2-2.1,2c-1.2,0-2-0.9-2-2c0-1.1,0.8-2,2.1-2C88.8,272.5,89.6,273.3,89.6,274.5z
		 M85.6,290.5v-12.6h3.8v12.6H85.6z"/>
	<path fill="#FFFFFF" d="M91.8,281.9c0-1.6,0-2.9-0.1-4H95l0.2,1.7h0.1c0.5-0.8,1.7-2,3.8-2c2.5,0,4.4,1.7,4.4,5.4v7.4h-3.8v-7
		c0-1.6-0.6-2.7-1.9-2.7c-1.1,0-1.7,0.7-2,1.5c-0.1,0.3-0.1,0.6-0.1,1v7.2h-3.8L91.8,281.9L91.8,281.9z"/>
</g>
<g>
	<path fill="#FFFFFF" d="M88.2,295.5c0,1.4-1,2.5-2.7,2.5c-1.6,0-2.6-1.1-2.6-2.5c0-1.4,1-2.5,2.6-2.5S88.2,294.1,88.2,295.5z
		 M83.1,316v-16H88v16H83.1z"/>
	<path fill="#FFFFFF" d="M91,305.1c0-2-0.1-3.7-0.1-5.1h4.3l0.2,2.2h0.1c0.6-1.1,2.2-2.6,4.9-2.6c3.2,0,5.7,2.2,5.7,6.9v9.5h-4.9
		v-8.9c0-2.1-0.7-3.5-2.5-3.5c-1.4,0-2.2,1-2.5,1.9c-0.1,0.3-0.2,0.8-0.2,1.2v9.3H91L91,305.1L91,305.1z"/>
</g>
<path fill="#FFFFFF" d="M115.8,280.9c0,0,1.7-0.1,1.7-2.2s-1.4-3.1-3.2-3.1h-5.8v11.5h5.8c0,0,3.5,0.1,3.5-3.4
	C117.9,283.7,118,280.9,115.8,280.9z M111.1,277.7h3.2c0,0,0.8,0,0.8,1.2c0,1.2-0.5,1.4-1,1.4h-3L111.1,277.7L111.1,277.7z
	 M114.1,285.1h-3.1V282h3.2c0,0,1.2,0,1.2,1.6C115.5,284.9,114.6,285.1,114.1,285.1z M122.6,278.6c-4.3,0-4.3,4.4-4.3,4.4
	s-0.3,4.4,4.3,4.4c0,0,3.8,0.2,3.8-3.1h-2c0,0,0.1,1.2-1.8,1.2c0,0-2,0.1-2-2h5.8C126.5,283.5,127.1,278.6,122.6,278.6z M124.3,282
	h-3.7c0,0,0.2-1.8,2-1.8C124.4,280.2,124.3,282,124.3,282z M124.8,276.3h-4.6v1.4h4.6V276.3z"/>
<path fill="#FFFFFF" d="M115.3,303.7c0,0,2.2-0.2,2.2-2.8s-1.8-3.9-4-3.9H106v14.7h7.4c0,0,4.5,0.1,4.5-4.3
	C118,307.4,118.2,303.7,115.3,303.7z M109.3,299.6h4.2c0,0,1,0,1,1.5c0,1.5-0.6,1.8-1.3,1.8h-3.9L109.3,299.6L109.3,299.6z
	 M113.2,309.1h-3.9v-3.9h4.2c0,0,1.5,0,1.5,2C114.9,308.9,113.8,309.1,113.2,309.1z M124,300.7c-5.5,0-5.5,5.6-5.5,5.6
	s-0.4,5.6,5.5,5.6c0,0,4.9,0.3,4.9-3.9h-2.5c0,0,0.1,1.6-2.3,1.6c0,0-2.5,0.2-2.5-2.6h7.4C129,307.1,129.8,300.7,124,300.7z
	 M126.2,305.2h-4.7c0,0,0.3-2.3,2.5-2.3C126.3,302.9,126.2,305.2,126.2,305.2z M126.8,297.9h-5.9v1.8h5.9V297.9z"/>
<path fill="#FFFFFF" d="M139.2,284.4c-0.5,2.5-1.1,4.9-2.8,6.1c-0.5-3.7,0.8-6.6,1.4-9.5c-1-1.7,0.1-5.2,2.3-4.4
	c2.7,1.1-2.3,6.5,1,7.1c3.5,0.7,5-6.1,2.8-8.3c-3.2-3.2-9.2-0.1-8.4,4.5c0.2,1.1,1.3,1.5,0.5,3c-2-0.4-2.6-2-2.5-4.1
	c0.1-3.5,3.1-5.9,6.1-6.2c3.8-0.4,7.4,1.4,7.9,4.9c0.6,4-1.7,8.4-5.8,8C140.6,285.5,140.1,284.9,139.2,284.4z"/>
<path fill="#FFFFFF" d="M138.9,308.2c-0.6,3.2-1.4,6.2-3.5,7.8c-0.7-4.8,1-8.4,1.8-12.2c-1.3-2.2,0.2-6.7,3-5.6
	c3.4,1.4-3,8.2,1.3,9.1c4.5,0.9,6.3-7.8,3.5-10.6c-4-4.1-11.7-0.1-10.8,5.7c0.2,1.4,1.7,1.9,0.6,3.8c-2.6-0.6-3.4-2.6-3.3-5.3
	c0.2-4.4,4-7.5,7.8-7.9c4.9-0.5,9.4,1.8,10.1,6.3c0.7,5.1-2.2,10.7-7.4,10.3C140.6,309.6,140,308.9,138.9,308.2z"/>
<path fill="#FFFFFF" d="M166.6,282.8c-0.7,0-1.3,0.8-1.3,1.8c0,1,0.6,1.8,1.3,1.8c0.7,0,1.3-0.8,1.3-1.8
	C167.9,283.6,167.3,282.8,166.6,282.8z M171,278.1c0.1-0.4,0.2-2.4-0.6-4.4c0,0-1.8,0.2-4.5,2.1c-0.6-0.2-1.5-0.2-2.5-0.2
	c-0.9,0-1.9,0.1-2.5,0.2c-2.7-1.9-4.5-2.1-4.5-2.1c-0.8,2-0.8,4.1-0.6,4.4c-0.9,1-1.5,2.2-1.5,3.9c0,7.2,5.8,7.3,7.3,7.3
	c0.3,0,1,0,1.7,0c0.7,0,1.4,0,1.7,0c1.5,0,7.3-0.1,7.3-7.3C172.5,280.3,171.9,279.1,171,278.1z M163.5,288.4L163.5,288.4
	c-3.7,0-6.6-0.5-6.6-4.1c0-0.9,0.3-1.7,1-2.4c1.2-1.1,3.2-0.5,5.5-0.5c0,0,0,0,0,0c0,0,0,0,0,0c2.3,0,4.3-0.6,5.5,0.5
	c0.7,0.7,1,1.5,1,2.4C170.1,288,167.2,288.4,163.5,288.4z M160.4,282.8c-0.7,0-1.3,0.8-1.3,1.8c0,1,0.6,1.8,1.3,1.8
	c0.7,0,1.3-0.8,1.3-1.8C161.7,283.6,161.1,282.8,160.4,282.8z"/>
<path fill="#FFFFFF" d="M167.5,306.2c-0.9,0-1.6,1-1.6,2.3c0,1.3,0.7,2.3,1.6,2.3c0.9,0,1.6-1,1.6-2.3
	C169.1,307.2,168.4,306.2,167.5,306.2z M173.1,300.2c0.2-0.5,0.2-3.1-0.8-5.7c0,0-2.3,0.3-5.7,2.7c-0.7-0.2-1.9-0.3-3.1-0.3
	s-2.4,0.1-3.1,0.3c-3.4-2.4-5.7-2.7-5.7-2.7c-1,2.5-1,5.2-0.8,5.7c-1.2,1.3-1.9,2.8-1.9,5c0,9.2,7.5,9.4,9.3,9.4c0.4,0,1.3,0,2.2,0
	c0.9,0,1.7,0,2.2,0c1.9,0,9.3-0.1,9.3-9.4C175,303,174.3,301.5,173.1,300.2z M163.5,313.4L163.5,313.4c-4.8,0-8.5-0.6-8.5-5.3
	c0-1.1,0.4-2.2,1.3-3c1.5-1.4,4.1-0.7,7.1-0.7c0,0,0,0,0,0c0,0,0,0,0,0c2.9,0,5.5-0.8,7.1,0.7c0.9,0.9,1.3,1.9,1.3,3
	C171.9,312.8,168.2,313.4,163.5,313.4z M159.5,306.2c-0.9,0-1.6,1-1.6,2.3c0,1.3,0.7,2.3,1.6,2.3c0.9,0,1.6-1,1.6-2.3
	C161.2,307.2,160.4,306.2,159.5,306.2z"/>
<g>
	<g>
		<path fill="#FFFFFF" d="M182.6,301.9c-0.1-0.1-0.3-0.2-0.5-0.2c-0.2,0-0.4,0.1-0.5,0.2l-1.8,1.8c-0.3,0.3-0.3,0.8,0,1.1l6.1,6.1
			c0.1,0.1,0.3,0.2,0.4,0.2c0,0,0.1,0,0.1,0c0,0,0,0,0,0h0c0.2,0,0.4-0.1,0.5-0.2l10.9-10.9c0.3-0.3,0.3-0.8,0-1.1L196,297
			c-0.1-0.1-0.3-0.2-0.5-0.2c-0.2,0-0.4,0.1-0.5,0.2l-8.6,8.6L182.6,301.9z M197.1,302.5l-9.2,9.3c-0.4,0.4-0.9,0.6-1.5,0.6H186
			l-0.1-0.1c-0.4-0.1-0.7-0.3-1-0.6l-6.1-6.1c-0.4-0.4-0.6-0.9-0.6-1.5c0-0.6,0.2-1.1,0.6-1.5l1.8-1.8c0.4-0.4,0.9-0.6,1.5-0.6
			c0.6,0,1.1,0.2,1.5,0.6l2.8,2.8l5.9-6l-4-4c-1.1-1.1-2.8-1.1-3.8,0l-8.8,8.8c-1,1.1-1,2.8,0,3.8l8.8,8.8c1,1.1,2.8,1.1,3.8,0
			l8.8-8.8C198.2,305.4,198.2,303.6,197.1,302.5L197.1,302.5z"/>
	</g>
</g>
<g>
	<g>
		<path fill="#FFFFFF" d="M183.4,279.4c-0.1-0.1-0.3-0.2-0.4-0.2c-0.2,0-0.3,0.1-0.4,0.2l-1.4,1.4c-0.2,0.2-0.2,0.6,0,0.8l4.8,4.8
			c0.1,0.1,0.2,0.2,0.3,0.2c0,0,0,0,0.1,0c0,0,0,0,0,0h0c0.2,0,0.3-0.1,0.4-0.2l8.5-8.6c0.2-0.2,0.2-0.6,0-0.8l-1.4-1.4
			c-0.1-0.1-0.3-0.2-0.4-0.2c-0.2,0-0.3,0.1-0.4,0.2l-6.7,6.7L183.4,279.4z M194.8,280l-7.2,7.2c-0.3,0.3-0.7,0.5-1.2,0.5h-0.3
			l-0.1,0c-0.3-0.1-0.6-0.2-0.8-0.4l-4.8-4.8c-0.3-0.3-0.5-0.7-0.5-1.2c0-0.4,0.2-0.9,0.5-1.2l1.4-1.4c0.3-0.3,0.7-0.5,1.2-0.5
			c0.4,0,0.9,0.2,1.2,0.5l2.2,2.2l4.7-4.7l-3.1-3.1c-0.8-0.8-2.2-0.8-3,0l-6.9,6.9c-0.8,0.8-0.8,2.2,0,3l6.9,6.9
			c0.8,0.8,2.2,0.8,3,0l6.9-6.9C195.7,282.2,195.7,280.8,194.8,280L194.8,280z"/>
	</g>
</g>
<path fill="#FFFFFF" d="M214.9,281.5c0,3-2.4,5.4-5.4,5.4c-3,0-5.4-2.4-5.4-5.4c0-0.4,0-0.7,0.1-1h-3.7v7.2c0,1.6,1.3,2.8,2.8,2.8
	h12.4c1.6,0,2.8-1.3,2.8-2.8v-7.2h-3.7C214.9,280.8,214.9,281.1,214.9,281.5z M215.7,272.5h-12.4c-1.6,0-2.8,1.3-2.8,2.8v3h4.6
	c1-1.4,2.6-2.3,4.4-2.3c1.8,0,3.5,0.9,4.4,2.3h4.6v-3C218.5,273.8,217.2,272.5,215.7,272.5z M217.1,276c0,0.3-0.2,0.5-0.5,0.5h-1.5
	c-0.3,0-0.5-0.2-0.5-0.5v-1.5c0-0.3,0.2-0.5,0.5-0.5h1.5c0.3,0,0.5,0.2,0.5,0.5V276z M212.8,281.5c0-1.8-1.5-3.3-3.3-3.3
	c-1.8,0-3.3,1.5-3.3,3.3s1.5,3.3,3.3,3.3C211.3,284.8,212.8,283.3,212.8,281.5z"/>
<path fill="#FFFFFF" d="M216.5,304.5c0,3.8-3.1,7-7,7c-3.8,0-7-3.1-7-7c0-0.5,0-0.9,0.1-1.3H198v9.2c0,2,1.6,3.6,3.6,3.6h15.8
	c2,0,3.6-1.6,3.6-3.6v-9.2h-4.7C216.4,303.6,216.5,304,216.5,304.5z M217.4,293h-15.8c-2,0-3.6,1.6-3.6,3.6v3.9h5.8
	c1.3-1.8,3.3-2.9,5.7-2.9c2.3,0,4.4,1.2,5.7,2.9h5.8v-3.9C221,294.6,219.4,293,217.4,293z M219.2,297.4c0,0.4-0.3,0.6-0.6,0.6h-1.9
	c-0.4,0-0.6-0.3-0.6-0.6v-1.9c0-0.4,0.3-0.6,0.6-0.6h1.9c0.4,0,0.6,0.3,0.6,0.6V297.4z M213.8,304.5c0-2.4-1.9-4.3-4.3-4.3
	c-2.4,0-4.3,1.9-4.3,4.3s1.9,4.3,4.3,4.3C211.9,308.8,213.8,306.9,213.8,304.5z"/>
<polygon fill="#212121" points="-4,152.5 1,157.5 6,152.5 "/>
<polygon fill="#FFFFFF" points="12,152.5 17,157.5 22,152.5 "/>
<polygon fill="#2D2D2D" points="25,151 33,159 41,151 "/>
<polygon fill="#494849" points="57,159 49,151 41,159 "/>
<path fill="#FFFFFF" d="M47.1,195h20.8c1.2,0,2.1,0.9,2.1,2.1v20.8c0,1.2-0.9,2.1-2.1,2.1H47.1c-1.2,0-2.1-0.9-2.1-2.1v-20.8
	C45,195.9,45.9,195,47.1,195z"/>
<path fill="#FFFFFF" d="M47.1,220h20.8c1.2,0,2.1,0.9,2.1,2.1v20.8c0,1.2-0.9,2.1-2.1,2.1H47.1c-1.2,0-2.1-0.9-2.1-2.1v-20.8
	C45,220.9,45.9,220,47.1,220z"/>
<g>
	<path fill="#2D2D2D" d="M65.5,239l-1.5,1.5L49.5,226l1.5-1.5L65.5,239z"/>
	<path fill="#2D2D2D" d="M51,240.5l-1.5-1.5L64,224.5l1.5,1.5L51,240.5z"/>
</g>
<g id="twitter_1_">
	<path d="M73,150c-0.6,0.3-1.2,0.4-1.9,0.5c0.7-0.4,1.2-1.1,1.4-1.8c-0.6,0.4-1.3,0.7-2.1,0.8c-0.6-0.6-1.5-1.1-2.4-1.1
		c-1.8,0-3.3,1.5-3.3,3.3c0,0.3,0,0.5,0.1,0.8c-2.7-0.1-5.1-1.5-6.8-3.5c-0.3,0.5-0.4,1.1-0.4,1.7c0,1.2,0.6,2.2,1.5,2.8
		c-0.5,0-1-0.2-1.5-0.4c0,0,0,0,0,0c0,1.6,1.1,3,2.6,3.3c-0.3,0.1-0.6,0.1-0.9,0.1c-0.2,0-0.4,0-0.6-0.1c0.4,1.3,1.6,2.3,3.1,2.3
		c-1.1,0.9-2.5,1.4-4.1,1.4c-0.3,0-0.5,0-0.8,0c1.5,0.9,3.2,1.5,5,1.5c6,0,9.3-5.1,9.3-9.5c0-0.1,0-0.3,0-0.4
		C72,151.2,72.6,150.6,73,150"/>
</g>
<g id="facebook_1_">
	<path d="M85.5,149.8h-2.6c-0.3,0-0.6,0.4-0.6,0.9v1.8h3.2v2.6h-3.2v7.8h-3.1v-7.8h-2.8v-2.6h2.8V151c0-2.2,1.6-4,3.7-4h2.6
		L85.5,149.8L85.5,149.8z"/>
</g>
<g id="vine_1_">
	<path d="M104.9,151.2c-0.9,5.3-5.9,9.7-7.4,10.8c-1.5,1-2.9-0.4-3.4-1.5c-0.6-1.2-2.3-7.9-2.7-8.5c-0.4-0.6-1.8,0.6-1.8,0.6
		l-0.6-0.9c0,0,2.7-3.4,4.8-3.8c2.2-0.4,2.2,3.5,2.7,5.7c0.5,2.1,0.9,3.4,1.3,3.4c0.4,0,1.3-1.2,2.2-3c0.9-1.8,0-3.4-1.9-2.3
		C98.9,147,105.8,145.9,104.9,151.2"/>
</g>
<g>
	<g>
		<path d="M110.5,150.6c-0.1-0.2-0.3-0.4-0.6-0.4h-2.2c-0.1,0-0.2,0-0.3,0.1c-0.1,0.1-0.1,0.2,0,0.4l1.5,2.7c0,0,0,0,0,0l-2.4,4.3
			c-0.1,0.1-0.1,0.3,0,0.4c0.1,0.1,0.2,0.2,0.3,0.2h2.2c0.3,0,0.5-0.2,0.6-0.4c0,0,2.3-4.2,2.4-4.4
			C112,153.3,110.5,150.6,110.5,150.6z M119.6,147.5c0.1-0.1,0.1-0.3,0-0.4c-0.1-0.1-0.2-0.1-0.3-0.1H117c-0.3,0-0.5,0.2-0.6,0.4
			c0,0-4.8,8.8-5,9.1c0,0,3.2,6,3.2,6c0.1,0.2,0.3,0.4,0.6,0.4h2.2c0.1,0,0.2-0.1,0.3-0.1c0.1-0.1,0.1-0.2,0-0.4l-3.2-5.9
			c0,0,0,0,0,0L119.6,147.5z"/>
	</g>
</g>
<path d="M136,155.5c0,0.6,0,1.1,0,1.7c-0.6,0-1.2,0-1.7,0c-0.6,2.1-3.1,5.5-5.5,5.8c-4.2-2.1-6.6-7.4-6.7-13.5
	c0.8,0,1.6,0.1,2.4,0.1c-0.1,4.9,1.8,9,4.6,11.1c1.3-0.9,2.8-2.6,3.1-4.4c-2.1-1.1-4.8-6.4-1.7-8.5c4.1-2.7,6.4,2.3,5.2,5.9
	c-0.7,0-1.5,0-2.2,0c0-0.1,0-0.2,0-0.4c0.3-0.9,0.5-3.3-0.2-3.8c-0.6-0.4-1.3-0.2-1.6,0.4C130,152.7,133.3,155.6,136,155.5z"/>
<path d="M137.8,151c0,1.4,0.4,2.3,1.3,2.9c0.7,0.5,1.6,0.5,2,0.5c0.1,0,0.2,0,0.2,0c0,0-0.1,0.9,0.5,1.8h0c-1.1,0-4.9,0.2-4.9,3.4
	c0,3.2,3.4,3.4,4.1,3.4c0.1,0,0.1,0,0.1,0c0,0,0.1,0,0.1,0c0.4,0,1.6-0.1,2.7-0.6c1.4-0.7,2.1-1.9,2.1-3.5c0-1.6-1.1-2.6-1.8-3.3
	c-0.5-0.4-0.9-0.8-0.9-1.1c0-0.4,0.3-0.6,0.7-1c0.6-0.6,1.2-1.4,1.2-2.9c0-1.3-0.2-2.2-1.2-2.8c0.1-0.1,0.5-0.1,0.7-0.1
	c0.6-0.1,1.4-0.2,1.4-0.6V147H142C142,147,137.8,147.2,137.8,151z M144.5,159.2c0.1,1.3-1,2.2-2.6,2.3c-1.6,0.1-3-0.6-3.1-1.9
	c0-0.6,0.2-1.2,0.7-1.7c0.5-0.5,1.2-0.8,2-0.8c0.1,0,0.2,0,0.3,0C143.4,157.1,144.4,158,144.5,159.2z M143.4,150.1
	c0.4,1.4-0.2,3-1.2,3.2c-0.1,0-0.2,0-0.3,0c-0.9,0-1.8-0.9-2.1-2.2c-0.2-0.7-0.2-1.3,0-1.9c0.2-0.6,0.6-1,1-1.1c0.1,0,0.2,0,0.3,0
	C142.3,148.1,143,148.6,143.4,150.1z M150.3,153.3v-2.7h-1.7v2.7h-2.7v1.7h2.7v2.7h1.7V155h2.7v-1.7H150.3z"/>
<g>
	<path d="M156.6,148.7c0,1-0.7,1.7-1.8,1.7c-1.1,0-1.8-0.8-1.8-1.7c0-1,0.7-1.7,1.8-1.7C155.9,147,156.6,147.8,156.6,148.7z
		 M153.1,163v-11.2h3.4V163H153.1z"/>
	<path d="M158.6,155.4c0-1.4,0-2.6-0.1-3.6h3l0.2,1.6h0.1c0.4-0.7,1.6-1.8,3.4-1.8c2.2,0,3.9,1.5,3.9,4.8v6.6h-3.4v-6.2
		c0-1.4-0.5-2.4-1.7-2.4c-0.9,0-1.5,0.7-1.8,1.3c-0.1,0.2-0.1,0.5-0.1,0.9v6.4h-3.4L158.6,155.4L158.6,155.4z"/>
</g>
<path d="M175.5,154.4c0,0,1.5-0.1,1.5-1.9c0-1.8-1.2-2.7-2.8-2.7H169V160h5.2c0,0,3.1,0.1,3.1-3C177.3,157,177.5,154.4,175.5,154.4z
	 M171.3,151.6h2.9c0,0,0.7,0,0.7,1.1c0,1.1-0.4,1.2-0.9,1.2h-2.7V151.6L171.3,151.6z M174,158.2h-2.7v-2.7h2.9c0,0,1,0,1,1.4
	C175.2,158.1,174.4,158.2,174,158.2z M181.5,152.4c-3.8,0-3.8,3.9-3.8,3.9s-0.3,3.9,3.8,3.9c0,0,3.4,0.2,3.4-2.7h-1.7
	c0,0,0.1,1.1-1.6,1.1c0,0-1.7,0.1-1.7-1.8h5.1C185,156.8,185.5,152.4,181.5,152.4z M183.1,155.5h-3.3c0,0,0.2-1.6,1.7-1.6
	C183.1,153.9,183.1,155.5,183.1,155.5z M183.5,150.4h-4.1v1.3h4.1V150.4z"/>
<path d="M191.9,157.6c-0.4,2.2-0.9,4.3-2.5,5.4c-0.5-3.3,0.7-5.8,1.2-8.5c-0.9-1.5,0.1-4.6,2.1-3.9c2.4,0.9-2.1,5.7,0.9,6.3
	c3.1,0.6,4.4-5.4,2.5-7.4c-2.8-2.8-8.2-0.1-7.5,4c0.2,1,1.2,1.3,0.4,2.7c-1.8-0.4-2.3-1.8-2.3-3.7c0.1-3.1,2.8-5.2,5.4-5.5
	c3.4-0.4,6.6,1.2,7,4.4c0.5,3.6-1.5,7.4-5.1,7.2C193.1,158.5,192.7,158,191.9,157.6z"/>
<path d="M211.8,156.2c-0.6,0-1.1,0.7-1.1,1.6c0,0.9,0.5,1.6,1.1,1.6c0.6,0,1.1-0.7,1.1-1.6S212.4,156.2,211.8,156.2z M215.7,152
	c0.1-0.3,0.1-2.2-0.6-3.9c0,0-1.6,0.2-4,1.9c-0.5-0.1-1.3-0.2-2.2-0.2c-0.8,0-1.7,0.1-2.2,0.2c-2.4-1.7-4-1.9-4-1.9
	c-0.7,1.8-0.7,3.6-0.6,3.9c-0.8,0.9-1.3,2-1.3,3.5c0,6.4,5.2,6.5,6.5,6.5c0.3,0,0.9,0,1.5,0c0.6,0,1.2,0,1.5,0
	c1.3,0,6.5-0.1,6.5-6.5C217,154,216.5,152.9,215.7,152z M209,161.2L209,161.2c-3.3,0-5.9-0.4-5.9-3.7c0-0.8,0.3-1.5,0.9-2.1
	c1.1-1,2.9-0.5,4.9-0.5c0,0,0,0,0,0c0,0,0,0,0,0c2.1,0,3.9-0.5,4.9,0.5c0.6,0.6,0.9,1.3,0.9,2.1C214.9,160.8,212.3,161.2,209,161.2z
	 M206.2,156.2c-0.6,0-1.1,0.7-1.1,1.6c0,0.9,0.5,1.6,1.1,1.6c0.6,0,1.1-0.7,1.1-1.6C207.4,156.9,206.9,156.2,206.2,156.2z"/>
<g>
	<g>
		<path d="M222.3,153.2c-0.1-0.1-0.2-0.2-0.4-0.2c-0.1,0-0.3,0.1-0.4,0.2l-1.2,1.3c-0.2,0.2-0.2,0.5,0,0.7l4.2,4.2
			c0.1,0.1,0.2,0.1,0.3,0.2c0,0,0,0,0.1,0c0,0,0,0,0,0h0c0.1,0,0.3-0.1,0.4-0.2l7.6-7.6c0.2-0.2,0.2-0.5,0-0.7l-1.2-1.3
			c-0.1-0.1-0.2-0.2-0.4-0.2c-0.1,0-0.3,0.1-0.4,0.2l-6,6L222.3,153.2z M232.4,153.6l-6.4,6.4c-0.3,0.3-0.6,0.4-1,0.4h-0.3l-0.1,0
			c-0.3-0.1-0.5-0.2-0.7-0.4l-4.2-4.2c-0.3-0.3-0.4-0.6-0.4-1c0-0.4,0.2-0.8,0.4-1l1.3-1.3c0.3-0.3,0.6-0.4,1-0.4
			c0.4,0,0.8,0.2,1,0.4l1.9,2l4.1-4.2l-2.8-2.8c-0.7-0.7-1.9-0.7-2.7,0l-6.1,6.1c-0.7,0.7-0.7,1.9,0,2.7l6.1,6.1
			c0.7,0.7,1.9,0.7,2.7,0l6.1-6.1C233.1,155.6,233.1,154.4,232.4,153.6L232.4,153.6z"/>
	</g>
</g>
<path d="M245.8,155c0,2.7-2.2,4.8-4.8,4.8s-4.8-2.2-4.8-4.8c0-0.3,0-0.6,0.1-0.9H233v6.4c0,1.4,1.1,2.5,2.5,2.5h11
	c1.4,0,2.5-1.1,2.5-2.5v-6.4h-3.3C245.8,154.4,245.8,154.7,245.8,155z M246.5,147h-11c-1.4,0-2.5,1.1-2.5,2.5v2.7h4
	c0.9-1.2,2.3-2,4-2c1.6,0,3.1,0.8,3.9,2h4.1v-2.7C249,148.1,247.9,147,246.5,147z M247.7,150.1c0,0.2-0.2,0.4-0.4,0.4h-1.3
	c-0.2,0-0.4-0.2-0.4-0.4v-1.3c0-0.2,0.2-0.4,0.4-0.4h1.3c0.2,0,0.4,0.2,0.4,0.4V150.1z M244,155c0-1.6-1.3-3-3-3c-1.6,0-3,1.3-3,3
	s1.3,3,3,3C242.6,158,244,156.6,244,155z"/>
<g>
	<g>
		<path d="M257,147c-4.4,0-8,3.6-8,8s3.6,8,8,8c4.4,0,8-3.6,8-8C265,150.6,261.4,147,257,147z M257,161.3c-3.5,0-6.3-2.8-6.3-6.3
			s2.8-6.3,6.3-6.3s6.3,2.8,6.3,6.3C263.3,158.5,260.5,161.3,257,161.3z M257.6,150.5h-1.2v4.8l3,3l0.9-0.9l-2.6-2.6L257.6,150.5
			L257.6,150.5z"/>
	</g>
</g>
<g id="twitter_2_">
	<path fill="#2D2D2D" d="M244,274.2c-0.8,0.4-1.8,0.6-2.7,0.8c1-0.6,1.7-1.5,2.1-2.7c-0.9,0.6-1.9,0.9-3,1.2
		c-0.9-0.9-2.1-1.5-3.4-1.5c-2.6,0-4.7,2.1-4.7,4.8c0,0.4,0,0.7,0.1,1.1c-3.9-0.2-7.4-2.1-9.7-5c-0.4,0.7-0.6,1.5-0.6,2.4
		c0,1.7,0.8,3.1,2.1,4c-0.8,0-1.5-0.2-2.1-0.6c0,0,0,0,0,0.1c0,2.3,1.6,4.3,3.8,4.7c-0.4,0.1-0.8,0.2-1.2,0.2c-0.3,0-0.6,0-0.9-0.1
		c0.6,1.9,2.3,3.3,4.4,3.3c-1.6,1.3-3.6,2.1-5.9,2.1c-0.4,0-0.8,0-1.1-0.1c2.1,1.4,4.6,2.2,7.2,2.2c8.7,0,13.4-7.3,13.4-13.6
		c0-0.2,0-0.4,0-0.6C242.6,276.1,243.4,275.2,244,274.2"/>
</g>
<g id="facebook_2_">
	<path fill="#2D2D2D" d="M262,274h-3.7c-0.4,0-0.9,0.6-0.9,1.3v2.6h4.6v3.8h-4.6V293H253v-11.3h-4V278h4v-2.2c0-3.2,2.2-5.8,5.3-5.8
		h3.7V274z"/>
</g>
<path fill="#2D2D2D" d="M268.2,275.7c0,2,0.6,3.4,1.9,4.2c1,0.7,2.2,0.8,2.9,0.8c0.2,0,0.3,0,0.4,0c0,0-0.2,1.3,0.8,2.6l0,0
	c-1.7,0-7.1,0.4-7.1,4.9c0,4.6,5,4.8,5.9,4.8c0.1,0,0.1,0,0.1,0c0,0,0.1,0,0.2,0c0.6,0,2.3-0.1,3.8-0.8c2-1,3-2.7,3-5.1
	c0-2.3-1.5-3.7-2.7-4.7c-0.7-0.6-1.3-1.1-1.3-1.7c0-0.5,0.4-0.9,1-1.4c0.9-0.8,1.7-2,1.7-4.1c0-1.9-0.2-3.2-1.7-4
	c0.2-0.1,0.7-0.1,1-0.2c0.8-0.1,2-0.2,2-0.9V270h-5.9C274.1,270,268.2,270.2,268.2,275.7z M277.7,287.5c0.1,1.8-1.4,3.2-3.7,3.4
	c-2.4,0.2-4.3-0.9-4.4-2.7c-0.1-0.9,0.3-1.7,1.1-2.4c0.8-0.7,1.8-1.1,2.9-1.2c0.1,0,0.3,0,0.4,0
	C276.2,284.5,277.6,285.8,277.7,287.5z M276.2,274.5c0.6,2.1-0.3,4.2-1.7,4.6c-0.2,0-0.3,0.1-0.5,0.1c-1.3,0-2.5-1.3-3-3.1
	c-0.3-1-0.2-1.9,0.1-2.8c0.3-0.8,0.8-1.4,1.5-1.6c0.2,0,0.3-0.1,0.5-0.1C274.6,271.6,275.6,272.3,276.2,274.5z M286.1,279v-3.9h-2.4
	v3.9h-3.9v2.5h3.9v3.9h2.4v-3.9h3.9V279H286.1z"/>
<g>
	<path fill="#2D2D2D" d="M226.2,295.5c0,1.4-1,2.5-2.7,2.5c-1.6,0-2.6-1.1-2.6-2.5c0-1.4,1-2.5,2.6-2.5S226.2,294.1,226.2,295.5z
		 M221.1,316v-16h4.9v16H221.1z"/>
	<path fill="#2D2D2D" d="M229,305.1c0-2-0.1-3.7-0.1-5.1h4.3l0.2,2.2h0.1c0.6-1.1,2.2-2.6,4.9-2.6c3.2,0,5.7,2.2,5.7,6.9v9.5h-4.9
		v-8.9c0-2.1-0.7-3.5-2.5-3.5c-1.4,0-2.2,1-2.5,1.9c-0.1,0.3-0.2,0.8-0.2,1.2v9.3H229L229,305.1L229,305.1z"/>
</g>
<g>
	<g>
		<path fill="#2D2D2D" d="M251.8,298.2c-0.2-0.3-0.4-0.6-0.9-0.6h-3.2c-0.2,0-0.4,0.1-0.4,0.2c-0.1,0.1-0.1,0.3,0,0.5l2.2,3.9
			c0,0,0,0,0,0l-3.4,6.2c-0.1,0.2-0.1,0.4,0,0.5c0.1,0.1,0.2,0.2,0.4,0.2h3.2c0.5,0,0.7-0.3,0.9-0.6c0,0,3.3-6.1,3.5-6.3
			C254,302.1,251.8,298.2,251.8,298.2z M264.9,293.7c0.1-0.2,0.1-0.4,0-0.5c-0.1-0.1-0.2-0.2-0.4-0.2h-3.3c-0.5,0-0.7,0.3-0.9,0.6
			c0,0-6.9,12.7-7.2,13.1c0,0,4.6,8.6,4.6,8.6c0.2,0.3,0.4,0.6,0.9,0.6h3.2c0.2,0,0.3-0.1,0.4-0.2c0.1-0.1,0.1-0.3,0-0.5l-4.5-8.5
			c0,0,0,0,0,0L264.9,293.7z"/>
	</g>
</g>
<path fill="#2D2D2D" d="M288.5,305.2c0,0.8,0,1.6,0,2.5c-0.8,0-1.7,0-2.5,0c-0.9,3-4.4,8-7.9,8.3c-6-3.1-9.5-10.6-9.6-19.4
	c1.1,0.1,2.3,0.1,3.4,0.2c-0.2,7.1,2.5,12.9,6.6,15.9c1.8-1.3,4.1-3.7,4.5-6.4c-3.1-1.6-7-9.2-2.5-12.2c5.8-3.9,9.2,3.3,7.5,8.5
	c-1.1,0-2.1,0-3.2,0c0-0.2,0-0.4,0-0.5c0.5-1.3,0.8-4.7-0.4-5.5c-0.9-0.5-1.8-0.3-2.3,0.5C279.9,301.2,284.7,305.3,288.5,305.2z"/>
<path fill="#AAAAAA" d="M-19.6,249c-0.6-0.6-1.7-0.6-2.4,0c-0.6,0.7-0.7,1.6,0,2.5l5.5,6.1l-5.5,6c-0.7,0.9-0.6,1.8,0,2.5
	c0.6,0.7,1.8,0.6,2.4,0c0.6-0.7,6.7-7.3,6.7-7.3c0.3-0.3,0.5-0.7,0.5-1.2c0-0.5-0.2-0.9-0.5-1.2C-13,256.3-19,249.6-19.6,249z"/>
<path fill="#FFFFFF" d="M5.4,249c-0.6-0.6-1.7-0.6-2.4,0c-0.6,0.7-0.7,1.6,0,2.5l5.5,6.1l-5.5,6c-0.7,0.9-0.6,1.8,0,2.5
	c0.6,0.7,1.8,0.6,2.4,0c0.6-0.7,6.7-7.3,6.7-7.3c0.3-0.3,0.5-0.7,0.5-1.2c0-0.5-0.2-0.9-0.5-1.2C12,256.3,6,249.6,5.4,249z"/>
<g>
	<path fill="#FFFFFF" d="M-40.6,325.6l-2.4-2.4c-0.7-0.7-1.7-0.7-2.4,0c-0.7,0.7-0.7,1.7,0,2.4l2.4,2.4c0.7,0.7,1.7,0.7,2.4,0
		C-40,327.3-40,326.3-40.6,325.6"/>
	<path fill="#FFFFFF" d="M-49.4,340.1h-3.4c-0.9,0-1.7,0.8-1.7,1.7c0,0.9,0.8,1.7,1.7,1.7h3.4c0.9,0,1.7-0.8,1.7-1.7
		S-48.5,340.1-49.4,340.1"/>
	<path fill="#FFFFFF" d="M-2.2,343.5h-3.4c-0.9,0-1.7,0.8-1.7,1.7c0,0.9,0.8,1.7,1.7,1.7h3.4c0.9,0,1.7-0.8,1.7-1.7
		C-0.5,344.2-1.3,343.5-2.2,343.5"/>
	<path fill="#FFFFFF" d="M-7.2,325.6c-0.7-0.7-1.7-0.7-2.4,0L-12,328c-0.7,0.7-0.7,1.7,0,2.4c0.7,0.7,1.7,0.7,2.4,0l2.4-2.4
		C-6.6,327.3-6.6,326.3-7.2,325.6"/>
	<path fill="#FFFFFF" d="M-25.8,323.3c0.5,0,0.9-0.2,1.2-0.5c0.3-0.3,0.5-0.7,0.5-1.2v-3.4c0-0.9-0.8-1.7-1.7-1.7
		c-0.7,0-1.3,0.4-1.6,1l-0.1,0.7l0,3.4C-27.5,322.5-26.7,323.3-25.8,323.3"/>
	<path fill="#FFFFFF" d="M-27.5,330c-7.5,0-13.5,6-13.5,13.5c0,5,2.7,9.3,6.8,11.6v5.2h13.5v-5.2c4-2.3,6.7-6.6,6.7-11.6
		C-14,336-20.1,330-27.5,330 M-22.5,352.2l-1.7,1v1.9v1.9h-6.8v-1.9v-1.9l-1.7-1c-3.2-1.9-5.1-5.1-5.1-8.7c0-5.6,4.5-10.1,10.1-10.1
		c5.6,0,10.1,4.5,10.1,10.1C-17.4,347.1-19.3,350.4-22.5,352.2"/>
	<path fill="#FFFFFF" d="M-34.3,367.1h3.5l-0.1,0.4c0,1.6,1.5,3,3.4,3c1.9,0,3.4-1.3,3.4-3l-0.1-0.4h3.5v-3.4h-13.5V367.1z"/>
</g>
<g>
	<path fill="#FFFFFF" d="M50,332.6V324h-8.4v2.9H13.4V324H5v8.6h2.8v22.9H5v8.6h8.4v-2.9h28.1v2.9H50v-8.6h-2.8v-22.9L50,332.6
		L50,332.6z M44.4,326.9h2.8v2.9h-2.8V326.9z M7.8,326.9h2.8v2.9H7.8V326.9z M7.8,358.3h2.8v2.9H7.8V358.3z M47.2,361.1h-2.8v-2.9
		h2.8V361.1z M44.4,355.4h-2.8v2.9H13.4v-2.9h-2.8v-22.9h2.8v-2.9h28.1v2.9h2.8V355.4z"/>
</g>
<g>
	<path fill="#FFFFFF" d="M-1.6,394.6l-12.2,4.9V394c0-1.9-1.5-3.5-3.4-3.5h-34.4c-1.9,0-3.4,1.6-3.4,3.5v21c0,1.9,1.5,3.5,3.4,3.5
		h34.4c1.9,0,3.4-1.6,3.4-3.5v-5.6l12.2,4.9c0.9,0.4,1.6-0.1,1.6-1.1v-17.5C0,394.8-0.7,394.3-1.6,394.6 M-27.5,411.5h-3.4V408h3.4
		V411.5z M-20.6,411.5h-3.4V408h3.4V411.5z M-20.6,401h-27.5v-3.5h27.5L-20.6,401L-20.6,401z M-27.5,385v2.1h6.9v-4.9l-5.5-5.6
		h-25.5v7h22.6L-27.5,385z"/>
</g>
<g>
	<path fill="#FFFFFF" d="M19.8,383.1c0-2.8-2.3-5.1-5.1-5.1c-2.8,0-5.1,2.3-5.1,5.1c0,2.8,2.3,5.1,5.1,5.1
		C17.5,388.2,19.8,386,19.8,383.1 M45.4,383.1c0-2.8-2.3-5.1-5.1-5.1c-2.8,0-5.1,2.3-5.1,5.1c0,2.8,2.3,5.1,5.1,5.1
		C43.1,388.2,45.4,386,45.4,383.1 M32.6,408.7c0-2.8-2.3-5.1-5.1-5.1s-5.1,2.3-5.1,5.1c0,2.8,2.3,5.1,5.1,5.1S32.6,411.6,32.6,408.7
		 M13.9,395.9l-1.8,1.8l7.2,7.2l1.8-1.8L13.9,395.9z M33.8,403.2l1.8,1.8l7.2-7.2l-1.8-1.8L33.8,403.2z M22.4,393.4
		c0-2.8-3.4-5.1-7.7-5.1c-4.2,0-7.7,2.3-7.7,5.1H22.4z M40.3,388.2c-4.2,0-7.7,2.3-7.7,5.1H48C48,390.5,44.6,388.2,40.3,388.2
		 M27.5,413.9c-4.2,0-7.7,2.3-7.7,5.1v0h15.4v0C35.2,416.2,31.7,413.9,27.5,413.9"/>
</g>
<g>
	<path fill="#FFFFFF" d="M63,352l19.5,10v-12.8l-19.5-10V352z M84.9,361.8L102,353v-13.8l-17.1,9.7L84.9,361.8z M97.1,334.5v0.6h0
		c-0.1,0.9-2.2,1.6-4.9,1.6c-2.6,0-4.8-0.7-4.9-1.6h0v-3.4v-0.1h0l0,0.1c0,0.9,2.2,1.7,4.9,1.7s4.9-0.7,4.9-1.7
		c0-0.9-2.2-1.7-4.9-1.7c-1.5,0-2.9,0.2-3.7,0.6l-1.2-0.5c-0.1,0.9-2.2,1.6-4.8,1.6c-2.6,0-4.7-0.7-4.8-1.6l-1.2,0.5
		c-0.9-0.4-2.2-0.6-3.7-0.6c-2.7,0-4.9,0.7-4.9,1.7c0,0.9,2.2,1.7,4.9,1.7c2.7,0,4.9-0.7,4.9-1.7l0-0.1h0v0.1v3.4h0
		c-0.1,0.9-2.2,1.6-4.9,1.6c-2.6,0-4.8-0.7-4.9-1.6h0v-0.6l-4.9,2.2l19.5,10l19.5-10L97.1,334.5z M87.4,336.9v3.4h0
		c-0.1,0.9-2.2,1.6-4.9,1.6s-4.8-0.7-4.9-1.6h0v-3.4v-0.1h0l0,0.1c0,0.9,2.2,1.7,4.9,1.7C85.2,338.6,87.4,337.8,87.4,336.9l0-0.1h0
		V336.9z M82.5,328.3c2.7,0,4.9-0.7,4.9-1.7c0-0.9-2.2-1.7-4.9-1.7c-2.7,0-4.9,0.7-4.9,1.7C77.6,327.6,79.8,328.3,82.5,328.3"/>
</g>
<g>
	<path fill="#FFFFFF" d="M171,322l5.4,37.6l16.1,5.4l16.1-5.4L214,322H171z M205.4,332.7h-18.7l0.4,5.4h17.7l-1.6,16.1l-10.8,2.7
		l-10.8-2.7l-0.8-8.1h6.2l0.6,4l4.8,1.3l5.4-1.3l0.7-6.7h-17.9l-1.6-16.1h26.9L205.4,332.7z"/>
</g>
<g>
	<path fill="#FFFFFF" d="M59,401.4V422h20.6v-11.7l-8.8-8.8L59,401.4L59,401.4z M76.6,411.5v7.6H61.9v-14.7h7.6l1.2,1.2v4.7h4.7
		L76.6,411.5z M59,375v20.6h20.6v-11.8l-8.8-8.8H59z M76.6,385v7.6H61.9v-14.7h7.6l1.2,1.2v4.7h4.7L76.6,385z M97.2,375H85.4v20.6
		H106v-11.8L97.2,375z M103.1,392.6H88.4v-14.7H96l1.2,1.2v4.7h4.7l1.2,1.2L103.1,392.6L103.1,392.6z M85.4,401.4V422H106v-11.7
		l-8.8-8.8L85.4,401.4L85.4,401.4z M103.1,411.5v7.6H88.4v-14.7H96l1.2,1.2v4.7h4.7L103.1,411.5z"/>
</g>
<g>
	<path fill="#FFFFFF" d="M125.8,380.9h-5.9v5.9h5.9V380.9z M131.6,375H114v17.6h17.6V375z M128.7,389.7h-11.8v-11.8h11.8V389.7z
		 M155.1,380.9h-5.9v5.9h5.9V380.9z M143.4,392.6H161V375h-17.6V392.6z M158.1,389.7h-11.7v-11.8h11.7V389.7z M119.9,416.1h5.9v-5.9
		h-5.9V416.1z M114,422h17.6v-17.6H114V422z M116.9,407.3h11.8v11.8h-11.8V407.3z M134.6,407.3v2.9h2.9v5.9h2.9v-11.8h-2.9v2.9
		L134.6,407.3L134.6,407.3z M155.1,404.4h-2.9v2.9h2.9v5.9h-2.9v-5.9h-5.9v-5.9h2.9v2.9h2.9v-2.9h2.9v-2.9h-2.9v-2.9h-2.9v2.9h-2.9
		v-2.9h-5.9v-5.9h-2.9v2.9h-2.9v2.9h2.9v5.9h5.9v14.7h2.9v2.9h-2.9v2.9h5.9v-2.9h2.9v-2.9h2.9v2.9h-2.6v2.9h8.4v-5.9h-2.9v-5.9h2.9
		v-2.9h-2.9v-5.9h-2.9L155.1,404.4L155.1,404.4z M149.2,413.2h-2.9v-2.9h2.9V413.2z M140.4,383.8V375h-5.9v2.9h2.9v2.9h-2.9v8.8h2.9
		v-5.9H140.4z M122.8,398.5h2.9v-2.9h-2.9V398.5z M128.7,398.5h-2.9v2.9h5.9v-2.9h2.9v-2.9h-5.9V398.5L128.7,398.5z M155.1,398.5
		h2.9v2.9h2.9v-5.9h-5.9V398.5z M134.6,404.4h2.9v-2.9h-2.9V404.4z M134.6,419.1h2.9v-2.9h-2.9V419.1z M140.4,419.1h-2.9v2.9h2.9
		V419.1z M119.9,395.6H114v5.9h8.8v-2.9h-2.9L119.9,395.6L119.9,395.6z"/>
</g>
<g>
	<polygon fill="#FFFFFF" points="205.4,401.3 201,390.1 198.2,390.1 193.6,406.9 189.7,376 186.9,376 177.3,402.5 170,406.9 
		181.3,406.9 187.4,384.4 189.7,421 195.3,421 200,395.5 203.8,406.9 215,401.3 	"/>
</g>
<path fill="#212121" d="M302.5,316c15.2,0,27.5,12.3,27.5,27.5S317.7,371,302.5,371c-15.2,0-27.5-12.3-27.5-27.5
	S287.3,316,302.5,316z"/>
<path fill="#FFFFFF" d="M301.7,333.1c-0.8-0.8-2.2-0.8-3,0c-0.8,0.8-0.9,2,0,3l7,7.4l-7,7.4c-0.9,1.1-0.8,2.2,0,3
	c0.8,0.8,2.3,0.8,3,0c0.8-0.8,8.5-8.9,8.5-8.9c0.4-0.4,0.6-0.9,0.6-1.4c0-0.6-0.2-1.1-0.6-1.5C310.3,342,302.6,333.9,301.7,333.1z"
	/>
<path fill="#212121" d="M302.5,426c-15.2,0-27.5-12.3-27.5-27.5s12.3-27.5,27.5-27.5s27.5,12.3,27.5,27.5
	C330,413.7,317.7,426,302.5,426z"/>
<path fill="#FFFFFF" d="M303.3,408.9c0.8,0.8,2.2,0.8,3,0c0.8-0.8,0.9-2,0-3l-7-7.4l7-7.4c0.9-1.1,0.8-2.2,0-3c-0.8-0.8-2.3-0.8-3,0
	c-0.8,0.8-8.5,8.9-8.5,8.9c-0.4,0.4-0.6,0.9-0.6,1.4c0,0.6,0.2,1.1,0.6,1.5C294.7,400,302.4,408.1,303.3,408.9z"/>
<path d="M81,179.3l-16-13.8v9H49l0,9h16v9L81,179.3z"/>
<path d="M81,178.7l16,13.8v-9h16l0-9H97v-9L81,178.7z"/>
<path d="M129.3,163l-13.8,16h9v16l9,0v-16h9L129.3,163z"/>
<path d="M160.7,195l13.8-16h-9v-16l-9,0v16h-9L160.7,195z"/>
<g>
	<g>
		<path fill="#FFFFFF" d="M264.9,395.1c-2.8-1.5-8.1-1.7-11.8-1.6c0.3-3.2,1.3-7.2-0.3-10c-1.2-2.1-5.2-4.9-5.2-2.5
			c0,2.3-1.7,12.3-7.8,13.6l-1.3,0.1v17.2c0,0,3.5,5.1,11.3,5.1c7.8,0,9.3,0.6,11.9-4.3C264.3,407.8,267.9,396.6,264.9,395.1z
			 M233.8,394.7H229v22.1h4.8c1.3,0,2.4-1.1,2.4-2.5v-17.2C236.1,395.8,235.1,394.7,233.8,394.7z M233.8,414.3h-2.4v-2.5h2.4V414.3z
			"/>
	</g>
</g>
<g>
	<path fill="#2D2D2D" d="M-49,432l5.4,37.6l16.1,5.4l16.1-5.4L-6,432H-49z M-14.6,442.7h-18.7l0.4,5.4h17.7l-1.6,16.1l-10.8,2.7
		l-10.8-2.7l-0.8-8.1h6.2l0.6,4l4.8,1.3l5.4-1.3l0.7-6.7h-17.9l-1.6-16.1h26.9L-14.6,442.7z"/>
</g>
<g>
	<path fill="#2D2D2D" d="M19.8,438.1c0-2.8-2.3-5.1-5.1-5.1c-2.8,0-5.1,2.3-5.1,5.1c0,2.8,2.3,5.1,5.1,5.1
		C17.5,443.2,19.8,441,19.8,438.1 M45.4,438.1c0-2.8-2.3-5.1-5.1-5.1s-5.1,2.3-5.1,5.1c0,2.8,2.3,5.1,5.1,5.1S45.4,441,45.4,438.1
		 M32.6,463.7c0-2.8-2.3-5.1-5.1-5.1c-2.8,0-5.1,2.3-5.1,5.1c0,2.8,2.3,5.1,5.1,5.1C30.3,468.9,32.6,466.6,32.6,463.7 M13.9,450.9
		l-1.8,1.8l7.2,7.2l1.8-1.8L13.9,450.9z M33.8,458.2l1.8,1.8l7.2-7.2l-1.8-1.8L33.8,458.2z M22.4,448.4c0-2.8-3.4-5.1-7.7-5.1
		c-4.2,0-7.7,2.3-7.7,5.1H22.4z M40.3,443.2c-4.2,0-7.7,2.3-7.7,5.1H48C48,445.5,44.6,443.2,40.3,443.2 M27.5,468.9
		c-4.2,0-7.7,2.3-7.7,5.1v0h15.4v0C35.2,471.2,31.7,468.9,27.5,468.9"/>
</g>
<g>
	<g>
		<path fill="#2D2D2D" d="M99.9,450.1c-2.8-1.5-8.1-1.7-11.8-1.6c0.3-3.2,1.3-7.2-0.3-10c-1.2-2.1-5.2-4.9-5.2-2.5
			c0,2.3-1.7,12.3-7.8,13.6l-1.3,0.1v17.2c0,0,3.5,5.1,11.3,5.1c7.8,0,9.3,0.6,11.9-4.3C99.3,462.8,102.9,451.6,99.9,450.1z
			 M68.8,449.7H64v22.1h4.8c1.3,0,2.4-1.1,2.4-2.5v-17.2C71.1,450.8,70.1,449.7,68.8,449.7z M68.8,469.3h-2.4v-2.5h2.4V469.3z"/>
	</g>
</g>
<g>
	<path fill="#2D2D2D" d="M-40.6,490.6l-2.4-2.4c-0.7-0.7-1.7-0.7-2.4,0c-0.7,0.7-0.7,1.7,0,2.4l2.4,2.4c0.7,0.7,1.7,0.7,2.4,0
		C-40,492.3-40,491.3-40.6,490.6"/>
	<path fill="#2D2D2D" d="M-49.4,505.1h-3.4c-0.9,0-1.7,0.8-1.7,1.7s0.8,1.7,1.7,1.7h3.4c0.9,0,1.7-0.8,1.7-1.7
		S-48.5,505.1-49.4,505.1"/>
	<path fill="#2D2D2D" d="M-2.2,508.5h-3.4c-0.9,0-1.7,0.8-1.7,1.7c0,0.9,0.8,1.7,1.7,1.7h3.4c0.9,0,1.7-0.8,1.7-1.7
		C-0.5,509.2-1.3,508.5-2.2,508.5"/>
	<path fill="#2D2D2D" d="M-7.2,490.6c-0.7-0.7-1.7-0.7-2.4,0L-12,493c-0.7,0.7-0.7,1.7,0,2.4c0.7,0.7,1.7,0.7,2.4,0l2.4-2.4
		C-6.6,492.3-6.6,491.3-7.2,490.6"/>
	<path fill="#2D2D2D" d="M-25.8,488.3c0.5,0,0.9-0.2,1.2-0.5c0.3-0.3,0.5-0.7,0.5-1.2v-3.4c0-0.9-0.8-1.7-1.7-1.7
		c-0.7,0-1.3,0.4-1.6,1l-0.1,0.7l0,3.4C-27.5,487.5-26.7,488.3-25.8,488.3"/>
	<path fill="#2D2D2D" d="M-27.5,495c-7.5,0-13.5,6-13.5,13.5c0,5,2.7,9.3,6.8,11.6v5.2h13.5v-5.2c4-2.3,6.7-6.6,6.7-11.6
		C-14,501-20.1,495-27.5,495 M-22.5,517.2l-1.7,1v1.9v1.9h-6.8v-1.9v-1.9l-1.7-1c-3.2-1.9-5.1-5.1-5.1-8.7c0-5.6,4.5-10.1,10.1-10.1
		c5.6,0,10.1,4.5,10.1,10.1C-17.4,512.1-19.3,515.4-22.5,517.2"/>
	<path fill="#2D2D2D" d="M-34.3,532.1h3.5l-0.1,0.4c0,1.6,1.5,3,3.4,3c1.9,0,3.4-1.3,3.4-3l-0.1-0.4h3.5v-3.4h-13.5V532.1z"/>
</g>
<g>
	<path fill="#2D2D2D" d="M50,497.6V489h-8.4v2.9H13.4V489H5v8.6h2.8v22.9H5v8.6h8.4v-2.9h28.1v2.9H50v-8.6h-2.8v-22.9L50,497.6
		L50,497.6z M44.4,491.9h2.8v2.9h-2.8V491.9z M7.8,491.9h2.8v2.9H7.8V491.9z M7.8,523.3h2.8v2.9H7.8V523.3z M47.2,526.1h-2.8v-2.9
		h2.8V526.1z M44.4,520.4h-2.8v2.9H13.4v-2.9h-2.8v-22.9h2.8v-2.9h28.1v2.9h2.8V520.4z"/>
</g>
<g>
	<path fill="#2D2D2D" d="M63,517l19.5,10v-12.8l-19.5-10V517z M84.9,526.8L102,518v-13.8l-17.1,9.7V526.8z M97.1,499.5v0.6h0
		c-0.1,0.9-2.2,1.6-4.9,1.6s-4.8-0.7-4.9-1.6h0v-3.4v-0.1h0l0,0.1c0,0.9,2.2,1.7,4.9,1.7s4.9-0.7,4.9-1.7c0-0.9-2.2-1.7-4.9-1.7
		c-1.5,0-2.9,0.2-3.7,0.6l-1.2-0.5c-0.1,0.9-2.2,1.6-4.8,1.6c-2.6,0-4.7-0.7-4.8-1.6l-1.2,0.5c-0.9-0.4-2.2-0.6-3.7-0.6
		c-2.7,0-4.9,0.7-4.9,1.7c0,0.9,2.2,1.7,4.9,1.7c2.7,0,4.9-0.7,4.9-1.7l0-0.1h0v0.1v3.4h0c-0.1,0.9-2.2,1.6-4.9,1.6
		c-2.6,0-4.8-0.7-4.9-1.6h0v-0.6l-4.9,2.2l19.5,10l19.5-10L97.1,499.5z M87.4,501.9v3.4h0c-0.1,0.9-2.2,1.6-4.9,1.6
		s-4.8-0.7-4.9-1.6h0v-3.4v-0.1h0l0,0.1c0,0.9,2.2,1.7,4.9,1.7S87.4,502.8,87.4,501.9l0-0.1h0V501.9z M82.5,493.3
		c2.7,0,4.9-0.7,4.9-1.7c0-0.9-2.2-1.7-4.9-1.7s-4.9,0.7-4.9,1.7C77.6,492.6,79.8,493.3,82.5,493.3"/>
</g>
<g>
	<path fill="#2D2D2D" d="M163.4,449.6l-12.2,4.9V449c0-1.9-1.6-3.5-3.4-3.5h-34.4c-1.9,0-3.4,1.6-3.4,3.5v21c0,1.9,1.5,3.5,3.4,3.5
		h34.4c1.9,0,3.4-1.6,3.4-3.5v-5.6l12.2,4.9c0.9,0.4,1.6-0.1,1.6-1.1v-17.5C165,449.8,164.3,449.3,163.4,449.6 M137.5,466.5h-3.4
		V463h3.4V466.5z M144.4,466.5h-3.4V463h3.4V466.5z M144.4,456h-27.5v-3.5h27.5V456z M137.5,440v2h6.9v-4.9l-5.4-5.6h-25.5v7h22.6
		L137.5,440z"/>
</g>
<g>
	<path fill="#2D2D2D" d="M169,456.4V477h20.6v-11.7l-8.8-8.8H169z M186.6,466.5v7.6h-14.7v-14.7h7.6l1.2,1.2v4.7h4.7L186.6,466.5z
		 M169,430v20.6h20.6v-11.8l-8.8-8.8H169L169,430z M186.6,440v7.6h-14.7v-14.7h7.6l1.2,1.2v4.7h4.7L186.6,440z M207.2,430h-11.8
		v20.6H216v-11.8L207.2,430z M213.1,447.6h-14.7v-14.7h7.6l1.2,1.2v4.7h4.7l1.2,1.2V447.6z M195.4,456.4V477H216v-11.7l-8.8-8.8
		H195.4z M213.1,466.5v7.6h-14.7v-14.7h7.6l1.2,1.2v4.7h4.7L213.1,466.5z"/>
</g>
<g>
	<path fill="#2D2D2D" d="M235.8,435.9h-5.9v5.9h5.9V435.9z M241.6,430H224v17.6h17.6V430z M238.7,444.7h-11.7v-11.8h11.7V444.7z
		 M265.1,435.9h-5.9v5.9h5.9V435.9z M253.4,447.6H271V430h-17.6V447.6z M268.1,444.7h-11.7v-11.8h11.7V444.7z M229.9,471.1h5.9v-5.9
		h-5.9V471.1z M224,477h17.6v-17.6H224V477z M226.9,462.3h11.7v11.8h-11.7V462.3z M244.6,462.3v2.9h2.9v5.9h2.9v-11.8h-2.9v2.9
		L244.6,462.3L244.6,462.3z M265.1,459.4h-2.9v2.9h2.9v5.9h-2.9v-5.9h-5.9v-5.9h2.9v2.9h2.9v-2.9h2.9v-2.9h-2.9v-2.9h-2.9v2.9h-2.9
		v-2.9h-5.9v-5.9h-2.9v2.9h-2.9v2.9h2.9v5.9h5.9v14.7h2.9v2.9h-2.9v2.9h5.9v-2.9h2.9v-2.9h2.9v2.9h-2.6v2.9h8.4v-5.9h-2.9v-5.9h2.9
		v-2.9h-2.9v-5.9h-2.9L265.1,459.4L265.1,459.4z M259.2,468.2h-2.9v-2.9h2.9V468.2z M250.4,438.8V430h-5.9v2.9h2.9v2.9h-2.9v8.8h2.9
		v-5.9H250.4z M232.8,453.5h2.9v-2.9h-2.9V453.5z M238.7,453.5h-2.9v2.9h5.9v-2.9h2.9v-2.9h-5.9L238.7,453.5L238.7,453.5z
		 M265.1,453.5h2.9v2.9h2.9v-5.9h-5.9V453.5z M244.6,459.4h2.9v-2.9h-2.9V459.4z M244.6,474.1h2.9v-2.9h-2.9V474.1z M250.4,474.1
		h-2.9v2.9h2.9V474.1z M229.9,450.6H224v5.9h8.8v-2.9h-2.9V450.6z"/>
</g>
<g>
	<polygon fill="#2D2D2D" points="260.4,511.3 256,500.1 253.2,500.1 248.6,516.9 244.7,486 241.9,486 232.3,512.5 225,516.9 
		236.3,516.9 242.4,494.4 244.7,531 250.3,531 255,505.5 258.8,516.9 270,511.3 	"/>
</g>
<path d="M215.3,189.9l-8.1-8.1c1.1-1.8,1.8-3.8,1.8-6.1c0-6.2-5-11.2-11.2-11.2c-6.2,0-11.2,5-11.2,11.2c0,6.2,5,11.2,11.2,11.2
	c2.2,0,4.3-0.7,6.1-1.8l8.1,8.1c0.3,0.3,0.8,0.3,1.1,0l2.3-2.3C215.6,190.7,215.6,190.2,215.3,189.9z M197.7,183.8c-4.4,0-8-3.6-8-8
	c0-4.4,3.6-8,8-8s8,3.6,8,8C205.8,180.2,202.2,183.8,197.7,183.8z"/>
<path fill="#FFFFFF" d="M246.8,164h-25.5c-2.3,0-4.2,1.9-4.2,4.3v15c0,2.4,1.9,4.3,4.2,4.3h8.5l8.5,6.4v-6.4h8.5
	c2.3,0,4.2-1.9,4.2-4.3v-15C251,165.9,249.1,164,246.8,164z"/>
<path d="M308.9,274.1h-0.9v2.1h-3.4v-2.1h-6.1v2.1h-3.4v-2.1h-0.9c-1.2,0-2.1,1-2.1,2.1v12.7c0,1.2,0.9,2.1,2.1,2.1h14.8
	c1.2,0,2.1-1,2.1-2.1v-12.7C311,275.1,310,274.1,308.9,274.1z M308.9,288.9h-14.8v-8.4h14.8V288.9z M297.5,272H296v3.6h1.5V272z
	 M307,272h-1.5v3.6h1.5V272z"/>
<path fill="#2D2D2D" d="M280.8,164h-25.5c-2.3,0-4.2,1.9-4.2,4.3v15c0,2.4,1.9,4.3,4.2,4.3h8.5l8.5,6.4v-6.4h8.5
	c2.3,0,4.2-1.9,4.2-4.3v-15C285,165.9,283.1,164,280.8,164z"/>
<g>
	<g>
		<path fill="#999999" d="M124.4,221.4c-1-1.5-4.2-2.4-7.4-3.7c-3.2-1.3-3.9-1.7-3.9-1.7l0-3c0,0,1.2-0.9,1.6-3.7
			c0.7,0.2,1.5-1.1,1.6-1.8c0-0.7-0.1-2.5-1-2.3c0.2-1.4,0.3-2.6,0.3-3.3c-0.2-2.4-2.7-4.9-6.4-4.9c-3.7,0-6.1,2.5-6.4,4.9
			c-0.1,0.7,0.1,1.9,0.3,3.3c-0.9-0.2-1.1,1.6-1,2.3c0,0.7,0.8,2,1.6,1.8c0.4,2.8,1.6,3.7,1.6,3.7l0,3c0,0-0.8,0.5-3.9,1.7
			c-3.2,1.3-6.4,2.2-7.4,3.7c-0.9,1.3-0.6,7.6-0.6,7.6H125C125,229,125.2,222.7,124.4,221.4z M90.6,219.1v-4.2
			c3.1,1.5,6.9,1.4,8.2-2.5c-2.1,0-4.1-2.1-4.1-8.3c0-4.2-6.2-7.5-8.2-5.4c-2.1-2.1-8.2,1.3-8.2,5.4c0,6.2-2.1,8.3-4.1,8.3
			c1.3,4,5.1,4.1,8.2,2.5v4.2c-3.2,2.4-7,2.5-9.7,3.3c-1.6,0.4-2.7,2.9-2.7,4.6v2h22c0-0.1-0.3-6.3,0.6-7.6c0.2-0.3,0.5-0.5,0.8-0.8
			C92.5,220.3,91.5,219.8,90.6,219.1z"/>
	</g>
</g>
<path fill="#999999" d="M152.5,198c-6.4,0-11.5,5.2-11.5,11.6c0,7.8,11.5,19.4,11.5,19.4s11.5-11.6,11.5-19.4
	C164,203.2,158.8,198,152.5,198z M152.5,217.4c-4.2,0-7.7-3.5-7.7-7.8s3.4-7.8,7.7-7.8c4.2,0,7.7,3.5,7.7,7.8
	S156.7,217.4,152.5,217.4z"/>
<g>
	<g>
		<path fill="#999999" d="M198.3,201.4l-1.7-1.7c-0.5-0.5-1.2-0.5-1.7,0c-0.5,0.5-0.5,1.2,0,1.7l1.7,1.7c0.5,0.5,1.2,0.5,1.7,0
			C198.7,202.6,198.7,201.9,198.3,201.4z M192.1,211.6h-2.4c-0.7,0-1.2,0.5-1.2,1.2s0.5,1.2,1.2,1.2h2.4c0.7,0,1.2-0.5,1.2-1.2
			C193.3,212.2,192.7,211.6,192.1,211.6z M225.3,214h-2.4c-0.7,0-1.2,0.5-1.2,1.2s0.5,1.2,1.2,1.2h2.4c0.7,0,1.2-0.5,1.2-1.2
			C226.5,214.5,226,214,225.3,214z M221.8,201.4c-0.5-0.5-1.2-0.5-1.7,0l-1.7,1.7c-0.5,0.5-0.5,1.2,0,1.7c0.5,0.5,1.2,0.5,1.7,0
			l1.7-1.7C222.2,202.6,222.2,201.9,221.8,201.4z M208.7,199.8c0.3,0,0.6-0.1,0.8-0.4c0.2-0.2,0.4-0.5,0.4-0.8v-2.4
			c0-0.7-0.5-1.2-1.2-1.2c-0.5,0-0.9,0.3-1.1,0.7l-0.1,0.5l0,2.4C207.5,199.2,208,199.8,208.7,199.8z M207.5,204.5
			c-5.2,0-9.5,4.3-9.5,9.5c0,3.5,1.9,6.5,4.8,8.2v3.7h9.5v-3.7c2.8-1.6,4.8-4.7,4.8-8.2C217,208.8,212.7,204.5,207.5,204.5z
			 M211.1,220.1l-1.2,0.7v2.7h-4.8v-2.7l-1.2-0.7c-2.2-1.3-3.6-3.6-3.6-6.1c0-3.9,3.2-7.1,7.1-7.1c3.9,0,7.1,3.2,7.1,7.1
			C214.6,216.5,213.3,218.8,211.1,220.1z M202.7,230.6h2.4l-0.1,0.3c0,1.1,1.1,2.1,2.4,2.1c1.3,0,2.4-0.9,2.4-2.1l-0.1-0.3h2.4v-2.4
			h-9.5L202.7,230.6L202.7,230.6z"/>
	</g>
</g>
<path fill="#252525" d="M304.5,426c17.9,0,32.5,14.6,32.5,32.5S322.4,491,304.5,491c-17.9,0-32.5-14.6-32.5-32.5
	S286.6,426,304.5,426z"/>
<g>
	<path fill="#FFFFFF" d="M301,180.4c-1.7,1.7-3.5,3.6-6.2,3.6c-2.8,0-4.8-2.1-4.8-5c0-2.7,2.1-5,5-5c2.5,0,4.3,2,6,3.6
		c1.7-1.7,3.5-3.6,6.2-3.6c2.8,0,4.8,2.1,4.8,5c0,2.7-2.1,5-5.1,5C304.4,184,302.6,182,301,180.4z M299.7,179c-1.3-1.2-2.7-3-4.6-3
		c-1.7,0-2.9,1.4-2.9,3c0,1.7,1.2,3,2.9,3C296.9,182,298.4,180.4,299.7,179z M309.9,179c0-1.7-1.2-3-2.8-3c-1.9,0-3.4,1.7-4.7,3
		c1.3,1.2,2.7,3,4.6,3C308.6,182,309.9,180.6,309.9,179z"/>
</g>
<g>
	<g>
		<g>
			<defs>
				<rect id="SVGID_1_" x="-55" y="539.5" width="60" height="53"/>
			</defs>
			<clipPath id="SVGID_2_">
				<use xlink:href="#SVGID_1_"  overflow="visible"/>
			</clipPath>
			<path clip-path="url(#SVGID_2_)" fill="#32363B" d="M3.3,568.5c3-3,2.1-9.1-3.2-9.1l-13.8,0c0.5-2.9,1.3-7.8,1.3-8.2
				c-0.3-4.3-3.1-9.6-3.2-9.8c-0.5-0.9-3.1-2.2-5.6-1.7c-3.3,0.7-3.7,2.8-3.6,3.4c0,0,0.1,5.8,0.2,7.3c-1.6,3.5-7.1,12.6-8.7,13.3
				c-0.4-0.2-0.8-0.4-1.3-0.4h-17.5c-1.5,0-2.7,1.2-2.7,2.7l0,24.2c0.1,1.3,1.2,2.3,2.5,2.3h15.7c1.4,0,2.5-1.1,2.5-2.5v-0.8
				c0,0,0.6,0,0.8,0.1c1,0.6,2.3,1.4,3.9,1.4H-6c8.8,0,7.8-7.8,7-8.8c1.5-1.6,2.4-4.5,1.1-6.7C3.1,574.2,4.8,571.4,3.3,568.5"/>
		</g>
	</g>
	<g>
		<g>
			<defs>
				<rect id="SVGID_3_" x="-55" y="539.5" width="60" height="53"/>
			</defs>
			<clipPath id="SVGID_4_">
				<use xlink:href="#SVGID_3_"  overflow="visible"/>
			</clipPath>
			<path clip-path="url(#SVGID_4_)" fill="#FFFFFF" d="M-0.3,561.9h-16.5c0.6-2.5,1.8-10.6,1.8-10.6c-0.3-3.9-2.9-8.8-2.9-8.8
				c-3.1-1.3-4.5,0.5-4.5,0.5s0.2,6.2,0.2,7.7c0,1.4-7.1,12.9-8.9,14.4c-0.9,0.8-2.6,1.9-3.9,2.7v18.6l1.1,0c1.2,0,2.8,1.9,4.5,1.9
				l23.9,0c4.8,0,5.6-5.4,2.4-5.9l0.1-0.6c3-0.3,4.9-5.1,1-6.1L-2,575c2.9-0.3,5-5,1-6.1l0.1-0.6C3,567.7,3.8,561.9-0.3,561.9"/>
		</g>
	</g>
	<g>
		<g>
			<defs>
				<rect id="SVGID_5_" x="-55" y="539.5" width="60" height="53"/>
			</defs>
			<clipPath id="SVGID_6_">
				<use xlink:href="#SVGID_5_"  overflow="visible"/>
			</clipPath>
			<rect x="-52.5" y="565.9" clip-path="url(#SVGID_6_)" fill="#6984B0" width="15.7" height="24.1"/>
		</g>
	</g>
</g>
<g>
	<g>
		<g>
			<defs>
				<rect id="SVGID_7_" x="10.5" y="546" width="49" height="40"/>
			</defs>
			<clipPath id="SVGID_8_">
				<use xlink:href="#SVGID_7_"  overflow="visible"/>
			</clipPath>
			<path clip-path="url(#SVGID_8_)" fill="#2CAAE1" d="M59.5,550.7c-1.8,0.8-3.7,1.3-5.8,1.6c2.1-1.2,3.7-3.2,4.4-5.6
				c-1.9,1.2-4.1,2-6.4,2.5c-1.8-2-4.4-3.2-7.3-3.2c-5.6,0-10.1,4.5-10.1,10.1c0,0.8,0.1,1.6,0.3,2.3c-8.4-0.4-15.8-4.4-20.7-10.6
				c-0.9,1.5-1.4,3.2-1.4,5.1c0,3.5,1.8,6.6,4.5,8.4c-1.6-0.1-3.2-0.5-4.6-1.3c0,0,0,0.1,0,0.1c0,4.9,3.5,9,8.1,9.9
				c-0.8,0.2-1.7,0.4-2.6,0.4c-0.6,0-1.3-0.1-1.9-0.2c1.3,4,5,6.9,9.4,7c-3.4,2.7-7.8,4.3-12.5,4.3c-0.8,0-1.6,0-2.4-0.1
				c4.4,2.9,9.7,4.5,15.4,4.5c18.5,0,28.6-15.4,28.6-28.7c0-0.4,0-0.9,0-1.3C56.4,554.5,58.2,552.8,59.5,550.7"/>
		</g>
	</g>
</g>
<path fill="#212121" d="M335.3,272.5c-0.4,0.1-21.6,7.4-22,7.6c-0.4,0.1-0.4,0.4,0,0.6c0.5,0.2,4.7,1.8,4.7,1.8l0,0l2.8,1.1
	c0,0,13.5-9.6,13.7-9.8c0.1-0.1,0.4,0.1,0.2,0.2c-0.1,0.1-9.8,10.4-9.8,10.4l0,0l-0.6,0.6l0.7,0.4l0,0c0,0,5.8,3,6.2,3.3
	c0.4,0.2,0.8,0,0.9-0.4c0.1-0.5,3.5-14.9,3.6-15.2C336.1,272.7,335.8,272.4,335.3,272.5z M320.8,290.2c0,0.3,0.2,0.3,0.4,0.1
	c0.3-0.3,3.5-3.1,3.5-3.1l-4-2V290.2z"/>
<g id="twitter_3_">
	<path fill="#2D2D2D" d="M-34.5,601.8c-0.7,0.3-1.4,0.5-2.1,0.6c0.8-0.5,1.3-1.2,1.6-2.1c-0.7,0.4-1.5,0.7-2.3,0.9
		C-38,600.5-39,600-40,600c-2,0-3.7,1.7-3.7,3.8c0,0.3,0,0.6,0.1,0.9c-3.1-0.2-5.8-1.7-7.6-4c-0.3,0.6-0.5,1.2-0.5,1.9
		c0,1.3,0.7,2.5,1.6,3.2c-0.6,0-1.2-0.2-1.7-0.5c0,0,0,0,0,0c0,1.8,1.3,3.4,3,3.7c-0.3,0.1-0.6,0.1-1,0.1c-0.2,0-0.5,0-0.7-0.1
		c0.5,1.5,1.8,2.6,3.4,2.6c-1.3,1-2.9,1.6-4.6,1.6c-0.3,0-0.6,0-0.9-0.1c1.6,1.1,3.6,1.7,5.7,1.7c6.8,0,10.5-5.8,10.5-10.8
		c0-0.2,0-0.3,0-0.5C-35.6,603.2-35,602.5-34.5,601.8"/>
</g>
<g id="facebook_3_">
	<path fill="#2D2D2D" d="M-15.5,601.6h-2.9c-0.3,0-0.7,0.4-0.7,1v2.1h3.6v2.9h-3.6v8.8h-3.4v-8.8h-3.1v-2.9h3.1V603
		c0-2.5,1.7-4.5,4.1-4.5h2.9V601.6z"/>
</g>
<g id="twitter_4_">
	<path fill="#FFFFFF" d="M-34.5,624.8c-0.7,0.3-1.4,0.5-2.1,0.6c0.8-0.5,1.3-1.2,1.6-2.1c-0.7,0.4-1.5,0.7-2.3,0.9
		C-38,623.5-39,623-40,623c-2,0-3.7,1.7-3.7,3.8c0,0.3,0,0.6,0.1,0.9c-3.1-0.2-5.8-1.7-7.6-4c-0.3,0.6-0.5,1.2-0.5,1.9
		c0,1.3,0.7,2.5,1.6,3.2c-0.6,0-1.2-0.2-1.7-0.5c0,0,0,0,0,0c0,1.8,1.3,3.4,3,3.7c-0.3,0.1-0.6,0.1-1,0.1c-0.2,0-0.5,0-0.7-0.1
		c0.5,1.5,1.8,2.6,3.4,2.6c-1.3,1-2.9,1.6-4.6,1.6c-0.3,0-0.6,0-0.9-0.1c1.6,1.1,3.6,1.7,5.7,1.7c6.8,0,10.5-5.8,10.5-10.8
		c0-0.2,0-0.3,0-0.5C-35.6,626.2-35,625.5-34.5,624.8"/>
</g>
<g id="facebook_4_">
	<path fill="#FFFFFF" d="M-15.5,624.6h-2.9c-0.3,0-0.7,0.4-0.7,1v2.1h3.6v2.9h-3.6v8.8h-3.4v-8.8h-3.1v-2.9h3.1V626
		c0-2.5,1.7-4.5,4.1-4.5h2.9V624.6z"/>
</g>
<path fill="#2D2D2D" d="M-5.5,603c0,1.5,0.5,2.6,1.5,3.3c0.8,0.5,1.7,0.6,2.2,0.6c0.1,0,0.2,0,0.3,0c0,0-0.2,1,0.6,2l0,0
	c-1.3,0-5.5,0.3-5.5,3.8c0,3.6,3.9,3.8,4.7,3.8c0.1,0,0.1,0,0.1,0c0,0,0.1,0,0.2,0c0.5,0,1.8-0.1,3-0.7c1.6-0.8,2.3-2.1,2.3-4
	c0-1.8-1.2-2.9-2.1-3.7c-0.5-0.5-1-0.9-1-1.3c0-0.4,0.3-0.7,0.8-1.1c0.7-0.6,1.3-1.5,1.3-3.2c0-1.5-0.2-2.5-1.4-3.1
	c0.1-0.1,0.6-0.1,0.8-0.1c0.6-0.1,1.6-0.2,1.6-0.7v-0.1h-4.6C-0.9,598.5-5.5,598.7-5.5,603z M1.9,612.2c0.1,1.4-1.1,2.5-2.9,2.6
	c-1.8,0.1-3.4-0.7-3.4-2.1c0-0.7,0.3-1.4,0.8-1.9c0.6-0.5,1.4-0.9,2.3-0.9c0.1,0,0.2,0,0.3,0C0.7,609.8,1.8,610.9,1.9,612.2z
	 M0.7,602c0.5,1.6-0.2,3.3-1.3,3.6c-0.1,0-0.3,0.1-0.4,0.1c-1,0-2-1-2.4-2.4c-0.2-0.8-0.2-1.5,0-2.2c0.2-0.7,0.6-1.1,1.2-1.3
	c0.1,0,0.3-0.1,0.4-0.1C-0.6,599.8,0.2,600.3,0.7,602z M8.5,605.5v-3.1H6.6v3.1h-3v1.9h3v3.1h1.9v-3.1h3v-1.9H8.5z"/>
<path fill="#FFFFFF" d="M-5.5,626c0,1.5,0.5,2.6,1.5,3.3c0.8,0.5,1.7,0.6,2.2,0.6c0.1,0,0.2,0,0.3,0c0,0-0.2,1,0.6,2l0,0
	c-1.3,0-5.5,0.3-5.5,3.8c0,3.6,3.9,3.8,4.7,3.8c0.1,0,0.1,0,0.1,0c0,0,0.1,0,0.2,0c0.5,0,1.8-0.1,3-0.7c1.6-0.8,2.3-2.1,2.3-4
	c0-1.8-1.2-2.9-2.1-3.7c-0.5-0.5-1-0.9-1-1.3c0-0.4,0.3-0.7,0.8-1.1c0.7-0.6,1.3-1.5,1.3-3.2c0-1.5-0.2-2.5-1.4-3.1
	c0.1-0.1,0.6-0.1,0.8-0.1c0.6-0.1,1.6-0.2,1.6-0.7v-0.1h-4.6C-0.9,621.5-5.5,621.7-5.5,626z M1.9,635.2c0.1,1.4-1.1,2.5-2.9,2.6
	c-1.8,0.1-3.4-0.7-3.4-2.1c0-0.7,0.3-1.4,0.8-1.9c0.6-0.5,1.4-0.9,2.3-0.9c0.1,0,0.2,0,0.3,0C0.7,632.8,1.8,633.9,1.9,635.2z
	 M0.7,625c0.5,1.6-0.2,3.3-1.3,3.6c-0.1,0-0.3,0.1-0.4,0.1c-1,0-2-1-2.4-2.4c-0.2-0.8-0.2-1.5,0-2.2c0.2-0.7,0.6-1.1,1.2-1.3
	c0.1,0,0.3-0.1,0.4-0.1C-0.6,622.8,0.2,623.3,0.7,625z M8.5,628.5v-3.1H6.6v3.1h-3v1.9h3v3.1h1.9v-3.1h3v-1.9H8.5z"/>
<g>
	<path fill="#2D2D2D" d="M20.6,600.5c0,1.1-0.8,1.9-2.1,1.9c-1.2,0-2-0.9-2-1.9c0-1.1,0.8-2,2.1-2C19.8,598.5,20.6,599.3,20.6,600.5
		z M16.6,616.5v-12.6h3.8v12.6H16.6z"/>
	<path fill="#2D2D2D" d="M22.8,607.9c0-1.6-0.1-2.9-0.1-4H26l0.2,1.7h0.1c0.5-0.8,1.7-2,3.8-2c2.5,0,4.4,1.7,4.4,5.4v7.4h-3.8v-7
		c0-1.6-0.6-2.7-1.9-2.7c-1.1,0-1.7,0.7-2,1.5c-0.1,0.3-0.1,0.6-0.1,1v7.2h-3.8L22.8,607.9L22.8,607.9z"/>
</g>
<g>
	<path fill="#FFFFFF" d="M20.6,623.5c0,1.1-0.8,1.9-2.1,1.9c-1.2,0-2-0.9-2-1.9c0-1.1,0.8-2,2.1-2C19.8,621.5,20.6,622.3,20.6,623.5
		z M16.6,639.5v-12.6h3.8v12.6H16.6z"/>
	<path fill="#FFFFFF" d="M22.8,630.9c0-1.6-0.1-2.9-0.1-4H26l0.2,1.7h0.1c0.5-0.8,1.7-2,3.8-2c2.5,0,4.4,1.7,4.4,5.4v7.4h-3.8v-7
		c0-1.6-0.6-2.7-1.9-2.7c-1.1,0-1.7,0.7-2,1.5c-0.1,0.3-0.1,0.6-0.1,1v7.2h-3.8L22.8,630.9L22.8,630.9z"/>
</g>
<g id="mail_2_">
	<path fill="#2D2D2D" d="M267.4,151.7c0.3,0.2,4.8,2.7,5,2.8s0.4,0.1,0.6,0.1s0.4,0,0.6-0.1c0.2-0.1,4.7-2.6,5-2.8
		c0.3-0.2,0.6-0.8,0-0.8h-11.3C266.8,151,267.1,151.6,267.4,151.7 M278.7,153.1c-0.4,0.2-4.9,2.7-5.1,2.8c-0.2,0.1-0.4,0.1-0.6,0.1
		c-0.2,0-0.4,0-0.6-0.1c-0.2-0.1-4.8-2.6-5.1-2.8c-0.3-0.1-0.3,0-0.3,0.2v5.1c0,0.3,0.4,0.7,0.7,0.7h10.7c0.3,0,0.7-0.4,0.7-0.7
		v-5.1C279,153.2,279,153,278.7,153.1"/>
</g>
<g id="phone_2_">
	<path fill="#2D2D2D" d="M291.6,148h-5.2c-0.8,0-1.4,0.6-1.4,1.4v11.1c0,0.8,0.6,1.4,1.4,1.4h5.2c0.8,0,1.4-0.6,1.4-1.4v-11.1
		C293,148.6,292.4,148,291.6,148 M289,161.4c-0.5,0-1-0.3-1-0.7c0-0.4,0.4-0.7,1-0.7c0.5,0,1,0.3,1,0.7
		C290,161.1,289.5,161.4,289,161.4 M291.9,159.3h-5.8v-9.4h5.8V159.3z"/>
</g>
<path fill="#212121" d="M372.5,316c15.2,0,27.5,12.3,27.5,27.5c0,15.2-12.3,27.5-27.5,27.5c-15.2,0-27.5-12.3-27.5-27.5
	C345,328.3,357.3,316,372.5,316z"/>
<rect x="345" y="331.5" fill="none" width="55" height="35"/>
<text transform="matrix(1 0 0 1 356.1858 340.1602)" fill="#FFFFFF" font-family="'ArialMT'" font-size="12">Guest</text>
<text transform="matrix(1 0 0 1 353.7981 354.5596)" fill="#FFFFFF" font-family="'ArialMT'" font-size="12">Author</text>
<g>
	<g>
		<path fill="#2D2D2D" d="M38,610.4h5.7v-5.7H38V610.4z M38,618h5.7v-5.7H38V618z M45.6,618h5.7v-5.7h-5.7V618z M45.6,610.4h5.7
			v-5.7h-5.7V610.4z M53.3,597v5.7H59V597H53.3z M53.3,610.4H59v-5.7h-5.7L53.3,610.4L53.3,610.4z M53.3,618H59v-5.7h-5.7L53.3,618
			L53.3,618z M45.6,602.7h5.7V597h-5.7V602.7z M38,602.7h5.7V597H38V602.7z"/>
	</g>
</g>
<g>
	<g>
		<path fill="#FFFFFF" d="M38,633.4h5.7v-5.7H38V633.4z M38,641h5.7v-5.7H38V641z M45.6,641h5.7v-5.7h-5.7V641z M45.6,633.4h5.7
			v-5.7h-5.7V633.4z M53.3,620v5.7H59V620H53.3z M53.3,633.4H59v-5.7h-5.7L53.3,633.4L53.3,633.4z M53.3,641H59v-5.7h-5.7L53.3,641
			L53.3,641z M45.6,625.7h5.7V620h-5.7V625.7z M38,625.7h5.7V620H38V625.7z"/>
	</g>
</g>
<g id="phone_3_">
	<path fill="#2D2D2D" d="M200.7,486.5h-16.4c-2.4,0-4.3,2-4.3,4.5v35c0,2.5,1.9,4.5,4.3,4.5h16.4c2.4,0,4.3-2,4.3-4.5v-35
		C205,488.5,203.1,486.5,200.7,486.5 M192.5,528.7c-1.7,0-3-1-3-2.2c0-1.2,1.4-2.2,3-2.2s3,1,3,2.2
		C195.5,527.7,194.2,528.7,192.5,528.7 M201.6,522h-18.1v-29.6h18.1V522z"/>
</g>
<g id="phone_4_">
	<path fill="#FFFFFF" d="M255.7,321.5h-16.4c-2.4,0-4.3,2-4.3,4.5v35c0,2.5,1.9,4.5,4.3,4.5h16.4c2.4,0,4.3-2,4.3-4.5v-35
		C260,323.5,258.1,321.5,255.7,321.5 M247.5,363.7c-1.7,0-3-1-3-2.2c0-1.2,1.4-2.2,3-2.2c1.7,0,3,1,3,2.2
		C250.5,362.7,249.2,363.7,247.5,363.7 M256.6,357h-18.1v-29.6h18.1V357z"/>
</g>
<g>
	<polygon fill="#2D2D2D" points="147.4,511.6 151.2,515.4 153,513.5 149.3,509.6 	"/>
	<rect x="151.7" y="502.6" fill="#2D2D2D" width="5.3" height="2.7"/>
	<polygon fill="#2D2D2D" points="154.9,492.3 153,490.3 149.3,494.2 151.2,496.1 	"/>
	<rect x="140.8" y="488.5" fill="#2D2D2D" width="2.6" height="5.5"/>
	<polygon fill="#2D2D2D" points="136.2,496.1 132.5,492.3 130.6,494.2 134.4,498.1 	"/>
	<path fill="#2D2D2D" d="M143.6,496.3L118,522.7l5.6,5.8l25.6-26.5L143.6,496.3z M138,505.9l5.6-5.8l1.9,1.9l-5.6,5.8L138,505.9z"/>
</g>
<g>
	<polygon fill="#FFFFFF" points="147.4,346.6 151.2,350.4 153,348.5 149.3,344.6 	"/>
	<rect x="151.7" y="337.6" fill="#FFFFFF" width="5.3" height="2.7"/>
	<polygon fill="#FFFFFF" points="154.9,327.3 153,325.3 149.3,329.2 151.2,331.1 	"/>
	<rect x="140.8" y="323.5" fill="#FFFFFF" width="2.6" height="5.5"/>
	<polygon fill="#FFFFFF" points="136.2,331.1 132.5,327.3 130.6,329.2 134.4,333.1 	"/>
	<path fill="#FFFFFF" d="M143.6,331.3L118,357.7l5.6,5.8l25.6-26.5L143.6,331.3z M138,340.9l5.6-5.8l1.9,1.9l-5.6,5.8L138,340.9z"/>
</g>
<g id="Guides">
	<rect x="-80.3" y="152.2" fill="none" width="14.2" height="11.8"/>
	<text transform="matrix(1 0 0 1 -80.3337 156.4268)" fill="#010101" font-family="'MyriadPro-Regular'" font-size="6">16</text>
	<rect x="-80.3" y="176.4" fill="none" width="14.2" height="11.8"/>
	<text transform="matrix(1 0 0 1 -80.3337 180.6455)" fill="#010101" font-family="'MyriadPro-Regular'" font-size="6">32</text>
	<rect x="-79.7" y="204.6" fill="none" width="14.2" height="11.8"/>
	<text transform="matrix(1 0 0 1 -79.6677 208.8438)" fill="#010101" font-family="'MyriadPro-Regular'" font-size="6">25</text>
	<rect x="-79.7" y="230.1" fill="none" width="14.2" height="11.8"/>
	<text transform="matrix(1 0 0 1 -79.6677 234.3438)" fill="#010101" font-family="'MyriadPro-Regular'" font-size="6">25</text>
	<rect x="-80.3" y="281.6" fill="none" width="14.2" height="11.8"/>
	<text transform="matrix(1 0 0 1 -80.3337 285.8438)" fill="#010101" font-family="'MyriadPro-Regular'" font-size="6">23</text>
	<rect x="-79.7" y="256" fill="none" width="14.2" height="11.8"/>
	<text transform="matrix(1 0 0 1 -79.6677 260.2617)" fill="#010101" font-family="'MyriadPro-Regular'" font-size="6">25</text>
	<text transform="matrix(1 0 0 1 -79.6677 306.5938)" fill="#010101" font-family="'MyriadPro-Regular'" font-size="6">23</text>
	<text transform="matrix(1 0 0 1 -80.3337 347.001)" fill="#010101" font-family="'MyriadPro-Regular'" font-size="6">55</text>
	<text transform="matrix(1 0 0 1 -79.6677 403)" fill="#010101" font-family="'MyriadPro-Regular'" font-size="6">55</text>
	<text transform="matrix(1 0 0 1 -79.6677 456.7227)" fill="#010101" font-family="'MyriadPro-Regular'" font-size="6">55</text>
	<text transform="matrix(1 0 0 1 -79.6677 514.3496)" fill="#010101" font-family="'MyriadPro-Regular'" font-size="6">55</text>
	<text transform="matrix(0.8 0 0 1 -79.667 569.29)" fill="#010101" font-family="'MyriadPro-Regular'" font-size="7.5">55</text>
	<text transform="matrix(0.8 0 0 1 -79.667 611.54)" fill="#010101" font-family="'MyriadPro-Regular'" font-size="7.5">23</text>
	<text transform="matrix(0.8 0 0 1 -79.667 635.29)" fill="#010101" font-family="'MyriadPro-Regular'" font-size="7.5">23</text>
</g>
<path fill="#FFFFFF" d="M421,147c-13.2,0-24,10.8-24,24c0,16,24,40,24,40s24-24,24-40C445,157.8,434.2,147,421,147z M421,187
	c-8.8,0-16-7.2-16-16s7.2-16,16-16s16,7.2,16,16S429.8,187,421,187z"/>
</svg>
