<?xml version="1.0" encoding="utf-8"?>
<!-- Generator: Adobe Illustrator 15.0.0, SVG Export Plug-In . SVG Version: 6.00 Build 0)  -->
<!DOCTYPE svg PUBLIC "-//W3C//DTD SVG 1.1//EN" "http://www.w3.org/Graphics/SVG/1.1/DTD/svg11.dtd">
<svg version="1.1" id="Layer_1" xmlns="http://www.w3.org/2000/svg" xmlns:xlink="http://www.w3.org/1999/xlink" x="0px" y="0px"
	 width="750px" height="750px" viewBox="0 0 750 750" enable-background="new 0 0 750 750" xml:space="preserve">
<g>
	<defs>
		<rect id="SVGID_1_" x="14.381" y="20.198" width="46.241" height="36.005"/>
	</defs>
	<clipPath id="SVGID_2_">
		<use xlink:href="#SVGID_1_"  overflow="visible"/>
	</clipPath>
	<g clip-path="url(#SVGID_2_)">
		<g>
			<defs>
				<rect id="SVGID_3_" x="14.381" y="20.198" width="46.24" height="36.005"/>
			</defs>
			<clipPath id="SVGID_4_">
				<use xlink:href="#SVGID_3_"  overflow="visible"/>
			</clipPath>
			<path clip-path="url(#SVGID_4_)" fill-rule="evenodd" clip-rule="evenodd" fill="#FFFFFF" d="M18.754,20.353
				c-0.297,0.045-0.583,1.139-1.157,1.709c-0.421,0.411-0.943,0.387-1.223,0.895c-0.105,0.189-0.071,0.514-0.191,0.826
				c-0.235,0.622-1.061,0.677-1.061,1.356c-0.001,0.733,0.688,0.873,1.287,1.393c0.468,0.417,0.513,0.707,1.078,0.91
				c0.483,0.165,1.202-0.373,1.849-0.18c0.531,0.158,1.04,0.271,1.16,0.817c0.105,0.504-0.007,1.283-0.651,1.193
				c-0.217-0.024-1.159-0.341-2.314-0.218c-1.397,0.159-2.989,0.614-3.145,2.17c-0.086,0.869,0.99,1.895,2.028,1.687
				c0.718-0.142,0.379-0.988,0.77-1.4c0.513-0.527,3.418,1.84,6.119,1.84c1.136,0,1.982-0.287,2.822-1.167
				c0.079-0.067,0.174-0.211,0.296-0.22c0.114,0.009,0.314,0.122,0.38,0.169c2.175,1.748,3.819,5.255,11.813,5.296
				c1.125,0.007,2.404,0.543,3.45,1.497c0.933,0.863,1.478,2.205,2.009,3.566c0.801,2.042,2.233,4.029,4.407,6.239
				c0.119,0.118,1.908,1.509,2.052,1.613c0.022,0.016,0.154,0.329,0.108,0.504c-0.053,1.326-0.246,5.181,2.629,5.354
				c0.701,0.036,0.518-0.459,0.518-0.797c-0.001-0.671-0.124-1.339,0.229-2.026c0.485-0.945-1.026-1.38-0.982-3.425
				c0.032-1.523-1.249-1.264-1.898-2.424c-0.373-0.673-0.707-1.03-0.682-1.853c0.146-4.63-0.986-7.672-1.549-8.42
				c-0.44-0.564-0.805-0.788-0.402-1.049c2.398-1.584,2.942-3.058,2.942-3.058c1.275-2.998,2.422-5.736,4.004-6.941
				c0.319-0.249,1.135-0.859,1.635-1.098c1.478-0.696,2.253-1.118,2.683-1.535c0.676-0.661,1.214-2.04,0.564-2.875
				c-0.809-1.031-2.207-0.213-2.824,0.153c-4.409,2.616-5.058,7.232-6.586,9.882c-1.219,2.119-3.2,3.674-4.971,3.801
				c-1.327,0.099-2.759-0.169-4.184-0.796c-3.466-1.52-5.362-3.482-5.811-3.828c-0.931-0.718-8.16-7.817-14.017-8.105
				c0,0-0.728-1.456-0.91-1.48c-0.428-0.055-0.867,0.869-1.181,0.977C19.55,21.402,19.053,20.304,18.754,20.353L18.754,20.353
				L18.754,20.353z"/>
		</g>
	</g>
</g>
</svg>
